<?xml version="1.0" encoding="utf-8"?>
<!-- Generator: Adobe Illustrator 24.0.2, SVG Export Plug-In . SVG Version: 6.00 Build 0)  -->
<svg version="1.1" id="Layer_1" xmlns="http://www.w3.org/2000/svg" xmlns:xlink="http://www.w3.org/1999/xlink" x="0px" y="0px"
	 viewBox="0 0 1200 720" style="enable-background:new 0 0 1200 720;" xml:space="preserve">
<style type="text/css">
	.st0{fill:#221F1F;}
	.st1{fill:#211E1F;}
	.st2{fill:#FFFFFF;}
</style>
<g>
	<g>
		<path class="st2" d="M388.92,560.63c5.76,0,10.55,1.82,14.38,5.47c3.83,3.65,5.74,8.21,5.74,13.71c0,5.49-1.93,10.04-5.8,13.64
			c-3.87,3.6-8.74,5.4-14.62,5.4c-5.62,0-10.29-1.8-14.03-5.4c-3.74-3.6-5.61-8.11-5.61-13.54c0-5.57,1.88-10.17,5.65-13.82
			C378.4,562.45,383.17,560.63,388.92,560.63z M389.13,565.7c-4.26,0-7.77,1.33-10.51,4c-2.74,2.67-4.12,6.07-4.12,10.22
			c0,4.02,1.38,7.36,4.13,10.03c2.75,2.67,6.2,4,10.34,4c4.16,0,7.63-1.36,10.41-4.08c2.78-2.72,4.17-6.11,4.17-10.16
			c0-3.95-1.39-7.27-4.17-9.96C396.6,567.04,393.19,565.7,389.13,565.7z"/>
		<path class="st2" d="M421.25,598.42v-37.31h11.82c3.56,0,6.39,0.96,8.51,2.88c2.12,1.92,3.17,4.5,3.17,7.73
			c0,2.17-0.54,4.09-1.63,5.76c-1.08,1.67-2.57,2.89-4.45,3.64c-1.88,0.76-4.59,1.13-8.11,1.13h-3.95v16.16H421.25z M432.13,565.86
			h-5.52v11.66h5.84c2.17,0,3.84-0.51,5.01-1.53c1.17-1.02,1.76-2.49,1.76-4.39C439.22,567.77,436.86,565.86,432.13,565.86z"/>
		<path class="st2" d="M481.2,561.16h5.36v21.15c0,2.86-0.21,5.02-0.63,6.48s-0.93,2.67-1.55,3.64c-0.61,0.97-1.36,1.84-2.25,2.6
			c-2.95,2.54-6.81,3.81-11.58,3.81c-4.85,0-8.75-1.26-11.68-3.79c-0.89-0.78-1.64-1.66-2.25-2.63c-0.62-0.97-1.12-2.16-1.52-3.56
			c-0.4-1.4-0.6-3.61-0.6-6.61v-21.1h5.36v21.15c0,3.5,0.4,5.94,1.2,7.31s2.02,2.47,3.65,3.29c1.64,0.83,3.57,1.24,5.79,1.24
			c3.17,0,5.74-0.83,7.73-2.48c1.05-0.89,1.8-1.94,2.27-3.15c0.46-1.21,0.69-3.28,0.69-6.21V561.16z"/>
		<path class="st2" d="M509.55,582.81l-4.05-2.46c-2.54-1.55-4.35-3.08-5.43-4.58c-1.08-1.5-1.61-3.23-1.61-5.19
			c0-2.93,1.02-5.32,3.05-7.15c2.03-1.83,4.68-2.75,7.93-2.75c3.11,0,5.97,0.87,8.56,2.62v6.05c-2.68-2.58-5.57-3.87-8.67-3.87
			c-1.74,0-3.17,0.4-4.29,1.21c-1.12,0.81-1.68,1.84-1.68,3.09c0,1.12,0.41,2.16,1.24,3.14s2.15,2,3.98,3.07l4.07,2.41
			c4.54,2.72,6.82,6.17,6.82,10.37c0,2.99-1,5.41-3,7.28c-2,1.87-4.6,2.8-7.8,2.8c-3.68,0-7.03-1.13-10.06-3.39v-6.77
			c2.88,3.65,6.21,5.47,10,5.47c1.67,0,3.06-0.47,4.17-1.4c1.11-0.93,1.67-2.09,1.67-3.49C514.45,587,512.82,584.85,509.55,582.81z"
			/>
		<path class="st2" d="M551.44,561.16h5.33v32.41h16.78v4.85h-22.11V561.16z"/>
		<path class="st2" d="M583.73,561.16h5.33v37.26h-5.33V561.16z"/>
		<path class="st2" d="M603.35,561.16h19.87v4.75h-14.54v10.4h14.54v4.75h-14.54v17.36h-5.33V561.16z"/>
		<path class="st2" d="M634.75,561.16h21.12v4.75h-15.79v11.36h15.26v4.77h-15.26v11.58h16.3v4.75h-21.63V561.16z"/>
		<path class="st2" d="M677.22,582.81l-4.05-2.46c-2.54-1.55-4.35-3.08-5.43-4.58c-1.08-1.5-1.61-3.23-1.61-5.19
			c0-2.93,1.02-5.32,3.05-7.15c2.03-1.83,4.68-2.75,7.93-2.75c3.11,0,5.97,0.87,8.56,2.62v6.05c-2.68-2.58-5.57-3.87-8.67-3.87
			c-1.74,0-3.17,0.4-4.29,1.21s-1.68,1.84-1.68,3.09c0,1.12,0.41,2.16,1.24,3.14s2.15,2,3.98,3.07l4.07,2.41
			c4.54,2.72,6.82,6.17,6.82,10.37c0,2.99-1,5.41-3,7.28c-2,1.87-4.6,2.8-7.8,2.8c-3.68,0-7.03-1.13-10.06-3.39v-6.77
			c2.88,3.65,6.21,5.47,10,5.47c1.67,0,3.06-0.47,4.17-1.4c1.11-0.93,1.67-2.09,1.67-3.49C682.13,587,680.49,584.85,677.22,582.81z"
			/>
		<path class="st2" d="M695.58,561.11h31.12v4.75h-12.99v32.57h-5.36v-32.57h-12.77V561.11z"/>
		<path class="st2" d="M761.52,561.16H768l-13.76,17.55v19.71h-5.47v-19.71L735,561.16h6.44l9.97,12.85L761.52,561.16z"/>
		<path class="st2" d="M777.9,561.16h5.33v32.41h16.78v4.85H777.9V561.16z"/>
		<path class="st2" d="M810.17,561.16h21.12v4.75H815.5v11.36h15.26v4.77H815.5v11.58h16.3v4.75h-21.63V561.16z"/>
	</g>
	<g>
		<path class="st2" d="M264.47,404.39l-10.82-7.17c8.39,0,15.34,0,20.83,0.01c5.49,0.01,9.73,0.01,12.73,0.01l37.51,122.49H307.5
			l-24.38-79.6h-22.38l-24.36,71.27l15.51,8.33H224.7L264.47,404.39z M272.55,405.61l-9.92,29.03h18.81L272.55,405.61z"/>
		<path class="st2" d="M352.16,519.59h-16.44V405.68c0,0.09-0.86-0.56-2.58-1.95c-1.72-1.4-3.44-2.81-5.17-4.26
			c-1.73-1.44-2.59-2.16-2.58-2.16h27.51c5.54-0.23,11.09-0.25,16.67-0.05c5.58,0.18,10.93,0.44,16.07,0.78
			c5.14,0.34,9.91,1.06,14.34,2.16c4.42,1.1,8.25,2.47,11.48,4.1c3.23,1.63,5.73,3.83,7.5,6.59c1.77,2.76,2.57,5.97,2.4,9.63
			c-0.26,5.42-3.66,10.05-10.2,13.89c-6.55,3.84-16.6,6.1-30.17,6.77c5.92,0.5,11.08,1.94,15.5,4.33c4.42,2.39,7.85,5.33,10.28,8.83
			c2.44,3.5,4.53,7.41,6.26,11.75c1.74,4.33,2.96,8.71,3.66,13.12s1.45,8.72,2.24,12.92c0.79,4.2,1.53,7.92,2.23,11.17
			c0.7,3.25,1.83,5.86,3.4,7.84c1.57,1.98,3.56,2.96,5.97,2.96v5.49c-4.91-0.19-9.13-1.22-12.67-3.07
			c-3.54-1.85-6.33-4.27-8.36-7.26c-2.03-2.98-3.76-6.39-5.16-10.21c-1.4-3.82-2.61-7.84-3.62-12.05
			c-1.01-4.21-2.06-8.43-3.15-12.65c-1.09-4.22-2.54-8.27-4.34-12.14c-1.8-3.87-4-7.33-6.6-10.38c-2.6-3.05-6.11-5.56-10.53-7.52
			c-4.42-1.96-9.61-3.1-15.56-3.42v-0.75v-4.9c6.41,0.46,12.28,0.49,17.62,0.09s9.93-1.17,13.76-2.31c3.84-1.14,6.82-2.89,8.93-5.25
			c2.12-2.36,3.16-5.27,3.12-8.72c-0.04-4.24-2.27-7.85-6.69-10.83s-10.4-4.79-17.95-5.44c-7.55-0.65-16.37,0.32-26.44,2.9l0,113.91
			L352.16,519.59z"/>
		<path class="st2" d="M458.44,519.59H442V405.68c0,0.09-0.86-0.56-2.58-1.95c-1.72-1.4-3.44-2.81-5.17-4.26
			c-1.73-1.44-2.59-2.16-2.58-2.16h27.51c5.54-0.23,11.09-0.25,16.67-0.05c5.58,0.18,10.93,0.44,16.07,0.78
			c5.14,0.34,9.91,1.06,14.34,2.16c4.42,1.1,8.25,2.47,11.48,4.1c3.23,1.63,5.73,3.83,7.5,6.59c1.77,2.76,2.57,5.97,2.4,9.63
			c-0.26,5.42-3.66,10.05-10.2,13.89c-6.55,3.84-16.6,6.1-30.17,6.77c5.92,0.5,11.08,1.94,15.5,4.33c4.42,2.39,7.85,5.33,10.28,8.83
			c2.44,3.5,4.53,7.41,6.26,11.75c1.74,4.33,2.96,8.71,3.66,13.12c0.7,4.42,1.45,8.72,2.24,12.92c0.79,4.2,1.53,7.92,2.23,11.17
			c0.7,3.25,1.83,5.86,3.4,7.84c1.57,1.98,3.56,2.96,5.97,2.96v5.49c-4.91-0.19-9.13-1.22-12.67-3.07
			c-3.54-1.85-6.33-4.27-8.36-7.26c-2.03-2.98-3.76-6.39-5.16-10.21c-1.4-3.82-2.61-7.84-3.62-12.05
			c-1.01-4.21-2.06-8.43-3.15-12.65c-1.09-4.22-2.54-8.27-4.34-12.14c-1.8-3.87-4-7.33-6.6-10.38c-2.6-3.05-6.11-5.56-10.53-7.52
			c-4.42-1.96-9.61-3.1-15.56-3.42v-0.75v-4.9c6.41,0.46,12.28,0.49,17.62,0.09s9.93-1.17,13.76-2.31c3.84-1.14,6.82-2.89,8.93-5.25
			c2.12-2.36,3.16-5.27,3.12-8.72c-0.04-4.24-2.27-7.85-6.69-10.83s-10.4-4.79-17.95-5.44c-7.55-0.65-16.37,0.32-26.44,2.9l0,113.91
			L458.44,519.59z"/>
		<path class="st2" d="M545.71,403.64c-1.72-1.4-3.44-2.82-5.17-4.26c-1.73-1.44-2.59-2.17-2.58-2.17h84.23v27.81
			c-4.97-14.79-12.48-22.5-22.53-23.14H565.5v32.7h40.74v5.49H565.5v74.07c3.7-0.03,8.7-0.05,14.99-0.05
			c5.62,0,9.64-0.01,12.06-0.02c2.43-0.01,5.47-0.14,9.14-0.39c3.66-0.25,6.15-0.54,7.45-0.86c1.3-0.32,3.07-0.93,5.32-1.83
			c2.24-0.9,3.76-1.86,4.54-2.87c0.78-1.02,1.89-2.49,3.31-4.42c1.43-1.93,2.57-3.95,3.44-6.04c0.87-2.09,1.94-4.8,3.23-8.14v30.07
			h-80.69v-114C548.29,405.69,547.43,405.04,545.71,403.64z"/>
		<path class="st2" d="M736,427.38c-3.68-7.65-8.61-13.55-14.79-17.71c-6.18-4.16-12.6-6.44-19.26-6.83
			c-6.67-0.39-13.4,0.68-20.2,3.22c-6.8,2.54-12.81,6.23-18.01,11.06c-5.2,4.83-9.29,10.88-12.25,18.16
			c-2.97,7.28-4.08,14.99-3.34,23.13c0.63,6.91,2.41,13.53,5.33,19.85s6.84,12.01,11.73,17.07c4.89,5.06,11.06,9.07,18.5,12.03
			c7.44,2.96,15.59,4.37,24.45,4.25c3.68-0.05,7.23-0.22,10.64-0.5l0-76.5H736v77.55v0.48c-10.41,4.65-21.52,6.97-33.34,6.97
			c-13.01,0-25.04-2.73-36.07-8.19c-11.04-5.46-19.76-12.89-26.17-22.29c-6.41-9.4-9.62-19.63-9.63-30.71
			c-0.01-9.49,1.97-18.16,5.93-26.03c3.96-7.87,9.4-14.35,16.32-19.43c6.92-5.09,14.8-9.03,23.65-11.84
			c8.85-2.8,18.42-4.12,28.72-3.95c10.3,0.17,20.54,1.82,30.73,4.93L736,427.38z"/>
		<path class="st2" d="M744.16,397.21h27.57v117.02c2.78,0,6.61,0.01,11.48,0.04c7.3,0.04,12.42,0.06,15.36,0.06
			c2.94,0,6.45-0.31,10.53-0.93c4.08-0.62,6.77-1.27,8.07-1.97c1.31-0.7,3.22-2.17,5.75-4.42c2.53-2.25,4.51-4.52,5.94-6.83
			c1.43-2.31,3.57-5.83,6.42-10.55v25.17v4.93h-80.78V405.6L744.16,397.21z"/>
		<path class="st2" d="M940.88,405.4c10.61,5.46,19,12.89,25.17,22.29c6.17,9.4,9.25,19.63,9.25,30.71s-3.08,21.32-9.25,30.72
			c-6.17,9.4-14.56,16.82-25.17,22.29c-10.61,5.46-22.17,8.19-34.69,8.19c-12.51,0-24.07-2.73-34.68-8.19
			c-10.62-5.46-19-12.89-25.17-22.29c-6.17-9.4-9.25-19.64-9.25-30.72s3.08-21.32,9.25-30.71c6.16-9.4,14.55-16.83,25.17-22.29
			c10.61-5.46,22.17-8.19,34.68-8.19C918.71,397.21,930.27,399.94,940.88,405.4z M875.06,412.74c-6.85,5.04-11.76,11.05-14.74,18.02
			c-2.98,6.97-4.86,14.48-5.66,22.53c-0.79,8.05,0.2,15.85,2.97,23.42c2.77,7.56,6.46,14.31,11.08,20.25
			c4.62,5.94,10.86,10.42,18.74,13.45c7.88,3.03,16.51,3.91,25.9,2.63c9.33-1.27,17.41-4.43,24.22-9.46
			c6.81-5.04,11.7-11.04,14.65-18.01c2.96-6.97,4.82-14.48,5.6-22.53c0.78-8.05-0.22-15.85-2.99-23.41
			c-2.77-7.56-6.45-14.31-11.06-20.25c-4.6-5.94-10.81-10.43-18.65-13.46c-7.83-3.04-16.41-3.92-25.73-2.65
			C890.02,404.54,881.91,407.7,875.06,412.74z"/>
	</g>
	<g>
		<path class="st2" d="M656.24,133.74H543.62v81.25h112.62V133.74z M550.07,208.54v-68.35h99.72v68.35H550.07z"/>
		<path class="st2" d="M698.61,156.02H666.3v58.97h32.31V156.02z M672.75,208.54v-46.07h19.41v46.07H672.75z"/>
		<path class="st2" d="M682.45,149.3c7.76,0,14.08-6.31,14.08-14.08c0-7.76-6.31-14.08-14.08-14.08c-7.76,0-14.08,6.31-14.08,14.08
			C668.38,142.99,674.69,149.3,682.45,149.3z M682.45,127.6c4.2,0,7.63,3.42,7.63,7.63s-3.42,7.63-7.63,7.63s-7.63-3.42-7.63-7.63
			S678.25,127.6,682.45,127.6z"/>
		<path class="st2" d="M708.9,156.02v58.97h32.31v-58.97H708.9z M715.35,208.54v-46.07h19.41v46.07H715.35z"/>
		<path class="st2" d="M725.05,149.3c7.76,0,14.08-6.31,14.08-14.08c0-7.76-6.31-14.08-14.08-14.08c-7.76,0-14.08,6.31-14.08,14.08
			C710.97,142.99,717.29,149.3,725.05,149.3z M725.05,127.6c4.2,0,7.63,3.42,7.63,7.63s-3.42,7.63-7.63,7.63s-7.63-3.42-7.63-7.63
			S720.84,127.6,725.05,127.6z"/>
		<path class="st2" d="M533.56,228.32v-3.23h-23.23v3.23c0,26.69-21.71,48.4-48.4,48.4h-3.23v23.23h3.23
			C501.42,299.96,533.56,267.82,533.56,228.32z M468.81,282.7c0.98-0.12,1.95-0.27,2.91-0.45c0.78-0.14,1.55-0.29,2.31-0.46
			c0.96-0.22,1.9-0.47,2.84-0.73c0.74-0.21,1.47-0.42,2.2-0.66c0.94-0.31,1.86-0.66,2.77-1.02c0.69-0.27,1.38-0.53,2.06-0.83
			c0.93-0.41,1.82-0.86,2.72-1.31c0.63-0.32,1.26-0.62,1.88-0.96c0.93-0.52,1.82-1.08,2.71-1.65c0.54-0.35,1.1-0.67,1.63-1.03
			c0.98-0.67,1.92-1.4,2.85-2.13c0.4-0.32,0.82-0.6,1.22-0.93c2.62-2.18,5.03-4.59,7.21-7.21c0.32-0.39,0.6-0.8,0.92-1.2
			c0.74-0.94,1.47-1.88,2.15-2.87c0.36-0.53,0.68-1.08,1.02-1.62c0.57-0.9,1.14-1.8,1.66-2.73c0.34-0.6,0.63-1.23,0.95-1.85
			c0.46-0.91,0.92-1.82,1.33-2.76c0.29-0.67,0.55-1.35,0.82-2.03c0.36-0.93,0.72-1.85,1.03-2.8c0.24-0.71,0.44-1.44,0.65-2.17
			c0.27-0.95,0.52-1.91,0.74-2.88c0.17-0.75,0.32-1.51,0.46-2.27c0.18-0.98,0.33-1.97,0.45-2.96c0.1-0.78,0.18-1.56,0.25-2.35
			c0.04-0.43,0.11-0.85,0.14-1.29h10.35c-1.63,33.38-28.5,60.25-61.88,61.88v-10.35c0.42-0.02,0.84-0.1,1.26-0.13
			C467.21,282.88,468.01,282.8,468.81,282.7z"/>
		<path class="st2" d="M500.05,228.32v-3.23H458.7v41.35h3.23C482.94,266.45,500.05,249.35,500.05,228.32z M465.15,259.84v-28.29
			h28.29C491.92,246.45,480.04,258.32,465.15,259.84z"/>
		<path class="st2" d="M698.31,300.43c-10.53-5.95-19.78-14.39-26.75-24.38c-9.72-13.96-14.86-30.46-14.86-47.73v-3.23H543.15v3.23
			c0,17.25-5.13,33.75-14.84,47.7l-0.02,0.03c-6.96,10-16.21,18.43-26.74,24.38c-12.04,6.81-25.74,10.42-39.63,10.44l-3.22,0v22.16
			h282.46v-22.16l-3.22,0C724.05,310.85,710.35,307.24,698.31,300.43z M545.35,255.77H654.5c2.09,6.59,4.9,12.94,8.49,18.9h-62.78
			h-10.96h-52.38C540.45,268.7,543.26,262.36,545.35,255.77z M650.31,231.55c0.21,6.05,1.03,11.99,2.4,17.77H547.15
			c1.37-5.78,2.19-11.72,2.4-17.77H650.31z M532.6,281.12h56.65h10.96h67.04c5.22,7.19,11.55,13.59,18.65,18.9h-85.69h-10.96h-75.29
			C521.06,294.71,527.38,288.31,532.6,281.12z M589.25,306.47h10.96h95.67c11.89,6.56,25.23,10.27,38.83,10.79v9.33H465.15v-9.33
			c13.6-0.52,26.94-4.23,38.83-10.79H589.25z"/>
		<path class="st2" d="M689.53,228.32v-3.23H666.3v3.23c0,39.5,32.14,71.64,71.64,71.64h3.23v-23.23h-3.23
			C711.24,276.73,689.53,255.01,689.53,228.32z M704.14,271.44c0.94,0.74,1.88,1.47,2.87,2.15c0.53,0.36,1.08,0.68,1.62,1.03
			c0.9,0.57,1.79,1.14,2.72,1.66c0.61,0.34,1.25,0.64,1.87,0.96c0.9,0.46,1.8,0.91,2.73,1.32c0.68,0.3,1.37,0.56,2.06,0.83
			c0.92,0.36,1.83,0.71,2.77,1.02c0.73,0.24,1.46,0.45,2.2,0.66c0.94,0.27,1.88,0.52,2.84,0.73c0.76,0.17,1.53,0.32,2.31,0.46
			c0.96,0.17,1.93,0.32,2.91,0.45c0.8,0.1,1.6,0.19,2.4,0.25c0.42,0.03,0.83,0.11,1.26,0.13v10.35
			c-33.38-1.63-60.25-28.5-61.88-61.88h10.35c0.02,0.43,0.1,0.84,0.13,1.26c0.07,0.8,0.15,1.6,0.25,2.4
			c0.12,0.98,0.27,1.96,0.45,2.92c0.14,0.77,0.29,1.54,0.46,2.29c0.22,0.96,0.47,1.91,0.74,2.86c0.21,0.73,0.42,1.46,0.65,2.18
			c0.31,0.95,0.66,1.87,1.02,2.79c0.27,0.68,0.53,1.37,0.82,2.04c0.41,0.94,0.87,1.85,1.33,2.75c0.31,0.62,0.61,1.24,0.95,1.85
			c0.52,0.94,1.1,1.84,1.67,2.75c0.34,0.53,0.66,1.08,1.01,1.6c0.68,0.99,1.42,1.94,2.16,2.89c0.31,0.39,0.59,0.8,0.9,1.18
			c2.18,2.62,4.59,5.04,7.21,7.21C703.33,270.85,703.74,271.13,704.14,271.44z"/>
		<path class="st2" d="M699.81,228.32c0,21.02,17.1,38.13,38.13,38.13h3.23V225.1h-41.35V228.32z M734.71,231.55v28.29
			c-14.9-1.51-26.77-13.39-28.29-28.29H734.71z"/>
		<path class="st2" d="M533.6,156.02h-32.31v58.97h32.31V156.02z M507.74,208.54v-46.07h19.41v46.07H507.74z"/>
		<path class="st2" d="M517.45,149.3c7.76,0,14.08-6.31,14.08-14.08c0-7.76-6.31-14.08-14.08-14.08s-14.08,6.31-14.08,14.08
			C503.37,142.99,509.69,149.3,517.45,149.3z M517.45,127.6c4.2,0,7.63,3.42,7.63,7.63s-3.42,7.63-7.63,7.63s-7.63-3.42-7.63-7.63
			S513.24,127.6,517.45,127.6z"/>
		<path class="st2" d="M491.01,156.02H458.7v58.97h32.31V156.02z M465.15,208.54v-46.07h19.41v46.07H465.15z"/>
		<path class="st2" d="M474.85,149.3c7.76,0,14.08-6.31,14.08-14.08c0-7.76-6.31-14.08-14.08-14.08s-14.08,6.31-14.08,14.08
			C460.77,142.99,467.09,149.3,474.85,149.3z M474.85,127.6c4.2,0,7.63,3.42,7.63,7.63s-3.42,7.63-7.63,7.63
			c-4.2,0-7.63-3.42-7.63-7.63S470.65,127.6,474.85,127.6z"/>
	</g>
</g>
</svg>
