<?xml version="1.0" encoding="utf-8"?>
<!-- Generator: Adobe Illustrator 24.0.2, SVG Export Plug-In . SVG Version: 6.00 Build 0)  -->
<svg version="1.1" id="Layer_1" xmlns="http://www.w3.org/2000/svg" xmlns:xlink="http://www.w3.org/1999/xlink" x="0px" y="0px"
	 viewBox="0 0 1200 720" style="enable-background:new 0 0 1200 720;" xml:space="preserve">
<style type="text/css">
	.st0{fill:#221F1F;}
	.st1{fill:#211E1F;}
	.st2{fill:#FFFFFF;}
</style>
<g>
	<g>
		<path class="st0" d="M264.47,443.94l-10.82-7.17c8.39,0,15.34,0,20.83,0.01c5.49,0.01,9.73,0.01,12.73,0.01l37.51,122.49H307.5
			l-24.38-79.6h-22.38l-24.36,71.27l15.51,8.33H224.7L264.47,443.94z M272.55,445.16l-9.92,29.03h18.81L272.55,445.16z"/>
		<path class="st0" d="M352.16,559.15h-16.44V445.24c0,0.09-0.86-0.56-2.58-1.95c-1.72-1.4-3.44-2.81-5.17-4.26
			c-1.73-1.44-2.59-2.16-2.58-2.16h27.51c5.54-0.23,11.09-0.25,16.67-0.05c5.58,0.18,10.93,0.44,16.07,0.78
			c5.14,0.34,9.91,1.06,14.34,2.16c4.42,1.1,8.25,2.47,11.48,4.1c3.23,1.63,5.73,3.83,7.5,6.59c1.77,2.76,2.57,5.97,2.4,9.63
			c-0.26,5.42-3.66,10.05-10.2,13.89c-6.55,3.84-16.6,6.1-30.17,6.77c5.92,0.5,11.08,1.94,15.5,4.33c4.42,2.39,7.85,5.33,10.28,8.83
			c2.44,3.5,4.53,7.41,6.26,11.75c1.74,4.33,2.96,8.71,3.66,13.12s1.45,8.72,2.24,12.92c0.79,4.2,1.53,7.92,2.23,11.17
			c0.7,3.25,1.83,5.86,3.4,7.84c1.57,1.98,3.56,2.96,5.97,2.96v5.49c-4.91-0.19-9.13-1.22-12.67-3.07
			c-3.54-1.85-6.33-4.27-8.36-7.26s-3.76-6.39-5.16-10.21c-1.4-3.82-2.61-7.84-3.62-12.05c-1.01-4.21-2.06-8.43-3.15-12.65
			c-1.09-4.22-2.54-8.27-4.34-12.14c-1.8-3.87-4-7.33-6.6-10.38c-2.6-3.05-6.11-5.56-10.53-7.52c-4.42-1.96-9.61-3.1-15.56-3.42
			v-0.75v-4.9c6.41,0.46,12.28,0.49,17.62,0.09s9.93-1.17,13.76-2.31c3.84-1.14,6.82-2.89,8.93-5.25c2.12-2.36,3.16-5.27,3.12-8.72
			c-0.04-4.24-2.27-7.85-6.69-10.83s-10.4-4.79-17.95-5.44c-7.55-0.65-16.37,0.32-26.44,2.9l0,113.91L352.16,559.15z"/>
		<path class="st0" d="M458.44,559.15H442V445.24c0,0.09-0.86-0.56-2.58-1.95c-1.72-1.4-3.44-2.81-5.17-4.26
			c-1.73-1.44-2.59-2.16-2.58-2.16h27.51c5.54-0.23,11.09-0.25,16.67-0.05c5.58,0.18,10.93,0.44,16.07,0.78
			c5.14,0.34,9.91,1.06,14.34,2.16c4.42,1.1,8.25,2.47,11.48,4.1c3.23,1.63,5.73,3.83,7.5,6.59c1.77,2.76,2.57,5.97,2.4,9.63
			c-0.26,5.42-3.66,10.05-10.2,13.89c-6.55,3.84-16.6,6.1-30.17,6.77c5.92,0.5,11.08,1.94,15.5,4.33c4.42,2.39,7.85,5.33,10.28,8.83
			c2.44,3.5,4.53,7.41,6.26,11.75c1.74,4.33,2.96,8.71,3.66,13.12c0.7,4.42,1.45,8.72,2.24,12.92c0.79,4.2,1.53,7.92,2.23,11.17
			c0.7,3.25,1.83,5.86,3.4,7.84c1.57,1.98,3.56,2.96,5.97,2.96v5.49c-4.91-0.19-9.13-1.22-12.67-3.07
			c-3.54-1.85-6.33-4.27-8.36-7.26s-3.76-6.39-5.16-10.21c-1.4-3.82-2.61-7.84-3.62-12.05c-1.01-4.21-2.06-8.43-3.15-12.65
			c-1.09-4.22-2.54-8.27-4.34-12.14c-1.8-3.87-4-7.33-6.6-10.38c-2.6-3.05-6.11-5.56-10.53-7.52c-4.42-1.96-9.61-3.1-15.56-3.42
			v-0.75v-4.9c6.41,0.46,12.28,0.49,17.62,0.09s9.93-1.17,13.76-2.31c3.84-1.14,6.82-2.89,8.93-5.25c2.12-2.36,3.16-5.27,3.12-8.72
			c-0.04-4.24-2.27-7.85-6.69-10.83s-10.4-4.79-17.95-5.44c-7.55-0.65-16.37,0.32-26.44,2.9l0,113.91L458.44,559.15z"/>
		<path class="st0" d="M545.71,443.2c-1.72-1.4-3.44-2.82-5.17-4.26c-1.73-1.44-2.59-2.17-2.58-2.17h84.23v27.81
			c-4.97-14.79-12.48-22.5-22.53-23.14H565.5v32.7h40.74v5.49H565.5v74.07c3.7-0.03,8.7-0.05,14.99-0.05
			c5.62,0,9.64-0.01,12.06-0.02c2.43-0.01,5.47-0.14,9.14-0.39c3.66-0.25,6.15-0.54,7.45-0.86c1.3-0.32,3.07-0.93,5.32-1.83
			c2.24-0.9,3.76-1.86,4.54-2.87c0.78-1.02,1.89-2.49,3.31-4.42c1.43-1.93,2.57-3.95,3.44-6.04c0.87-2.09,1.94-4.8,3.23-8.14v30.07
			h-80.69v-114C548.29,445.25,547.43,444.59,545.71,443.2z"/>
		<path class="st0" d="M736,466.94c-3.68-7.65-8.61-13.55-14.79-17.71c-6.18-4.16-12.6-6.44-19.26-6.83
			c-6.67-0.39-13.4,0.68-20.2,3.22c-6.8,2.54-12.81,6.23-18.01,11.06s-9.29,10.88-12.25,18.16c-2.97,7.28-4.08,14.99-3.34,23.13
			c0.63,6.91,2.41,13.53,5.33,19.85c2.93,6.32,6.84,12.01,11.73,17.07c4.89,5.06,11.06,9.07,18.5,12.03
			c7.44,2.96,15.59,4.37,24.45,4.25c3.68-0.05,7.23-0.22,10.64-0.5l0-76.5H736v77.55v0.48c-10.41,4.65-21.52,6.97-33.34,6.97
			c-13.01,0-25.04-2.73-36.07-8.19c-11.04-5.46-19.76-12.89-26.17-22.29c-6.41-9.4-9.62-19.63-9.63-30.71
			c-0.01-9.49,1.97-18.16,5.93-26.03c3.96-7.87,9.4-14.35,16.32-19.43c6.92-5.09,14.8-9.03,23.65-11.84
			c8.85-2.8,18.42-4.12,28.72-3.95c10.3,0.17,20.54,1.82,30.73,4.93L736,466.94z"/>
		<path class="st0" d="M744.16,436.77h27.57v117.02c2.78,0,6.61,0.01,11.48,0.04c7.3,0.04,12.42,0.06,15.36,0.06
			c2.94,0,6.45-0.31,10.53-0.93c4.08-0.62,6.77-1.27,8.07-1.97c1.31-0.7,3.22-2.17,5.75-4.42c2.53-2.25,4.51-4.52,5.94-6.83
			s3.57-5.83,6.42-10.55v25.17v4.93h-80.78V445.16L744.16,436.77z"/>
		<path class="st0" d="M940.88,444.96c10.61,5.46,19,12.89,25.17,22.29s9.25,19.63,9.25,30.71c0,11.08-3.08,21.32-9.25,30.72
			c-6.17,9.4-14.56,16.82-25.17,22.29c-10.61,5.46-22.17,8.19-34.69,8.19c-12.51,0-24.07-2.73-34.68-8.19
			c-10.62-5.46-19-12.89-25.17-22.29c-6.17-9.4-9.25-19.64-9.25-30.72c0-11.08,3.08-21.32,9.25-30.71
			c6.16-9.4,14.55-16.83,25.17-22.29c10.61-5.46,22.17-8.19,34.68-8.19C918.71,436.77,930.27,439.5,940.88,444.96z M875.06,452.3
			c-6.85,5.04-11.76,11.05-14.74,18.02c-2.98,6.97-4.86,14.48-5.66,22.53c-0.79,8.05,0.2,15.85,2.97,23.42
			c2.77,7.56,6.46,14.31,11.08,20.25c4.62,5.94,10.86,10.42,18.74,13.45c7.88,3.03,16.51,3.91,25.9,2.63
			c9.33-1.27,17.41-4.43,24.22-9.46c6.81-5.04,11.7-11.04,14.65-18.01c2.96-6.97,4.82-14.48,5.6-22.53
			c0.78-8.05-0.22-15.85-2.99-23.41c-2.77-7.56-6.45-14.31-11.06-20.25c-4.6-5.94-10.81-10.43-18.65-13.46
			c-7.83-3.04-16.41-3.92-25.73-2.65C890.02,444.1,881.91,447.25,875.06,452.3z"/>
	</g>
	<g>
		<path class="st1" d="M656.24,173.3H543.62v81.25h112.62V173.3z M550.07,248.1v-68.35h99.72v68.35H550.07z"/>
		<path class="st1" d="M698.61,195.58H666.3v58.97h32.31V195.58z M672.75,248.1v-46.07h19.41v46.07H672.75z"/>
		<path class="st1" d="M682.45,188.86c7.76,0,14.08-6.31,14.08-14.08c0-7.76-6.31-14.08-14.08-14.08c-7.76,0-14.08,6.31-14.08,14.08
			C668.38,182.55,674.69,188.86,682.45,188.86z M682.45,167.16c4.2,0,7.63,3.42,7.63,7.63c0,4.2-3.42,7.63-7.63,7.63
			s-7.63-3.42-7.63-7.63C674.83,170.58,678.25,167.16,682.45,167.16z"/>
		<path class="st1" d="M708.9,195.58v58.97h32.31v-58.97H708.9z M715.35,248.1v-46.07h19.41v46.07H715.35z"/>
		<path class="st1" d="M725.05,188.86c7.76,0,14.08-6.31,14.08-14.08c0-7.76-6.31-14.08-14.08-14.08c-7.76,0-14.08,6.31-14.08,14.08
			C710.97,182.55,717.29,188.86,725.05,188.86z M725.05,167.16c4.2,0,7.63,3.42,7.63,7.63c0,4.2-3.42,7.63-7.63,7.63
			s-7.63-3.42-7.63-7.63C717.42,170.58,720.84,167.16,725.05,167.16z"/>
		<path class="st1" d="M533.56,267.88v-3.23h-23.23v3.23c0,26.69-21.71,48.4-48.4,48.4h-3.23v23.23h3.23
			C501.42,339.52,533.56,307.38,533.56,267.88z M468.81,322.25c0.98-0.12,1.95-0.27,2.91-0.45c0.78-0.14,1.55-0.29,2.31-0.46
			c0.96-0.22,1.9-0.47,2.84-0.73c0.74-0.21,1.47-0.42,2.2-0.66c0.94-0.31,1.86-0.66,2.77-1.02c0.69-0.27,1.38-0.53,2.06-0.83
			c0.93-0.41,1.82-0.86,2.72-1.31c0.63-0.32,1.26-0.62,1.88-0.96c0.93-0.52,1.82-1.08,2.71-1.65c0.54-0.35,1.1-0.67,1.63-1.03
			c0.98-0.67,1.92-1.4,2.85-2.13c0.4-0.32,0.82-0.6,1.22-0.93c2.62-2.18,5.03-4.59,7.21-7.21c0.32-0.39,0.6-0.8,0.92-1.2
			c0.74-0.94,1.47-1.88,2.15-2.87c0.36-0.53,0.68-1.08,1.02-1.62c0.57-0.9,1.14-1.8,1.66-2.73c0.34-0.6,0.63-1.23,0.95-1.85
			c0.46-0.91,0.92-1.82,1.33-2.76c0.29-0.67,0.55-1.35,0.82-2.03c0.36-0.93,0.72-1.85,1.03-2.8c0.24-0.71,0.44-1.44,0.65-2.17
			c0.27-0.95,0.52-1.91,0.74-2.88c0.17-0.75,0.32-1.51,0.46-2.27c0.18-0.98,0.33-1.97,0.45-2.96c0.1-0.78,0.18-1.56,0.25-2.35
			c0.04-0.43,0.11-0.85,0.14-1.29h10.35c-1.63,33.38-28.5,60.25-61.88,61.88v-10.35c0.42-0.02,0.84-0.1,1.26-0.13
			C467.21,322.44,468.01,322.35,468.81,322.25z"/>
		<path class="st1" d="M500.05,267.88v-3.23H458.7v41.35h3.23C482.94,306.01,500.05,288.9,500.05,267.88z M465.15,299.4v-28.29
			h28.29C491.92,286,480.04,297.88,465.15,299.4z"/>
		<path class="st1" d="M698.31,339.99c-10.53-5.95-19.78-14.39-26.75-24.38c-9.72-13.96-14.86-30.46-14.86-47.73v-3.23H543.15v3.23
			c0,17.25-5.13,33.75-14.84,47.7l-0.02,0.03c-6.96,10-16.21,18.43-26.74,24.38c-12.04,6.81-25.74,10.42-39.63,10.44l-3.22,0v22.16
			h282.46v-22.16l-3.22,0C724.05,350.41,710.35,346.8,698.31,339.99z M545.35,295.33H654.5c2.09,6.59,4.9,12.94,8.49,18.9h-62.78
			h-10.96h-52.38C540.45,308.26,543.26,301.92,545.35,295.33z M650.31,271.11c0.21,6.05,1.03,11.99,2.4,17.77H547.15
			c1.37-5.78,2.19-11.72,2.4-17.77H650.31z M532.6,320.68h56.65h10.96h67.04c5.22,7.19,11.55,13.59,18.65,18.9h-85.69h-10.96h-75.29
			C521.06,334.27,527.38,327.87,532.6,320.68z M589.25,346.02h10.96h95.67c11.89,6.56,25.23,10.27,38.83,10.79v9.33H465.15v-9.33
			c13.6-0.52,26.94-4.23,38.83-10.79H589.25z"/>
		<path class="st1" d="M689.53,267.88v-3.23H666.3v3.23c0,39.5,32.14,71.64,71.64,71.64h3.23v-23.23h-3.23
			C711.24,316.28,689.53,294.57,689.53,267.88z M704.14,311c0.94,0.74,1.88,1.47,2.87,2.15c0.53,0.36,1.08,0.68,1.62,1.03
			c0.9,0.57,1.79,1.14,2.72,1.66c0.61,0.34,1.25,0.64,1.87,0.96c0.9,0.46,1.8,0.91,2.73,1.32c0.68,0.3,1.37,0.56,2.06,0.83
			c0.92,0.36,1.83,0.71,2.77,1.02c0.73,0.24,1.46,0.45,2.2,0.66c0.94,0.27,1.88,0.52,2.84,0.73c0.76,0.17,1.53,0.32,2.31,0.46
			c0.96,0.17,1.93,0.32,2.91,0.45c0.8,0.1,1.6,0.19,2.4,0.25c0.42,0.03,0.83,0.11,1.26,0.13v10.35
			c-33.38-1.63-60.25-28.5-61.88-61.88h10.35c0.02,0.43,0.1,0.84,0.13,1.26c0.07,0.8,0.15,1.6,0.25,2.4
			c0.12,0.98,0.27,1.96,0.45,2.92c0.14,0.77,0.29,1.54,0.46,2.29c0.22,0.96,0.47,1.91,0.74,2.86c0.21,0.73,0.42,1.46,0.65,2.18
			c0.31,0.95,0.66,1.87,1.02,2.79c0.27,0.68,0.53,1.37,0.82,2.04c0.41,0.94,0.87,1.85,1.33,2.75c0.31,0.62,0.61,1.24,0.95,1.85
			c0.52,0.94,1.1,1.84,1.67,2.75c0.34,0.53,0.66,1.08,1.01,1.6c0.68,0.99,1.42,1.94,2.16,2.89c0.31,0.39,0.59,0.8,0.9,1.18
			c2.18,2.62,4.59,5.04,7.21,7.21C703.33,310.4,703.74,310.69,704.14,311z"/>
		<path class="st1" d="M699.81,267.88c0,21.02,17.1,38.13,38.13,38.13h3.23v-41.35h-41.35V267.88z M734.71,271.11v28.29
			c-14.9-1.51-26.77-13.39-28.29-28.29H734.71z"/>
		<path class="st1" d="M533.6,195.58h-32.31v58.97h32.31V195.58z M507.74,248.1v-46.07h19.41v46.07H507.74z"/>
		<path class="st1" d="M517.45,188.86c7.76,0,14.08-6.31,14.08-14.08c0-7.76-6.31-14.08-14.08-14.08s-14.08,6.31-14.08,14.08
			C503.37,182.55,509.69,188.86,517.45,188.86z M517.45,167.16c4.2,0,7.63,3.42,7.63,7.63c0,4.2-3.42,7.63-7.63,7.63
			s-7.63-3.42-7.63-7.63C509.82,170.58,513.24,167.16,517.45,167.16z"/>
		<path class="st1" d="M491.01,195.58H458.7v58.97h32.31V195.58z M465.15,248.1v-46.07h19.41v46.07H465.15z"/>
		<path class="st1" d="M474.85,188.86c7.76,0,14.08-6.31,14.08-14.08c0-7.76-6.31-14.08-14.08-14.08s-14.08,6.31-14.08,14.08
			C460.77,182.55,467.09,188.86,474.85,188.86z M474.85,167.16c4.2,0,7.63,3.42,7.63,7.63c0,4.2-3.42,7.63-7.63,7.63
			c-4.2,0-7.63-3.42-7.63-7.63C467.22,170.58,470.65,167.16,474.85,167.16z"/>
	</g>
</g>
</svg>
