<?xml version="1.0" encoding="utf-8"?>
<!-- Generator: Adobe Illustrator 24.0.2, SVG Export Plug-In . SVG Version: 6.00 Build 0)  -->
<svg version="1.1" id="Layer_1" xmlns="http://www.w3.org/2000/svg" xmlns:xlink="http://www.w3.org/1999/xlink" x="0px" y="0px"
	 viewBox="0 0 1080 1080" style="enable-background:new 0 0 1080 1080;" xml:space="preserve">
<style type="text/css">
	.st0{display:none;fill:none;stroke:#000000;stroke-miterlimit:10;}
	.st1{fill:#006646;}
	.st2{fill:#FFFFFF;}
	.st3{fill:url(#SVGID_1_);}
	.st4{fill:url(#SVGID_2_);}
	.st5{fill:url(#SVGID_3_);}
	.st6{fill:url(#SVGID_4_);}
	.st7{fill:url(#SVGID_5_);}
	.st8{fill:url(#SVGID_6_);}
	.st9{fill:url(#SVGID_7_);}
	.st10{fill:url(#SVGID_8_);}
	.st11{fill:url(#SVGID_9_);}
	.st12{fill:url(#SVGID_10_);}
	.st13{fill:url(#SVGID_11_);}
	.st14{fill:url(#SVGID_12_);}
	.st15{fill:url(#SVGID_13_);}
	.st16{fill:url(#SVGID_14_);}
	.st17{fill:url(#SVGID_15_);}
	.st18{fill:url(#SVGID_16_);}
	.st19{fill:url(#SVGID_17_);}
	.st20{fill:url(#SVGID_18_);}
	.st21{fill:url(#SVGID_19_);}
	.st22{fill:url(#SVGID_20_);}
	.st23{fill:url(#SVGID_21_);}
	.st24{fill:url(#SVGID_22_);}
	.st25{fill:url(#SVGID_23_);}
	.st26{fill:url(#SVGID_24_);}
	.st27{fill:url(#SVGID_25_);}
	.st28{fill:url(#SVGID_26_);}
	.st29{fill:url(#SVGID_27_);}
	.st30{fill:url(#SVGID_28_);}
	.st31{fill:url(#SVGID_29_);}
	.st32{fill:url(#SVGID_30_);}
	.st33{fill:url(#SVGID_31_);}
	.st34{fill:url(#SVGID_32_);}
	.st35{fill:url(#SVGID_33_);}
	.st36{fill:url(#SVGID_34_);}
	.st37{fill:url(#SVGID_35_);}
	.st38{fill:url(#SVGID_36_);}
	.st39{fill:url(#SVGID_37_);}
	.st40{fill:url(#SVGID_38_);}
	.st41{fill:url(#SVGID_39_);}
	.st42{fill:url(#SVGID_40_);}
	.st43{fill:url(#SVGID_41_);}
	.st44{fill:url(#SVGID_42_);}
	.st45{fill:url(#SVGID_43_);}
	.st46{fill:url(#SVGID_44_);}
	.st47{fill:url(#SVGID_45_);}
	.st48{fill:url(#SVGID_46_);}
	.st49{fill:url(#SVGID_47_);}
	.st50{fill:url(#SVGID_48_);}
	.st51{fill:url(#SVGID_49_);}
	.st52{fill:url(#SVGID_50_);}
	.st53{fill:url(#SVGID_51_);}
	.st54{fill:url(#SVGID_52_);}
	.st55{fill:url(#SVGID_53_);}
	.st56{fill:url(#SVGID_54_);}
	.st57{fill:url(#SVGID_55_);}
	.st58{fill:url(#SVGID_56_);}
	.st59{fill:#FEAEBB;}
	.st60{fill:#FF8D6B;}
	.st61{fill:#009845;}
	.st62{fill:#FFB71B;}
</style>
<circle class="st0" cx="-1915.16" cy="540" r="540"/>
<rect x="-2455.16" y="0" class="st1" width="1080" height="1080"/>
<rect class="st1" width="1080" height="1080"/>
<g>
	<g>
		<path class="st2" d="M-2126.24,740.63c5.76,0,10.55,1.82,14.38,5.47c3.83,3.65,5.74,8.21,5.74,13.71c0,5.49-1.93,10.04-5.8,13.64
			c-3.87,3.6-8.74,5.4-14.62,5.4c-5.62,0-10.29-1.8-14.03-5.4c-3.74-3.6-5.61-8.11-5.61-13.54c0-5.57,1.88-10.17,5.65-13.82
			C-2136.76,742.45-2132,740.63-2126.24,740.63z M-2126.03,745.7c-4.26,0-7.77,1.33-10.51,4c-2.74,2.67-4.12,6.07-4.12,10.22
			c0,4.02,1.38,7.36,4.13,10.03c2.75,2.67,6.2,4,10.34,4c4.16,0,7.63-1.36,10.41-4.08c2.78-2.72,4.17-6.11,4.17-10.16
			c0-3.95-1.39-7.27-4.17-9.96C-2118.56,747.04-2121.98,745.7-2126.03,745.7z"/>
		<path class="st2" d="M-2093.92,778.42v-37.31h11.82c3.56,0,6.39,0.96,8.51,2.88c2.12,1.92,3.17,4.5,3.17,7.73
			c0,2.17-0.54,4.09-1.63,5.76c-1.08,1.67-2.57,2.89-4.45,3.64c-1.88,0.76-4.59,1.13-8.11,1.13h-3.95v16.16H-2093.92z
			 M-2083.03,745.86h-5.52v11.66h5.84c2.17,0,3.84-0.51,5.01-1.53c1.17-1.02,1.76-2.49,1.76-4.39
			C-2075.94,747.77-2078.3,745.86-2083.03,745.86z"/>
		<path class="st2" d="M-2033.96,741.16h5.36v21.15c0,2.86-0.21,5.02-0.63,6.48s-0.93,2.67-1.55,3.64c-0.61,0.97-1.36,1.84-2.25,2.6
			c-2.95,2.54-6.81,3.81-11.58,3.81c-4.85,0-8.75-1.26-11.68-3.79c-0.89-0.78-1.64-1.66-2.25-2.63c-0.62-0.97-1.12-2.16-1.52-3.56
			c-0.4-1.4-0.6-3.61-0.6-6.61v-21.1h5.36v21.15c0,3.5,0.4,5.94,1.2,7.31s2.02,2.47,3.65,3.29c1.64,0.83,3.57,1.24,5.79,1.24
			c3.17,0,5.74-0.83,7.73-2.48c1.05-0.89,1.8-1.94,2.27-3.15c0.46-1.21,0.69-3.28,0.69-6.21V741.16z"/>
		<path class="st2" d="M-2005.62,762.81l-4.05-2.46c-2.54-1.55-4.35-3.08-5.43-4.58c-1.08-1.5-1.61-3.23-1.61-5.19
			c0-2.93,1.02-5.32,3.05-7.15c2.03-1.83,4.68-2.75,7.93-2.75c3.11,0,5.97,0.87,8.56,2.62v6.05c-2.68-2.58-5.57-3.87-8.67-3.87
			c-1.74,0-3.17,0.4-4.29,1.21c-1.12,0.81-1.68,1.84-1.68,3.09c0,1.12,0.41,2.16,1.24,3.14c0.82,0.97,2.15,2,3.98,3.07l4.07,2.41
			c4.54,2.72,6.82,6.17,6.82,10.37c0,2.99-1,5.41-3,7.28c-2,1.87-4.6,2.8-7.8,2.8c-3.68,0-7.03-1.13-10.06-3.39v-6.77
			c2.88,3.65,6.21,5.47,10,5.47c1.67,0,3.06-0.47,4.17-1.4c1.11-0.93,1.67-2.09,1.67-3.49
			C-2000.71,767-2002.34,764.85-2005.62,762.81z"/>
		<path class="st2" d="M-1963.72,741.16h5.33v32.41h16.78v4.85h-22.11V741.16z"/>
		<path class="st2" d="M-1931.43,741.16h5.33v37.26h-5.33V741.16z"/>
		<path class="st2" d="M-1911.82,741.16h19.87v4.75h-14.54v10.4h14.54v4.75h-14.54v17.36h-5.33V741.16z"/>
		<path class="st2" d="M-1880.41,741.16h21.12v4.75h-15.79v11.36h15.26v4.77h-15.26v11.58h16.3v4.75h-21.63V741.16z"/>
		<path class="st2" d="M-1837.94,762.81l-4.05-2.46c-2.54-1.55-4.35-3.08-5.43-4.58c-1.08-1.5-1.61-3.23-1.61-5.19
			c0-2.93,1.02-5.32,3.05-7.15c2.03-1.83,4.68-2.75,7.93-2.75c3.11,0,5.97,0.87,8.56,2.62v6.05c-2.68-2.58-5.57-3.87-8.67-3.87
			c-1.74,0-3.17,0.4-4.29,1.21s-1.68,1.84-1.68,3.09c0,1.12,0.41,2.16,1.24,3.14s2.15,2,3.98,3.07l4.07,2.41
			c4.54,2.72,6.82,6.17,6.82,10.37c0,2.99-1,5.41-3,7.28c-2,1.87-4.6,2.8-7.8,2.8c-3.68,0-7.03-1.13-10.06-3.39v-6.77
			c2.88,3.65,6.21,5.47,10,5.47c1.67,0,3.06-0.47,4.17-1.4c1.11-0.93,1.67-2.09,1.67-3.49
			C-1833.03,767-1834.67,764.85-1837.94,762.81z"/>
		<path class="st2" d="M-1819.58,741.11h31.12v4.75h-12.99v32.57h-5.36v-32.57h-12.77V741.11z"/>
		<path class="st2" d="M-1753.64,741.16h6.48l-13.76,17.55v19.71h-5.47v-19.71l-13.76-17.55h6.44l9.97,12.85L-1753.64,741.16z"/>
		<path class="st2" d="M-1737.27,741.16h5.33v32.41h16.78v4.85h-22.11V741.16z"/>
		<path class="st2" d="M-1705,741.16h21.12v4.75h-15.79v11.36h15.26v4.77h-15.26v11.58h16.3v4.75H-1705V741.16z"/>
	</g>
	<g>
		<path class="st2" d="M-2250.7,584.39l-10.82-7.17c8.39,0,15.34,0,20.83,0.01c5.49,0.01,9.73,0.01,12.74,0.01l37.51,122.49h-17.23
			l-24.38-79.6h-22.38l-24.36,71.27l15.51,8.33h-27.19L-2250.7,584.39z M-2242.61,585.61l-9.92,29.03h18.81L-2242.61,585.61z"/>
		<path class="st2" d="M-2163,699.59h-16.44V585.68c0,0.09-0.86-0.56-2.58-1.95c-1.72-1.4-3.44-2.81-5.17-4.26
			c-1.73-1.44-2.59-2.16-2.58-2.16h27.51c5.54-0.23,11.09-0.25,16.67-0.05c5.58,0.18,10.93,0.44,16.07,0.78
			c5.14,0.34,9.92,1.06,14.34,2.16c4.42,1.1,8.25,2.47,11.48,4.1c3.23,1.63,5.73,3.83,7.5,6.59c1.77,2.76,2.57,5.97,2.4,9.63
			c-0.26,5.42-3.66,10.05-10.2,13.89c-6.55,3.84-16.6,6.1-30.17,6.77c5.92,0.5,11.08,1.94,15.5,4.33c4.42,2.39,7.85,5.33,10.28,8.83
			c2.44,3.5,4.53,7.41,6.26,11.75c1.74,4.33,2.96,8.71,3.66,13.12s1.45,8.72,2.24,12.92c0.79,4.2,1.53,7.92,2.23,11.17
			c0.7,3.25,1.83,5.86,3.4,7.84c1.57,1.98,3.56,2.96,5.97,2.96v5.49c-4.91-0.19-9.13-1.22-12.67-3.07
			c-3.54-1.85-6.33-4.27-8.36-7.26s-3.76-6.39-5.16-10.21c-1.4-3.82-2.61-7.84-3.62-12.05c-1.01-4.21-2.06-8.43-3.15-12.65
			c-1.09-4.22-2.54-8.27-4.34-12.14c-1.8-3.87-4-7.33-6.6-10.38c-2.6-3.05-6.11-5.56-10.53-7.52c-4.42-1.96-9.61-3.1-15.56-3.42
			v-0.75v-4.9c6.41,0.46,12.28,0.49,17.62,0.09c5.34-0.4,9.93-1.17,13.76-2.31c3.84-1.14,6.82-2.89,8.93-5.25
			c2.12-2.36,3.16-5.27,3.12-8.72c-0.04-4.24-2.27-7.85-6.69-10.83c-4.42-2.98-10.4-4.79-17.95-5.44
			c-7.55-0.65-16.37,0.32-26.44,2.9l0,113.91L-2163,699.59z"/>
		<path class="st2" d="M-2056.72,699.59h-16.44V585.68c0,0.09-0.86-0.56-2.58-1.95c-1.72-1.4-3.44-2.81-5.17-4.26
			c-1.73-1.44-2.59-2.16-2.58-2.16h27.51c5.54-0.23,11.09-0.25,16.67-0.05c5.58,0.18,10.93,0.44,16.07,0.78
			c5.14,0.34,9.91,1.06,14.34,2.16c4.42,1.1,8.25,2.47,11.48,4.1c3.23,1.63,5.73,3.83,7.5,6.59c1.77,2.76,2.57,5.97,2.4,9.63
			c-0.26,5.42-3.66,10.05-10.2,13.89c-6.55,3.84-16.6,6.1-30.17,6.77c5.92,0.5,11.08,1.94,15.5,4.33c4.42,2.39,7.85,5.33,10.28,8.83
			c2.44,3.5,4.53,7.41,6.26,11.75c1.74,4.33,2.96,8.71,3.66,13.12c0.7,4.42,1.45,8.72,2.24,12.92c0.79,4.2,1.53,7.92,2.23,11.17
			c0.7,3.25,1.83,5.86,3.4,7.84c1.57,1.98,3.56,2.96,5.97,2.96v5.49c-4.91-0.19-9.13-1.22-12.67-3.07
			c-3.54-1.85-6.33-4.27-8.36-7.26c-2.03-2.98-3.76-6.39-5.16-10.21c-1.4-3.82-2.61-7.84-3.62-12.05
			c-1.01-4.21-2.06-8.43-3.15-12.65c-1.09-4.22-2.54-8.27-4.34-12.14c-1.8-3.87-4-7.33-6.6-10.38c-2.6-3.05-6.11-5.56-10.53-7.52
			c-4.42-1.96-9.61-3.1-15.56-3.42v-0.75v-4.9c6.41,0.46,12.28,0.49,17.62,0.09c5.34-0.4,9.93-1.17,13.76-2.31
			c3.84-1.14,6.82-2.89,8.93-5.25c2.12-2.36,3.16-5.27,3.12-8.72c-0.04-4.24-2.27-7.85-6.69-10.83c-4.42-2.98-10.4-4.79-17.95-5.44
			c-7.55-0.65-16.37,0.32-26.44,2.9l0,113.91L-2056.72,699.59z"/>
		<path class="st2" d="M-1969.45,583.64c-1.72-1.4-3.44-2.82-5.17-4.26c-1.73-1.44-2.59-2.17-2.58-2.17h84.23v27.81
			c-4.97-14.79-12.48-22.5-22.53-23.14h-34.16v32.7h40.74v5.49h-40.74v74.07c3.7-0.03,8.7-0.05,14.99-0.05
			c5.62,0,9.64-0.01,12.06-0.02c2.43-0.01,5.47-0.14,9.14-0.39c3.66-0.25,6.15-0.54,7.45-0.86c1.3-0.32,3.07-0.93,5.32-1.83
			c2.24-0.9,3.76-1.86,4.54-2.87c0.78-1.02,1.89-2.49,3.31-4.42c1.43-1.93,2.57-3.95,3.44-6.04c0.87-2.09,1.94-4.8,3.23-8.14v30.07
			h-80.69v-114C-1966.87,585.69-1967.73,585.04-1969.45,583.64z"/>
		<path class="st2" d="M-1779.16,607.38c-3.68-7.65-8.61-13.55-14.79-17.71c-6.18-4.16-12.6-6.44-19.26-6.83
			c-6.67-0.39-13.4,0.68-20.2,3.22c-6.8,2.54-12.81,6.23-18.01,11.06s-9.29,10.88-12.25,18.16c-2.97,7.28-4.08,14.99-3.34,23.13
			c0.63,6.91,2.41,13.53,5.33,19.85c2.93,6.32,6.84,12.01,11.73,17.07c4.89,5.06,11.06,9.07,18.5,12.03
			c7.44,2.96,15.59,4.37,24.45,4.25c3.68-0.05,7.23-0.22,10.64-0.5l0-76.5h17.21v77.55v0.48c-10.41,4.65-21.52,6.97-33.34,6.97
			c-13.01,0-25.04-2.73-36.07-8.19c-11.04-5.46-19.76-12.89-26.17-22.29c-6.41-9.4-9.62-19.63-9.63-30.71
			c-0.01-9.49,1.97-18.16,5.93-26.03c3.96-7.87,9.4-14.35,16.32-19.43c6.92-5.09,14.8-9.03,23.65-11.84
			c8.85-2.8,18.42-4.12,28.72-3.95c10.3,0.17,20.54,1.82,30.73,4.93L-1779.16,607.38z"/>
		<path class="st2" d="M-1771,577.21h27.57v117.02c2.78,0,6.61,0.01,11.48,0.04c7.3,0.04,12.42,0.06,15.36,0.06
			s6.45-0.31,10.53-0.93c4.08-0.62,6.77-1.27,8.07-1.97c1.31-0.7,3.22-2.17,5.75-4.42c2.53-2.25,4.51-4.52,5.94-6.83
			c1.43-2.31,3.57-5.83,6.42-10.55v25.17v4.93h-80.78V585.6L-1771,577.21z"/>
		<path class="st2" d="M-1574.28,585.4c10.61,5.46,19,12.89,25.17,22.29c6.17,9.4,9.25,19.63,9.25,30.71s-3.08,21.32-9.25,30.72
			c-6.17,9.4-14.56,16.82-25.17,22.29c-10.61,5.46-22.17,8.19-34.69,8.19c-12.51,0-24.07-2.73-34.68-8.19
			c-10.62-5.46-19-12.89-25.17-22.29c-6.17-9.4-9.25-19.64-9.25-30.72s3.08-21.32,9.25-30.71c6.16-9.4,14.55-16.83,25.17-22.29
			c10.61-5.46,22.17-8.19,34.68-8.19C-1596.45,577.21-1584.89,579.94-1574.28,585.4z M-1640.1,592.74
			c-6.85,5.04-11.76,11.05-14.74,18.02c-2.98,6.97-4.86,14.48-5.66,22.53c-0.79,8.05,0.2,15.85,2.97,23.42
			c2.77,7.56,6.46,14.31,11.08,20.25c4.62,5.94,10.86,10.42,18.74,13.45c7.88,3.03,16.51,3.91,25.9,2.63
			c9.33-1.27,17.41-4.43,24.22-9.46c6.81-5.04,11.7-11.04,14.65-18.01c2.96-6.97,4.82-14.48,5.6-22.53
			c0.78-8.05-0.22-15.85-2.99-23.41c-2.77-7.56-6.45-14.31-11.06-20.25c-4.6-5.94-10.81-10.43-18.65-13.46
			c-7.83-3.04-16.41-3.92-25.73-2.65C-1625.15,584.54-1633.26,587.7-1640.1,592.74z"/>
	</g>
	<g>
		<linearGradient id="SVGID_1_" gradientUnits="userSpaceOnUse" x1="-2021.5018" y1="428.7756" x2="-1897.6669" y2="342.0654">
			<stop  offset="0.0629" style="stop-color:#FFB71B"/>
			<stop  offset="0.3007" style="stop-color:#FFFFFF"/>
			<stop  offset="1" style="stop-color:#FFB71B"/>
		</linearGradient>
		<path class="st3" d="M-1858.92,313.74h-112.62v81.25h112.62V313.74z M-1965.09,388.54v-68.35h99.72v68.35H-1965.09z"/>
		<linearGradient id="SVGID_2_" gradientUnits="userSpaceOnUse" x1="-1987.2532" y1="473.7202" x2="-1864.3259" y2="387.6456">
			<stop  offset="0.0629" style="stop-color:#FFB71B"/>
			<stop  offset="0.3007" style="stop-color:#FFFFFF"/>
			<stop  offset="1" style="stop-color:#FFB71B"/>
		</linearGradient>
		<path class="st4" d="M-1816.55,336.02h-32.31v58.97h32.31V336.02z M-1842.41,388.54v-46.07h19.41v46.07H-1842.41z"/>
		<linearGradient id="SVGID_3_" gradientUnits="userSpaceOnUse" x1="-2012.5542" y1="441.1563" x2="-1888.7042" y2="354.4356">
			<stop  offset="0.0629" style="stop-color:#FFB71B"/>
			<stop  offset="0.3007" style="stop-color:#FFFFFF"/>
			<stop  offset="1" style="stop-color:#FFB71B"/>
		</linearGradient>
		<path class="st5" d="M-1832.71,329.3c7.76,0,14.08-6.31,14.08-14.08c0-7.76-6.31-14.08-14.08-14.08
			c-7.76,0-14.08,6.31-14.08,14.08C-1846.79,322.99-1840.47,329.3-1832.71,329.3z M-1832.71,307.6c4.2,0,7.63,3.42,7.63,7.63
			c0,4.2-3.42,7.63-7.63,7.63c-4.2,0-7.63-3.42-7.63-7.63C-1840.34,311.02-1836.91,307.6-1832.71,307.6z"/>
		<linearGradient id="SVGID_4_" gradientUnits="userSpaceOnUse" x1="-1972.7181" y1="493.3683" x2="-1849.7909" y2="407.2937">
			<stop  offset="0.0629" style="stop-color:#FFB71B"/>
			<stop  offset="0.3007" style="stop-color:#FFFFFF"/>
			<stop  offset="1" style="stop-color:#FFB71B"/>
		</linearGradient>
		<path class="st6" d="M-1806.27,336.02v58.97h32.31v-58.97H-1806.27z M-1799.82,388.54v-46.07h19.41v46.07H-1799.82z"/>
		<linearGradient id="SVGID_5_" gradientUnits="userSpaceOnUse" x1="-1998.2295" y1="460.9519" x2="-1874.3796" y2="374.2314">
			<stop  offset="0.0629" style="stop-color:#FFB71B"/>
			<stop  offset="0.3007" style="stop-color:#FFFFFF"/>
			<stop  offset="1" style="stop-color:#FFB71B"/>
		</linearGradient>
		<path class="st7" d="M-1790.11,329.3c7.76,0,14.08-6.31,14.08-14.08c0-7.76-6.31-14.08-14.08-14.08
			c-7.76,0-14.08,6.31-14.08,14.08C-1804.19,322.99-1797.87,329.3-1790.11,329.3z M-1790.11,307.6c4.2,0,7.63,3.42,7.63,7.63
			c0,4.2-3.42,7.63-7.63,7.63c-4.2,0-7.62-3.42-7.62-7.63C-1797.74,311.02-1794.32,307.6-1790.11,307.6z"/>
		<linearGradient id="SVGID_6_" gradientUnits="userSpaceOnUse" x1="-2013.6885" y1="439.6716" x2="-1890.1619" y2="353.1774">
			<stop  offset="0.0629" style="stop-color:#FFB71B"/>
			<stop  offset="0.3007" style="stop-color:#FFFFFF"/>
			<stop  offset="1" style="stop-color:#FFB71B"/>
		</linearGradient>
		<path class="st8" d="M-1981.61,408.32v-3.23h-23.23v3.23c0,26.69-21.71,48.4-48.4,48.4h-3.23v23.23h3.23
			C-2013.74,479.96-1981.61,447.82-1981.61,408.32z M-2046.35,462.7c0.98-0.12,1.95-0.27,2.91-0.45c0.78-0.14,1.55-0.29,2.31-0.46
			c0.96-0.22,1.9-0.47,2.84-0.73c0.74-0.21,1.47-0.42,2.2-0.66c0.94-0.31,1.86-0.66,2.77-1.02c0.69-0.27,1.38-0.53,2.06-0.83
			c0.93-0.41,1.82-0.86,2.72-1.31c0.63-0.32,1.26-0.62,1.88-0.96c0.93-0.52,1.82-1.08,2.71-1.65c0.54-0.35,1.1-0.67,1.63-1.03
			c0.98-0.67,1.92-1.4,2.85-2.13c0.4-0.32,0.82-0.6,1.22-0.93c2.62-2.18,5.03-4.59,7.21-7.21c0.32-0.39,0.6-0.8,0.92-1.2
			c0.74-0.94,1.47-1.88,2.15-2.87c0.36-0.53,0.68-1.08,1.02-1.62c0.57-0.9,1.14-1.8,1.66-2.73c0.34-0.6,0.63-1.23,0.95-1.85
			c0.46-0.91,0.92-1.82,1.33-2.76c0.29-0.67,0.55-1.35,0.82-2.03c0.36-0.93,0.72-1.85,1.03-2.8c0.24-0.71,0.44-1.44,0.65-2.17
			c0.27-0.95,0.52-1.91,0.74-2.88c0.17-0.75,0.32-1.51,0.46-2.27c0.18-0.98,0.33-1.97,0.45-2.96c0.1-0.78,0.18-1.56,0.25-2.35
			c0.04-0.43,0.11-0.85,0.14-1.29h10.35c-1.63,33.38-28.5,60.25-61.88,61.88v-10.35c0.42-0.02,0.84-0.1,1.26-0.13
			C-2047.95,462.88-2047.15,462.8-2046.35,462.7z"/>
		<linearGradient id="SVGID_7_" gradientUnits="userSpaceOnUse" x1="-2032.0898" y1="414.0357" x2="-1908.5634" y2="327.5415">
			<stop  offset="0.0629" style="stop-color:#FFB71B"/>
			<stop  offset="0.3007" style="stop-color:#FFFFFF"/>
			<stop  offset="1" style="stop-color:#FFB71B"/>
		</linearGradient>
		<path class="st9" d="M-2015.11,408.32v-3.23h-41.35v41.35h3.23C-2032.22,446.45-2015.11,429.35-2015.11,408.32z M-2050.01,439.84
			v-28.29h28.29C-2023.24,426.45-2035.12,438.32-2050.01,439.84z"/>
		<linearGradient id="SVGID_8_" gradientUnits="userSpaceOnUse" x1="-1957.2386" y1="518.047" x2="-1832.2424" y2="430.5237">
			<stop  offset="0.0629" style="stop-color:#FFB71B"/>
			<stop  offset="0.3007" style="stop-color:#FFFFFF"/>
			<stop  offset="1" style="stop-color:#FFB71B"/>
		</linearGradient>
		<path class="st10" d="M-1816.85,480.43c-10.53-5.95-19.78-14.39-26.75-24.38c-9.72-13.96-14.86-30.46-14.86-47.73v-3.23h-113.55
			v3.23c0,17.25-5.13,33.75-14.84,47.7l-0.02,0.03c-6.96,10-16.21,18.43-26.74,24.38c-12.04,6.81-25.74,10.42-39.63,10.44l-3.22,0
			v22.16H-1774v-22.16l-3.22,0C-1791.11,490.85-1804.82,487.24-1816.85,480.43z M-1969.81,435.77h109.15
			c2.09,6.59,4.9,12.94,8.49,18.9h-62.78h-10.96h-52.38C-1974.71,448.7-1971.9,442.36-1969.81,435.77z M-1864.85,411.55
			c0.21,6.05,1.03,11.99,2.4,17.77h-105.55c1.37-5.78,2.19-11.72,2.4-17.77H-1864.85z M-1982.56,461.12h56.65h10.96h67.04
			c5.22,7.19,11.55,13.59,18.65,18.9h-85.69h-10.96h-75.29C-1994.11,474.71-1987.78,468.31-1982.56,461.12z M-1925.91,486.47h10.96
			h95.67c11.89,6.56,25.23,10.27,38.83,10.79v9.33h-269.56v-9.33c13.6-0.52,26.94-4.23,38.83-10.79H-1925.91z"/>
		<linearGradient id="SVGID_9_" gradientUnits="userSpaceOnUse" x1="-1945.9532" y1="536.7197" x2="-1820.3843" y2="448.7953">
			<stop  offset="0.0629" style="stop-color:#FFB71B"/>
			<stop  offset="0.3007" style="stop-color:#FFFFFF"/>
			<stop  offset="1" style="stop-color:#FFB71B"/>
		</linearGradient>
		<path class="st11" d="M-1825.63,408.32v-3.23h-23.23v3.23c0,39.5,32.14,71.64,71.64,71.64h3.23v-23.23h-3.23
			C-1803.92,456.73-1825.63,435.01-1825.63,408.32z M-1811.02,451.44c0.94,0.74,1.88,1.47,2.87,2.15c0.53,0.36,1.08,0.68,1.62,1.03
			c0.9,0.57,1.79,1.14,2.72,1.66c0.61,0.34,1.25,0.64,1.87,0.96c0.9,0.46,1.8,0.91,2.73,1.32c0.68,0.3,1.37,0.56,2.06,0.83
			c0.92,0.36,1.83,0.71,2.77,1.02c0.73,0.24,1.46,0.45,2.2,0.66c0.94,0.27,1.88,0.52,2.84,0.73c0.76,0.17,1.53,0.32,2.31,0.46
			c0.96,0.17,1.93,0.32,2.91,0.45c0.8,0.1,1.6,0.19,2.4,0.25c0.42,0.03,0.83,0.11,1.26,0.13v10.35
			c-33.38-1.63-60.25-28.5-61.88-61.88h10.35c0.02,0.43,0.1,0.84,0.13,1.26c0.07,0.8,0.15,1.6,0.25,2.4
			c0.12,0.98,0.27,1.96,0.45,2.92c0.14,0.77,0.29,1.54,0.46,2.29c0.22,0.96,0.47,1.91,0.74,2.86c0.21,0.73,0.42,1.46,0.65,2.18
			c0.31,0.95,0.66,1.87,1.02,2.79c0.27,0.68,0.53,1.37,0.82,2.04c0.41,0.94,0.87,1.85,1.33,2.75c0.31,0.62,0.61,1.24,0.95,1.85
			c0.52,0.94,1.1,1.84,1.67,2.75c0.34,0.53,0.66,1.08,1.01,1.6c0.68,0.99,1.42,1.94,2.16,2.89c0.31,0.39,0.59,0.8,0.9,1.18
			c2.18,2.62,4.59,5.04,7.21,7.21C-1811.83,450.85-1811.42,451.13-1811.02,451.44z"/>
		<linearGradient id="SVGID_10_" gradientUnits="userSpaceOnUse" x1="-1946.7012" y1="532.2212" x2="-1822.8856" y2="445.5246">
			<stop  offset="0.0629" style="stop-color:#FFB71B"/>
			<stop  offset="0.3007" style="stop-color:#FFFFFF"/>
			<stop  offset="1" style="stop-color:#FFB71B"/>
		</linearGradient>
		<path class="st12" d="M-1815.35,408.32c0,21.02,17.1,38.13,38.13,38.13h3.23V405.1h-41.35V408.32z M-1780.45,411.55v28.29
			c-14.9-1.51-26.77-13.39-28.29-28.29H-1780.45z"/>
		<linearGradient id="SVGID_11_" gradientUnits="userSpaceOnUse" x1="-2043.5588" y1="397.6072" x2="-1920.6316" y2="311.5327">
			<stop  offset="0.0629" style="stop-color:#FFB71B"/>
			<stop  offset="0.3007" style="stop-color:#FFFFFF"/>
			<stop  offset="1" style="stop-color:#FFB71B"/>
		</linearGradient>
		<path class="st13" d="M-1981.56,336.02h-32.31v58.97h32.31V336.02z M-2007.42,388.54v-46.07h19.41v46.07H-2007.42z"/>
		<linearGradient id="SVGID_12_" gradientUnits="userSpaceOnUse" x1="-2068.0437" y1="364.4722" x2="-1944.1938" y2="277.7515">
			<stop  offset="0.0629" style="stop-color:#FFB71B"/>
			<stop  offset="0.3007" style="stop-color:#FFFFFF"/>
			<stop  offset="1" style="stop-color:#FFB71B"/>
		</linearGradient>
		<path class="st14" d="M-1997.71,329.3c7.76,0,14.08-6.31,14.08-14.08c0-7.76-6.31-14.08-14.08-14.08s-14.08,6.31-14.08,14.08
			C-2011.79,322.99-2005.48,329.3-1997.71,329.3z M-1997.71,307.6c4.2,0,7.63,3.42,7.63,7.63c0,4.2-3.42,7.63-7.63,7.63
			s-7.63-3.42-7.63-7.63C-2005.34,311.02-2001.92,307.6-1997.71,307.6z"/>
		<linearGradient id="SVGID_13_" gradientUnits="userSpaceOnUse" x1="-2058.094" y1="377.9588" x2="-1935.1669" y2="291.8842">
			<stop  offset="0.0629" style="stop-color:#FFB71B"/>
			<stop  offset="0.3007" style="stop-color:#FFFFFF"/>
			<stop  offset="1" style="stop-color:#FFB71B"/>
		</linearGradient>
		<path class="st15" d="M-2024.16,336.02h-32.31v58.97h32.31V336.02z M-2050.01,388.54v-46.07h19.41v46.07H-2050.01z"/>
		<linearGradient id="SVGID_14_" gradientUnits="userSpaceOnUse" x1="-2082.3684" y1="344.6762" x2="-1958.5184" y2="257.9555">
			<stop  offset="0.0629" style="stop-color:#FFB71B"/>
			<stop  offset="0.3007" style="stop-color:#FFFFFF"/>
			<stop  offset="1" style="stop-color:#FFB71B"/>
		</linearGradient>
		<path class="st16" d="M-2040.31,329.3c7.76,0,14.08-6.31,14.08-14.08c0-7.76-6.31-14.08-14.08-14.08s-14.08,6.31-14.08,14.08
			C-2054.39,322.99-2048.07,329.3-2040.31,329.3z M-2040.31,307.6c4.2,0,7.63,3.42,7.63,7.63c0,4.2-3.42,7.63-7.63,7.63
			s-7.63-3.42-7.63-7.63C-2047.94,311.02-2044.52,307.6-2040.31,307.6z"/>
	</g>
</g>
<g>
	<g>
		<path class="st1" d="M-896.05,740.63c5.76,0,10.55,1.82,14.38,5.47c3.83,3.65,5.74,8.21,5.74,13.71c0,5.49-1.93,10.04-5.8,13.64
			c-3.87,3.6-8.74,5.4-14.62,5.4c-5.62,0-10.29-1.8-14.03-5.4c-3.74-3.6-5.61-8.11-5.61-13.54c0-5.57,1.88-10.17,5.65-13.82
			C-906.57,742.45-901.81,740.63-896.05,740.63z M-895.84,745.7c-4.26,0-7.77,1.33-10.51,4c-2.74,2.67-4.12,6.07-4.12,10.22
			c0,4.02,1.38,7.36,4.13,10.03c2.75,2.67,6.2,4,10.34,4c4.16,0,7.63-1.36,10.41-4.08c2.78-2.72,4.17-6.11,4.17-10.16
			c0-3.95-1.39-7.27-4.17-9.96C-888.37,747.04-891.79,745.7-895.84,745.7z"/>
		<path class="st1" d="M-863.73,778.42v-37.31h11.82c3.56,0,6.39,0.96,8.51,2.88c2.12,1.92,3.17,4.5,3.17,7.73
			c0,2.17-0.54,4.09-1.63,5.76s-2.57,2.89-4.45,3.64c-1.88,0.76-4.59,1.13-8.11,1.13h-3.95v16.16H-863.73z M-852.85,745.86h-5.52
			v11.66h5.84c2.17,0,3.84-0.51,5.01-1.53c1.17-1.02,1.76-2.49,1.76-4.39C-845.75,747.77-848.12,745.86-852.85,745.86z"/>
		<path class="st1" d="M-803.78,741.16h5.36v21.15c0,2.86-0.21,5.02-0.63,6.48s-0.93,2.67-1.55,3.64c-0.61,0.97-1.36,1.84-2.25,2.6
			c-2.95,2.54-6.81,3.81-11.58,3.81c-4.85,0-8.75-1.26-11.68-3.79c-0.89-0.78-1.64-1.66-2.25-2.63c-0.62-0.97-1.12-2.16-1.52-3.56
			c-0.4-1.4-0.6-3.61-0.6-6.61v-21.1h5.36v21.15c0,3.5,0.4,5.94,1.2,7.31s2.02,2.47,3.65,3.29c1.64,0.83,3.57,1.24,5.79,1.24
			c3.17,0,5.74-0.83,7.73-2.48c1.05-0.89,1.8-1.94,2.27-3.15c0.46-1.21,0.69-3.28,0.69-6.21V741.16z"/>
		<path class="st1" d="M-775.43,762.81l-4.05-2.46c-2.54-1.55-4.35-3.08-5.43-4.58c-1.08-1.5-1.61-3.23-1.61-5.19
			c0-2.93,1.02-5.32,3.05-7.15c2.03-1.83,4.68-2.75,7.93-2.75c3.11,0,5.97,0.87,8.56,2.62v6.05c-2.68-2.58-5.57-3.87-8.67-3.87
			c-1.74,0-3.17,0.4-4.29,1.21s-1.68,1.84-1.68,3.09c0,1.12,0.41,2.16,1.24,3.14s2.15,2,3.98,3.07l4.07,2.41
			c4.54,2.72,6.82,6.17,6.82,10.37c0,2.99-1,5.41-3,7.28c-2,1.87-4.6,2.8-7.8,2.8c-3.68,0-7.03-1.13-10.06-3.39v-6.77
			c2.88,3.65,6.21,5.47,10,5.47c1.67,0,3.06-0.47,4.17-1.4c1.11-0.93,1.67-2.09,1.67-3.49C-770.52,767-772.16,764.85-775.43,762.81z
			"/>
		<path class="st1" d="M-733.54,741.16h5.33v32.41h16.78v4.85h-22.11V741.16z"/>
		<path class="st1" d="M-701.24,741.16h5.33v37.26h-5.33V741.16z"/>
		<path class="st1" d="M-681.63,741.16h19.87v4.75h-14.54v10.4h14.54v4.75h-14.54v17.36h-5.33V741.16z"/>
		<path class="st1" d="M-650.23,741.16h21.12v4.75h-15.79v11.36h15.26v4.77h-15.26v11.58h16.3v4.75h-21.63V741.16z"/>
		<path class="st1" d="M-607.75,762.81l-4.05-2.46c-2.54-1.55-4.35-3.08-5.43-4.58c-1.08-1.5-1.61-3.23-1.61-5.19
			c0-2.93,1.02-5.32,3.05-7.15c2.03-1.83,4.68-2.75,7.93-2.75c3.11,0,5.97,0.87,8.56,2.62v6.05c-2.68-2.58-5.57-3.87-8.67-3.87
			c-1.74,0-3.17,0.4-4.29,1.21s-1.68,1.84-1.68,3.09c0,1.12,0.41,2.16,1.24,3.14s2.15,2,3.98,3.07l4.07,2.41
			c4.54,2.72,6.82,6.17,6.82,10.37c0,2.99-1,5.41-3,7.28c-2,1.87-4.6,2.8-7.8,2.8c-3.68,0-7.03-1.13-10.06-3.39v-6.77
			c2.88,3.65,6.21,5.47,10,5.47c1.67,0,3.06-0.47,4.17-1.4c1.11-0.93,1.67-2.09,1.67-3.49C-602.85,767-604.48,764.85-607.75,762.81z
			"/>
		<path class="st1" d="M-589.4,741.11h31.12v4.75h-12.99v32.57h-5.36v-32.57h-12.77V741.11z"/>
		<path class="st1" d="M-523.45,741.16h6.48l-13.76,17.55v19.71h-5.47v-19.71l-13.76-17.55h6.44l9.97,12.85L-523.45,741.16z"/>
		<path class="st1" d="M-507.08,741.16h5.33v32.41h16.78v4.85h-22.11V741.16z"/>
		<path class="st1" d="M-474.81,741.16h21.12v4.75h-15.79v11.36h15.26v4.77h-15.26v11.58h16.3v4.75h-21.63V741.16z"/>
	</g>
	<g>
		<path class="st1" d="M-1020.51,584.39l-10.82-7.17c8.39,0,15.34,0,20.83,0.01c5.49,0.01,9.73,0.01,12.73,0.01l37.51,122.49h-17.23
			l-24.38-79.6h-22.38l-24.36,71.27l15.51,8.33h-27.19L-1020.51,584.39z M-1012.42,585.61l-9.92,29.03h18.81L-1012.42,585.61z"/>
		<path class="st1" d="M-932.82,699.59h-16.44V585.68c0,0.09-0.86-0.56-2.58-1.95c-1.72-1.4-3.44-2.81-5.17-4.26
			c-1.73-1.44-2.59-2.16-2.58-2.16h27.51c5.54-0.23,11.09-0.25,16.67-0.05c5.58,0.18,10.93,0.44,16.07,0.78
			c5.14,0.34,9.91,1.06,14.34,2.16c4.42,1.1,8.25,2.47,11.48,4.1c3.23,1.63,5.73,3.83,7.5,6.59c1.77,2.76,2.57,5.97,2.4,9.63
			c-0.26,5.42-3.66,10.05-10.2,13.89c-6.55,3.84-16.6,6.1-30.17,6.77c5.92,0.5,11.08,1.94,15.5,4.33c4.42,2.39,7.85,5.33,10.28,8.83
			s4.53,7.41,6.26,11.75c1.74,4.33,2.96,8.71,3.66,13.12c0.7,4.42,1.45,8.72,2.24,12.92c0.79,4.2,1.53,7.92,2.23,11.17
			c0.7,3.25,1.83,5.86,3.4,7.84c1.57,1.98,3.56,2.96,5.97,2.96v5.49c-4.91-0.19-9.13-1.22-12.67-3.07
			c-3.54-1.85-6.33-4.27-8.36-7.26s-3.76-6.39-5.16-10.21c-1.4-3.82-2.61-7.84-3.62-12.05c-1.01-4.21-2.06-8.43-3.15-12.65
			c-1.09-4.22-2.54-8.27-4.34-12.14c-1.8-3.87-4-7.33-6.6-10.38c-2.6-3.05-6.11-5.56-10.53-7.52c-4.42-1.96-9.61-3.1-15.56-3.42
			v-0.75v-4.9c6.41,0.46,12.28,0.49,17.62,0.09s9.93-1.17,13.76-2.31c3.84-1.14,6.82-2.89,8.93-5.25c2.12-2.36,3.16-5.27,3.12-8.72
			c-0.04-4.24-2.27-7.85-6.69-10.83s-10.4-4.79-17.95-5.44c-7.55-0.65-16.37,0.32-26.44,2.9l0,113.91L-932.82,699.59z"/>
		<path class="st1" d="M-826.53,699.59h-16.44V585.68c0,0.09-0.86-0.56-2.58-1.95c-1.72-1.4-3.44-2.81-5.17-4.26
			c-1.73-1.44-2.59-2.16-2.58-2.16h27.51c5.54-0.23,11.09-0.25,16.67-0.05c5.58,0.18,10.93,0.44,16.07,0.78
			c5.14,0.34,9.91,1.06,14.34,2.16c4.42,1.1,8.25,2.47,11.48,4.1c3.23,1.63,5.73,3.83,7.5,6.59c1.77,2.76,2.57,5.97,2.4,9.63
			c-0.26,5.42-3.66,10.05-10.2,13.89c-6.55,3.84-16.6,6.1-30.17,6.77c5.92,0.5,11.08,1.94,15.5,4.33c4.42,2.39,7.85,5.33,10.28,8.83
			s4.53,7.41,6.26,11.75c1.74,4.33,2.96,8.71,3.66,13.12c0.7,4.42,1.45,8.72,2.24,12.92c0.79,4.2,1.53,7.92,2.23,11.17
			c0.7,3.25,1.83,5.86,3.4,7.84c1.57,1.98,3.56,2.96,5.97,2.96v5.49c-4.91-0.19-9.13-1.22-12.67-3.07
			c-3.54-1.85-6.33-4.27-8.36-7.26s-3.76-6.39-5.16-10.21c-1.4-3.82-2.61-7.84-3.62-12.05c-1.01-4.21-2.06-8.43-3.15-12.65
			c-1.09-4.22-2.54-8.27-4.34-12.14c-1.8-3.87-4-7.33-6.6-10.38c-2.6-3.05-6.11-5.56-10.53-7.52c-4.42-1.96-9.61-3.1-15.56-3.42
			v-0.75v-4.9c6.41,0.46,12.28,0.49,17.62,0.09s9.93-1.17,13.76-2.31c3.84-1.14,6.82-2.89,8.93-5.25c2.12-2.36,3.16-5.27,3.12-8.72
			c-0.04-4.24-2.27-7.85-6.69-10.83s-10.4-4.79-17.95-5.44c-7.55-0.65-16.37,0.32-26.44,2.9l0,113.91L-826.53,699.59z"/>
		<path class="st1" d="M-739.26,583.64c-1.72-1.4-3.44-2.82-5.17-4.26c-1.73-1.44-2.59-2.17-2.58-2.17h84.23v27.81
			c-4.97-14.79-12.48-22.5-22.53-23.14h-34.16v32.7h40.74v5.49h-40.74v74.07c3.7-0.03,8.7-0.05,14.99-0.05
			c5.62,0,9.64-0.01,12.06-0.02c2.43-0.01,5.47-0.14,9.14-0.39c3.66-0.25,6.15-0.54,7.45-0.86c1.3-0.32,3.07-0.93,5.32-1.83
			c2.24-0.9,3.76-1.86,4.54-2.87c0.78-1.02,1.89-2.49,3.31-4.42c1.43-1.93,2.57-3.95,3.44-6.04c0.87-2.09,1.94-4.8,3.23-8.14v30.07
			h-80.69v-114C-736.68,585.69-737.54,585.04-739.26,583.64z"/>
		<path class="st1" d="M-548.97,607.38c-3.68-7.65-8.61-13.55-14.79-17.71c-6.18-4.16-12.6-6.44-19.26-6.83
			c-6.67-0.39-13.4,0.68-20.2,3.22c-6.8,2.54-12.81,6.23-18.01,11.06s-9.29,10.88-12.25,18.16c-2.97,7.28-4.08,14.99-3.34,23.13
			c0.63,6.91,2.41,13.53,5.33,19.85c2.93,6.32,6.84,12.01,11.73,17.07c4.89,5.06,11.06,9.07,18.5,12.03
			c7.44,2.96,15.59,4.37,24.45,4.25c3.68-0.05,7.23-0.22,10.64-0.5l0-76.5h17.21v77.55v0.48c-10.41,4.65-21.52,6.97-33.34,6.97
			c-13.01,0-25.04-2.73-36.07-8.19c-11.04-5.46-19.76-12.89-26.17-22.29c-6.41-9.4-9.62-19.63-9.63-30.71
			c-0.01-9.49,1.97-18.16,5.93-26.03c3.96-7.87,9.4-14.35,16.32-19.43c6.92-5.09,14.8-9.03,23.65-11.84
			c8.85-2.8,18.42-4.12,28.72-3.95c10.3,0.17,20.54,1.82,30.73,4.93L-548.97,607.38z"/>
		<path class="st1" d="M-540.81,577.21h27.57v117.02c2.78,0,6.61,0.01,11.48,0.04c7.3,0.04,12.42,0.06,15.36,0.06
			s6.45-0.31,10.53-0.93c4.08-0.62,6.77-1.27,8.07-1.97c1.31-0.7,3.22-2.17,5.75-4.42c2.53-2.25,4.51-4.52,5.94-6.83
			c1.43-2.31,3.57-5.83,6.42-10.55v25.17v4.93h-80.78V585.6L-540.81,577.21z"/>
		<path class="st1" d="M-344.09,585.4c10.61,5.46,19,12.89,25.17,22.29c6.17,9.4,9.25,19.63,9.25,30.71s-3.08,21.32-9.25,30.72
			c-6.17,9.4-14.56,16.82-25.17,22.29c-10.61,5.46-22.17,8.19-34.69,8.19c-12.51,0-24.07-2.73-34.68-8.19
			c-10.62-5.46-19-12.89-25.17-22.29c-6.17-9.4-9.25-19.64-9.25-30.72s3.08-21.32,9.25-30.71c6.16-9.4,14.55-16.83,25.17-22.29
			c10.61-5.46,22.17-8.19,34.68-8.19C-366.26,577.21-354.7,579.94-344.09,585.4z M-409.91,592.74
			c-6.85,5.04-11.76,11.05-14.74,18.02c-2.98,6.97-4.86,14.48-5.66,22.53c-0.79,8.05,0.2,15.85,2.97,23.42s6.46,14.31,11.08,20.25
			c4.62,5.94,10.86,10.42,18.74,13.45c7.88,3.03,16.51,3.91,25.9,2.63c9.33-1.27,17.41-4.43,24.22-9.46
			c6.81-5.04,11.7-11.04,14.65-18.01c2.96-6.97,4.82-14.48,5.6-22.53c0.78-8.05-0.22-15.85-2.99-23.41
			c-2.77-7.56-6.45-14.31-11.06-20.25c-4.6-5.94-10.81-10.43-18.65-13.46c-7.83-3.04-16.41-3.92-25.73-2.65
			C-394.96,584.54-403.07,587.7-409.91,592.74z"/>
	</g>
	<g>
		<linearGradient id="SVGID_15_" gradientUnits="userSpaceOnUse" x1="-791.3143" y1="428.7756" x2="-667.4792" y2="342.0654">
			<stop  offset="0.0629" style="stop-color:#FFB71B"/>
			<stop  offset="0.3007" style="stop-color:#FFFFFF"/>
			<stop  offset="1" style="stop-color:#FFB71B"/>
		</linearGradient>
		<path class="st17" d="M-628.74,313.74h-112.62v81.25h112.62V313.74z M-734.91,388.54v-68.35h99.72v68.35H-734.91z"/>
		<linearGradient id="SVGID_16_" gradientUnits="userSpaceOnUse" x1="-757.0656" y1="473.7202" x2="-634.1384" y2="387.6456">
			<stop  offset="0.0629" style="stop-color:#FFB71B"/>
			<stop  offset="0.3007" style="stop-color:#FFFFFF"/>
			<stop  offset="1" style="stop-color:#FFB71B"/>
		</linearGradient>
		<path class="st18" d="M-586.37,336.02h-32.31v58.97h32.31V336.02z M-612.23,388.54v-46.07h19.41v46.07H-612.23z"/>
		<linearGradient id="SVGID_17_" gradientUnits="userSpaceOnUse" x1="-782.3667" y1="441.1563" x2="-658.5167" y2="354.4356">
			<stop  offset="0.0629" style="stop-color:#FFB71B"/>
			<stop  offset="0.3007" style="stop-color:#FFFFFF"/>
			<stop  offset="1" style="stop-color:#FFB71B"/>
		</linearGradient>
		<path class="st19" d="M-602.52,329.3c7.76,0,14.08-6.31,14.08-14.08c0-7.76-6.31-14.08-14.08-14.08
			c-7.76,0-14.08,6.31-14.08,14.08C-616.6,322.99-610.28,329.3-602.52,329.3z M-602.52,307.6c4.2,0,7.63,3.42,7.63,7.63
			c0,4.2-3.42,7.63-7.63,7.63c-4.2,0-7.63-3.42-7.63-7.63C-610.15,311.02-606.73,307.6-602.52,307.6z"/>
		<linearGradient id="SVGID_18_" gradientUnits="userSpaceOnUse" x1="-742.5305" y1="493.3683" x2="-619.6034" y2="407.2937">
			<stop  offset="0.0629" style="stop-color:#FFB71B"/>
			<stop  offset="0.3007" style="stop-color:#FFFFFF"/>
			<stop  offset="1" style="stop-color:#FFB71B"/>
		</linearGradient>
		<path class="st20" d="M-576.08,336.02v58.97h32.31v-58.97H-576.08z M-569.63,388.54v-46.07h19.41v46.07H-569.63z"/>
		<linearGradient id="SVGID_19_" gradientUnits="userSpaceOnUse" x1="-768.0419" y1="460.9519" x2="-644.1921" y2="374.2314">
			<stop  offset="0.0629" style="stop-color:#FFB71B"/>
			<stop  offset="0.3007" style="stop-color:#FFFFFF"/>
			<stop  offset="1" style="stop-color:#FFB71B"/>
		</linearGradient>
		<path class="st21" d="M-559.93,329.3c7.76,0,14.08-6.31,14.08-14.08c0-7.76-6.31-14.08-14.08-14.08S-574,307.47-574,315.23
			C-574,322.99-567.69,329.3-559.93,329.3z M-559.93,307.6c4.2,0,7.63,3.42,7.63,7.63c0,4.2-3.42,7.63-7.63,7.63
			s-7.63-3.42-7.63-7.63C-567.55,311.02-564.13,307.6-559.93,307.6z"/>
		<linearGradient id="SVGID_20_" gradientUnits="userSpaceOnUse" x1="-783.5009" y1="439.6716" x2="-659.9743" y2="353.1774">
			<stop  offset="0.0629" style="stop-color:#FFB71B"/>
			<stop  offset="0.3007" style="stop-color:#FFFFFF"/>
			<stop  offset="1" style="stop-color:#FFB71B"/>
		</linearGradient>
		<path class="st22" d="M-751.42,408.32v-3.23h-23.23v3.23c0,26.69-21.71,48.4-48.4,48.4h-3.23v23.23h3.23
			C-783.55,479.96-751.42,447.82-751.42,408.32z M-816.17,462.7c0.98-0.12,1.95-0.27,2.91-0.45c0.78-0.14,1.55-0.29,2.31-0.46
			c0.96-0.22,1.9-0.47,2.84-0.73c0.74-0.21,1.47-0.42,2.2-0.66c0.94-0.31,1.86-0.66,2.77-1.02c0.69-0.27,1.38-0.53,2.06-0.83
			c0.93-0.41,1.82-0.86,2.72-1.31c0.63-0.32,1.26-0.62,1.88-0.96c0.93-0.52,1.82-1.08,2.71-1.65c0.54-0.35,1.1-0.67,1.63-1.03
			c0.98-0.67,1.92-1.4,2.85-2.13c0.4-0.32,0.82-0.6,1.22-0.93c2.62-2.18,5.03-4.59,7.21-7.21c0.32-0.39,0.6-0.8,0.92-1.2
			c0.74-0.94,1.47-1.88,2.15-2.87c0.36-0.53,0.68-1.08,1.02-1.62c0.57-0.9,1.14-1.8,1.66-2.73c0.34-0.6,0.63-1.23,0.95-1.85
			c0.46-0.91,0.92-1.82,1.33-2.76c0.29-0.67,0.55-1.35,0.82-2.03c0.36-0.93,0.72-1.85,1.03-2.8c0.24-0.71,0.44-1.44,0.65-2.17
			c0.27-0.95,0.52-1.91,0.74-2.88c0.17-0.75,0.32-1.51,0.46-2.27c0.18-0.98,0.33-1.97,0.45-2.96c0.1-0.78,0.18-1.56,0.25-2.35
			c0.04-0.43,0.11-0.85,0.14-1.29h10.35c-1.63,33.38-28.5,60.25-61.88,61.88v-10.35c0.42-0.02,0.84-0.1,1.26-0.13
			C-817.76,462.88-816.96,462.8-816.17,462.7z"/>
		<linearGradient id="SVGID_21_" gradientUnits="userSpaceOnUse" x1="-801.9023" y1="414.0357" x2="-678.3758" y2="327.5415">
			<stop  offset="0.0629" style="stop-color:#FFB71B"/>
			<stop  offset="0.3007" style="stop-color:#FFFFFF"/>
			<stop  offset="1" style="stop-color:#FFB71B"/>
		</linearGradient>
		<path class="st23" d="M-784.93,408.32v-3.23h-41.35v41.35h3.23C-802.03,446.45-784.93,429.35-784.93,408.32z M-819.83,439.84
			v-28.29h28.29C-793.05,426.45-804.93,438.32-819.83,439.84z"/>
		<linearGradient id="SVGID_22_" gradientUnits="userSpaceOnUse" x1="-727.0511" y1="518.047" x2="-602.0549" y2="430.5237">
			<stop  offset="0.0629" style="stop-color:#FFB71B"/>
			<stop  offset="0.3007" style="stop-color:#FFFFFF"/>
			<stop  offset="1" style="stop-color:#FFB71B"/>
		</linearGradient>
		<path class="st24" d="M-586.67,480.43c-10.53-5.95-19.78-14.39-26.75-24.38c-9.72-13.96-14.86-30.46-14.86-47.73v-3.23h-113.55
			v3.23c0,17.25-5.13,33.75-14.84,47.7l-0.02,0.03c-6.96,10-16.21,18.43-26.74,24.38c-12.04,6.81-25.74,10.42-39.63,10.44l-3.22,0
			v22.16h282.46v-22.16l-3.22,0C-560.92,490.85-574.63,487.24-586.67,480.43z M-739.62,435.77h109.15c2.09,6.59,4.9,12.94,8.49,18.9
			h-62.78h-10.96h-52.38C-744.53,448.7-741.71,442.36-739.62,435.77z M-634.67,411.55c0.21,6.05,1.03,11.99,2.4,17.77h-105.55
			c1.37-5.78,2.19-11.72,2.4-17.77H-634.67z M-752.37,461.12h56.65h10.96h67.04c5.22,7.19,11.55,13.59,18.65,18.9h-85.69h-10.96
			h-75.29C-763.92,474.71-757.59,468.31-752.37,461.12z M-695.73,486.47h10.96h95.67c11.89,6.56,25.23,10.27,38.83,10.79v9.33
			h-269.56v-9.33c13.6-0.52,26.94-4.23,38.83-10.79H-695.73z"/>
		<linearGradient id="SVGID_23_" gradientUnits="userSpaceOnUse" x1="-715.7657" y1="536.7197" x2="-590.1968" y2="448.7953">
			<stop  offset="0.0629" style="stop-color:#FFB71B"/>
			<stop  offset="0.3007" style="stop-color:#FFFFFF"/>
			<stop  offset="1" style="stop-color:#FFB71B"/>
		</linearGradient>
		<path class="st25" d="M-595.44,408.32v-3.23h-23.23v3.23c0,39.5,32.14,71.64,71.64,71.64h3.23v-23.23h-3.23
			C-573.73,456.73-595.44,435.01-595.44,408.32z M-580.84,451.44c0.94,0.74,1.88,1.47,2.87,2.15c0.53,0.36,1.08,0.68,1.62,1.03
			c0.9,0.57,1.79,1.14,2.72,1.66c0.61,0.34,1.25,0.64,1.87,0.96c0.9,0.46,1.8,0.91,2.73,1.32c0.68,0.3,1.37,0.56,2.06,0.83
			c0.92,0.36,1.83,0.71,2.77,1.02c0.73,0.24,1.46,0.45,2.2,0.66c0.94,0.27,1.88,0.52,2.84,0.73c0.76,0.17,1.53,0.32,2.31,0.46
			c0.96,0.17,1.93,0.32,2.91,0.45c0.8,0.1,1.6,0.19,2.4,0.25c0.42,0.03,0.83,0.11,1.26,0.13v10.35
			c-33.38-1.63-60.25-28.5-61.88-61.88h10.35c0.02,0.43,0.1,0.84,0.13,1.26c0.07,0.8,0.15,1.6,0.25,2.4
			c0.12,0.98,0.27,1.96,0.45,2.92c0.14,0.77,0.29,1.54,0.46,2.29c0.22,0.96,0.47,1.91,0.74,2.86c0.21,0.73,0.42,1.46,0.65,2.18
			c0.31,0.95,0.66,1.87,1.02,2.79c0.27,0.68,0.53,1.37,0.82,2.04c0.41,0.94,0.87,1.85,1.33,2.75c0.31,0.62,0.61,1.24,0.95,1.85
			c0.52,0.94,1.1,1.84,1.67,2.75c0.34,0.53,0.66,1.08,1.01,1.6c0.68,0.99,1.42,1.94,2.16,2.89c0.31,0.39,0.59,0.8,0.9,1.18
			c2.18,2.62,4.59,5.04,7.21,7.21C-581.65,450.85-581.23,451.13-580.84,451.44z"/>
		<linearGradient id="SVGID_24_" gradientUnits="userSpaceOnUse" x1="-716.5136" y1="532.2212" x2="-592.698" y2="445.5246">
			<stop  offset="0.0629" style="stop-color:#FFB71B"/>
			<stop  offset="0.3007" style="stop-color:#FFFFFF"/>
			<stop  offset="1" style="stop-color:#FFB71B"/>
		</linearGradient>
		<path class="st26" d="M-585.17,408.32c0,21.02,17.1,38.13,38.13,38.13h3.23V405.1h-41.35V408.32z M-550.27,411.55v28.29
			c-14.9-1.51-26.77-13.39-28.29-28.29H-550.27z"/>
		<linearGradient id="SVGID_25_" gradientUnits="userSpaceOnUse" x1="-813.3712" y1="397.6072" x2="-690.444" y2="311.5327">
			<stop  offset="0.0629" style="stop-color:#FFB71B"/>
			<stop  offset="0.3007" style="stop-color:#FFFFFF"/>
			<stop  offset="1" style="stop-color:#FFB71B"/>
		</linearGradient>
		<path class="st27" d="M-751.37,336.02h-32.31v58.97h32.31V336.02z M-777.23,388.54v-46.07h19.41v46.07H-777.23z"/>
		<linearGradient id="SVGID_26_" gradientUnits="userSpaceOnUse" x1="-837.8562" y1="364.4722" x2="-714.0062" y2="277.7515">
			<stop  offset="0.0629" style="stop-color:#FFB71B"/>
			<stop  offset="0.3007" style="stop-color:#FFFFFF"/>
			<stop  offset="1" style="stop-color:#FFB71B"/>
		</linearGradient>
		<path class="st28" d="M-767.53,329.3c7.76,0,14.08-6.31,14.08-14.08c0-7.76-6.31-14.08-14.08-14.08s-14.08,6.31-14.08,14.08
			C-781.6,322.99-775.29,329.3-767.53,329.3z M-767.53,307.6c4.2,0,7.63,3.42,7.63,7.63c0,4.2-3.42,7.63-7.63,7.63
			s-7.63-3.42-7.63-7.63C-775.15,311.02-771.73,307.6-767.53,307.6z"/>
		<linearGradient id="SVGID_27_" gradientUnits="userSpaceOnUse" x1="-827.9065" y1="377.9588" x2="-704.9793" y2="291.8842">
			<stop  offset="0.0629" style="stop-color:#FFB71B"/>
			<stop  offset="0.3007" style="stop-color:#FFFFFF"/>
			<stop  offset="1" style="stop-color:#FFB71B"/>
		</linearGradient>
		<path class="st29" d="M-793.97,336.02h-32.31v58.97h32.31V336.02z M-819.83,388.54v-46.07h19.41v46.07H-819.83z"/>
		<linearGradient id="SVGID_28_" gradientUnits="userSpaceOnUse" x1="-852.1808" y1="344.6762" x2="-728.3308" y2="257.9555">
			<stop  offset="0.0629" style="stop-color:#FFB71B"/>
			<stop  offset="0.3007" style="stop-color:#FFFFFF"/>
			<stop  offset="1" style="stop-color:#FFB71B"/>
		</linearGradient>
		<path class="st30" d="M-810.12,329.3c7.76,0,14.08-6.31,14.08-14.08c0-7.76-6.31-14.08-14.08-14.08s-14.08,6.31-14.08,14.08
			C-824.2,322.99-817.89,329.3-810.12,329.3z M-810.12,307.6c4.2,0,7.63,3.42,7.63,7.63c0,4.2-3.42,7.63-7.63,7.63
			s-7.63-3.42-7.63-7.63C-817.75,311.02-814.33,307.6-810.12,307.6z"/>
	</g>
</g>
<g>
	<g>
		<path class="st2" d="M204.47,623.94l-10.82-7.17c8.39,0,15.34,0,20.83,0.01c5.49,0.01,9.73,0.01,12.73,0.01l37.51,122.49H247.5
			l-24.38-79.6h-22.38l-24.36,71.27l15.51,8.33H164.7L204.47,623.94z M212.55,625.16l-9.92,29.03h18.81L212.55,625.16z"/>
		<path class="st2" d="M292.16,739.15h-16.44V625.24c0,0.09-0.86-0.56-2.58-1.95c-1.72-1.4-3.44-2.81-5.17-4.26
			c-1.73-1.44-2.59-2.16-2.58-2.16h27.51c5.54-0.23,11.09-0.25,16.67-0.05c5.58,0.18,10.93,0.44,16.07,0.78
			c5.14,0.34,9.91,1.06,14.34,2.16c4.42,1.1,8.25,2.47,11.48,4.1c3.23,1.63,5.73,3.83,7.5,6.59c1.77,2.76,2.57,5.97,2.4,9.63
			c-0.26,5.42-3.66,10.05-10.2,13.89c-6.55,3.84-16.6,6.1-30.17,6.77c5.92,0.5,11.08,1.94,15.5,4.33c4.42,2.39,7.85,5.33,10.28,8.83
			c2.44,3.5,4.53,7.41,6.26,11.75c1.74,4.33,2.96,8.71,3.66,13.12s1.45,8.72,2.24,12.92c0.79,4.2,1.53,7.92,2.23,11.17
			c0.7,3.25,1.83,5.86,3.4,7.84c1.57,1.98,3.56,2.96,5.97,2.96v5.49c-4.91-0.19-9.13-1.22-12.67-3.07
			c-3.54-1.85-6.33-4.27-8.36-7.26s-3.76-6.39-5.16-10.21c-1.4-3.82-2.61-7.84-3.62-12.05c-1.01-4.21-2.06-8.43-3.15-12.65
			c-1.09-4.22-2.54-8.27-4.34-12.14c-1.8-3.87-4-7.33-6.6-10.38c-2.6-3.05-6.11-5.56-10.53-7.52c-4.42-1.96-9.61-3.1-15.56-3.42
			v-0.75v-4.9c6.41,0.46,12.28,0.49,17.62,0.09s9.93-1.17,13.76-2.31c3.84-1.14,6.82-2.89,8.93-5.25c2.12-2.36,3.16-5.27,3.12-8.72
			c-0.04-4.24-2.27-7.85-6.69-10.83s-10.4-4.79-17.95-5.44c-7.55-0.65-16.37,0.32-26.44,2.9l0,113.91L292.16,739.15z"/>
		<path class="st2" d="M398.44,739.15H382V625.24c0,0.09-0.86-0.56-2.58-1.95c-1.72-1.4-3.44-2.81-5.17-4.26
			c-1.73-1.44-2.59-2.16-2.58-2.16h27.51c5.54-0.23,11.09-0.25,16.67-0.05c5.58,0.18,10.93,0.44,16.07,0.78
			c5.14,0.34,9.91,1.06,14.34,2.16c4.42,1.1,8.25,2.47,11.48,4.1c3.23,1.63,5.73,3.83,7.5,6.59c1.77,2.76,2.57,5.97,2.4,9.63
			c-0.26,5.42-3.66,10.05-10.2,13.89c-6.55,3.84-16.6,6.1-30.17,6.77c5.92,0.5,11.08,1.94,15.5,4.33c4.42,2.39,7.85,5.33,10.28,8.83
			c2.44,3.5,4.53,7.41,6.26,11.75c1.74,4.33,2.96,8.71,3.66,13.12s1.45,8.72,2.24,12.92c0.79,4.2,1.53,7.92,2.23,11.17
			c0.7,3.25,1.83,5.86,3.4,7.84c1.57,1.98,3.56,2.96,5.97,2.96v5.49c-4.91-0.19-9.13-1.22-12.67-3.07
			c-3.54-1.85-6.33-4.27-8.36-7.26s-3.76-6.39-5.16-10.21c-1.4-3.82-2.61-7.84-3.62-12.05c-1.01-4.21-2.06-8.43-3.15-12.65
			c-1.09-4.22-2.54-8.27-4.34-12.14c-1.8-3.87-4-7.33-6.6-10.38c-2.6-3.05-6.11-5.56-10.53-7.52c-4.42-1.96-9.61-3.1-15.56-3.42
			v-0.75v-4.9c6.41,0.46,12.28,0.49,17.62,0.09s9.93-1.17,13.76-2.31c3.84-1.14,6.82-2.89,8.93-5.25c2.12-2.36,3.16-5.27,3.12-8.72
			c-0.04-4.24-2.27-7.85-6.69-10.83s-10.4-4.79-17.95-5.44c-7.55-0.65-16.37,0.32-26.44,2.9l0,113.91L398.44,739.15z"/>
		<path class="st2" d="M485.71,623.2c-1.72-1.4-3.44-2.82-5.17-4.26c-1.73-1.44-2.59-2.17-2.58-2.17h84.23v27.81
			c-4.97-14.79-12.48-22.5-22.53-23.14H505.5v32.7h40.74v5.49H505.5v74.07c3.7-0.03,8.7-0.05,14.99-0.05
			c5.62,0,9.64-0.01,12.06-0.02c2.43-0.01,5.47-0.14,9.14-0.39c3.66-0.25,6.15-0.54,7.45-0.86c1.3-0.32,3.07-0.93,5.32-1.83
			c2.24-0.9,3.76-1.86,4.54-2.87c0.78-1.02,1.89-2.49,3.31-4.42c1.43-1.93,2.57-3.95,3.44-6.04c0.87-2.09,1.94-4.8,3.23-8.14v30.07
			h-80.69v-114C488.29,625.25,487.43,624.59,485.71,623.2z"/>
		<path class="st2" d="M676,646.94c-3.68-7.65-8.61-13.55-14.79-17.71c-6.18-4.16-12.6-6.44-19.26-6.83
			c-6.67-0.39-13.4,0.68-20.2,3.22c-6.8,2.54-12.81,6.23-18.01,11.06s-9.29,10.88-12.25,18.16c-2.97,7.28-4.08,14.99-3.34,23.13
			c0.63,6.91,2.41,13.53,5.33,19.85c2.93,6.32,6.84,12.01,11.73,17.07c4.89,5.06,11.06,9.07,18.5,12.03
			c7.44,2.96,15.59,4.37,24.45,4.25c3.68-0.05,7.23-0.22,10.64-0.5l0-76.5H676v77.55v0.48c-10.41,4.65-21.52,6.97-33.34,6.97
			c-13.01,0-25.04-2.73-36.07-8.19c-11.04-5.46-19.76-12.89-26.17-22.29c-6.41-9.4-9.62-19.63-9.63-30.71
			c-0.01-9.49,1.97-18.16,5.93-26.03c3.96-7.87,9.4-14.35,16.32-19.43c6.92-5.09,14.8-9.03,23.65-11.84
			c8.85-2.8,18.42-4.12,28.72-3.95c10.3,0.17,20.54,1.82,30.73,4.93L676,646.94z"/>
		<path class="st2" d="M684.16,616.77h27.57v117.02c2.78,0,6.61,0.01,11.48,0.04c7.3,0.04,12.42,0.06,15.36,0.06
			c2.94,0,6.45-0.31,10.53-0.93c4.08-0.62,6.77-1.27,8.07-1.97c1.31-0.7,3.22-2.17,5.75-4.42c2.53-2.25,4.51-4.52,5.94-6.83
			s3.57-5.83,6.42-10.55v25.17v4.93h-80.78V625.16L684.16,616.77z"/>
		<path class="st2" d="M880.88,624.96c10.61,5.46,19,12.89,25.17,22.29s9.25,19.63,9.25,30.71s-3.08,21.32-9.25,30.72
			c-6.17,9.4-14.56,16.82-25.17,22.29c-10.61,5.46-22.17,8.19-34.69,8.19c-12.51,0-24.07-2.73-34.68-8.19
			c-10.62-5.46-19-12.89-25.17-22.29c-6.17-9.4-9.25-19.64-9.25-30.72s3.08-21.32,9.25-30.71c6.16-9.4,14.55-16.83,25.17-22.29
			c10.61-5.46,22.17-8.19,34.68-8.19C858.71,616.77,870.27,619.5,880.88,624.96z M815.06,632.3c-6.85,5.04-11.76,11.05-14.74,18.02
			c-2.98,6.97-4.86,14.48-5.66,22.53c-0.79,8.05,0.2,15.85,2.97,23.42c2.77,7.56,6.46,14.31,11.08,20.25
			c4.62,5.94,10.86,10.42,18.74,13.45c7.88,3.03,16.51,3.91,25.9,2.63c9.33-1.27,17.41-4.43,24.22-9.46
			c6.81-5.04,11.7-11.04,14.65-18.01c2.96-6.97,4.82-14.48,5.6-22.53c0.78-8.05-0.22-15.85-2.99-23.41
			c-2.77-7.56-6.45-14.31-11.06-20.25c-4.6-5.94-10.81-10.43-18.65-13.46c-7.83-3.04-16.41-3.92-25.73-2.65
			C830.02,624.1,821.91,627.25,815.06,632.3z"/>
	</g>
	<g>
		<linearGradient id="SVGID_29_" gradientUnits="userSpaceOnUse" x1="433.6606" y1="468.3337" x2="557.4957" y2="381.6235">
			<stop  offset="0.0629" style="stop-color:#FFB71B"/>
			<stop  offset="0.3007" style="stop-color:#FFFFFF"/>
			<stop  offset="1" style="stop-color:#FFB71B"/>
		</linearGradient>
		<path class="st31" d="M596.24,353.3H483.62v81.25h112.62V353.3z M490.07,428.1v-68.35h99.72v68.35H490.07z"/>
		<linearGradient id="SVGID_30_" gradientUnits="userSpaceOnUse" x1="467.9093" y1="513.2783" x2="590.8365" y2="427.2037">
			<stop  offset="0.0629" style="stop-color:#FFB71B"/>
			<stop  offset="0.3007" style="stop-color:#FFFFFF"/>
			<stop  offset="1" style="stop-color:#FFB71B"/>
		</linearGradient>
		<path class="st32" d="M638.61,375.58H606.3v58.97h32.31V375.58z M612.75,428.1v-46.07h19.41v46.07H612.75z"/>
		<linearGradient id="SVGID_31_" gradientUnits="userSpaceOnUse" x1="442.6082" y1="480.7144" x2="566.4582" y2="393.9937">
			<stop  offset="0.0629" style="stop-color:#FFB71B"/>
			<stop  offset="0.3007" style="stop-color:#FFFFFF"/>
			<stop  offset="1" style="stop-color:#FFB71B"/>
		</linearGradient>
		<path class="st33" d="M622.45,368.86c7.76,0,14.08-6.31,14.08-14.08c0-7.76-6.31-14.08-14.08-14.08
			c-7.76,0-14.08,6.31-14.08,14.08C608.38,362.55,614.69,368.86,622.45,368.86z M622.45,347.16c4.2,0,7.63,3.42,7.63,7.63
			s-3.42,7.63-7.63,7.63s-7.63-3.42-7.63-7.63S618.25,347.16,622.45,347.16z"/>
		<linearGradient id="SVGID_32_" gradientUnits="userSpaceOnUse" x1="482.4444" y1="532.9264" x2="605.3715" y2="446.8518">
			<stop  offset="0.0629" style="stop-color:#FFB71B"/>
			<stop  offset="0.3007" style="stop-color:#FFFFFF"/>
			<stop  offset="1" style="stop-color:#FFB71B"/>
		</linearGradient>
		<path class="st34" d="M648.9,375.58v58.97h32.31v-58.97H648.9z M655.35,428.1v-46.07h19.41v46.07H655.35z"/>
		<linearGradient id="SVGID_33_" gradientUnits="userSpaceOnUse" x1="456.933" y1="500.51" x2="580.7828" y2="413.7894">
			<stop  offset="0.0629" style="stop-color:#FFB71B"/>
			<stop  offset="0.3007" style="stop-color:#FFFFFF"/>
			<stop  offset="1" style="stop-color:#FFB71B"/>
		</linearGradient>
		<path class="st35" d="M665.05,368.86c7.76,0,14.08-6.31,14.08-14.08c0-7.76-6.31-14.08-14.08-14.08
			c-7.76,0-14.08,6.31-14.08,14.08C650.97,362.55,657.29,368.86,665.05,368.86z M665.05,347.16c4.2,0,7.63,3.42,7.63,7.63
			s-3.42,7.63-7.63,7.63s-7.63-3.42-7.63-7.63S660.84,347.16,665.05,347.16z"/>
		<linearGradient id="SVGID_34_" gradientUnits="userSpaceOnUse" x1="441.474" y1="479.2297" x2="565.0006" y2="392.7355">
			<stop  offset="0.0629" style="stop-color:#FFB71B"/>
			<stop  offset="0.3007" style="stop-color:#FFFFFF"/>
			<stop  offset="1" style="stop-color:#FFB71B"/>
		</linearGradient>
		<path class="st36" d="M473.56,447.88v-3.23h-23.23v3.23c0,26.69-21.71,48.4-48.4,48.4h-3.23v23.23h3.23
			C441.42,519.52,473.56,487.38,473.56,447.88z M408.81,502.25c0.98-0.12,1.95-0.27,2.91-0.45c0.78-0.14,1.55-0.29,2.31-0.46
			c0.96-0.22,1.9-0.47,2.84-0.73c0.74-0.21,1.47-0.42,2.2-0.66c0.94-0.31,1.86-0.66,2.77-1.02c0.69-0.27,1.38-0.53,2.06-0.83
			c0.93-0.41,1.82-0.86,2.72-1.31c0.63-0.32,1.26-0.62,1.88-0.96c0.93-0.52,1.82-1.08,2.71-1.65c0.54-0.35,1.1-0.67,1.63-1.03
			c0.98-0.67,1.92-1.4,2.85-2.13c0.4-0.32,0.82-0.6,1.22-0.93c2.62-2.18,5.03-4.59,7.21-7.21c0.32-0.39,0.6-0.8,0.92-1.2
			c0.74-0.94,1.47-1.88,2.15-2.87c0.36-0.53,0.68-1.08,1.02-1.62c0.57-0.9,1.14-1.8,1.66-2.73c0.34-0.6,0.63-1.23,0.95-1.85
			c0.46-0.91,0.92-1.82,1.33-2.76c0.29-0.67,0.55-1.35,0.82-2.03c0.36-0.93,0.72-1.85,1.03-2.8c0.24-0.71,0.44-1.44,0.65-2.17
			c0.27-0.95,0.52-1.91,0.74-2.88c0.17-0.75,0.32-1.51,0.46-2.27c0.18-0.98,0.33-1.97,0.45-2.96c0.1-0.78,0.18-1.56,0.25-2.35
			c0.04-0.43,0.11-0.85,0.14-1.29h10.35c-1.63,33.38-28.5,60.25-61.88,61.88v-10.35c0.42-0.02,0.84-0.1,1.26-0.13
			C407.21,502.44,408.01,502.35,408.81,502.25z"/>
		<linearGradient id="SVGID_35_" gradientUnits="userSpaceOnUse" x1="423.0726" y1="453.5938" x2="546.5991" y2="367.0996">
			<stop  offset="0.0629" style="stop-color:#FFB71B"/>
			<stop  offset="0.3007" style="stop-color:#FFFFFF"/>
			<stop  offset="1" style="stop-color:#FFB71B"/>
		</linearGradient>
		<path class="st37" d="M440.05,447.88v-3.23H398.7v41.35h3.23C422.94,486.01,440.05,468.9,440.05,447.88z M405.15,479.4v-28.29
			h28.29C431.92,466,420.04,477.88,405.15,479.4z"/>
		<linearGradient id="SVGID_36_" gradientUnits="userSpaceOnUse" x1="497.9238" y1="557.6051" x2="622.92" y2="470.0818">
			<stop  offset="0.0629" style="stop-color:#FFB71B"/>
			<stop  offset="0.3007" style="stop-color:#FFFFFF"/>
			<stop  offset="1" style="stop-color:#FFB71B"/>
		</linearGradient>
		<path class="st38" d="M638.31,519.99c-10.53-5.95-19.78-14.39-26.75-24.38c-9.72-13.96-14.86-30.46-14.86-47.73v-3.23H483.15v3.23
			c0,17.25-5.13,33.75-14.84,47.7l-0.02,0.03c-6.96,10-16.21,18.43-26.74,24.38c-12.04,6.81-25.74,10.42-39.63,10.44l-3.22,0v22.16
			h282.46v-22.16l-3.22,0C664.05,530.41,650.35,526.8,638.31,519.99z M485.35,475.33H594.5c2.09,6.59,4.9,12.94,8.49,18.9h-62.78
			h-10.96h-52.38C480.45,488.26,483.26,481.92,485.35,475.33z M590.31,451.11c0.21,6.05,1.03,11.99,2.4,17.77H487.15
			c1.37-5.78,2.19-11.72,2.4-17.77H590.31z M472.6,500.68h56.65h10.96h67.04c5.22,7.19,11.55,13.59,18.65,18.9h-85.69h-10.96h-75.29
			C461.06,514.27,467.38,507.87,472.6,500.68z M529.25,526.02h10.96h95.67c11.89,6.56,25.23,10.27,38.83,10.79v9.33H405.15v-9.33
			c13.6-0.52,26.94-4.23,38.83-10.79H529.25z"/>
		<linearGradient id="SVGID_37_" gradientUnits="userSpaceOnUse" x1="509.2092" y1="576.2778" x2="634.7781" y2="488.3535">
			<stop  offset="0.0629" style="stop-color:#FFB71B"/>
			<stop  offset="0.3007" style="stop-color:#FFFFFF"/>
			<stop  offset="1" style="stop-color:#FFB71B"/>
		</linearGradient>
		<path class="st39" d="M629.53,447.88v-3.23H606.3v3.23c0,39.5,32.14,71.64,71.64,71.64h3.23v-23.23h-3.23
			C651.24,496.28,629.53,474.57,629.53,447.88z M644.14,491c0.94,0.74,1.88,1.47,2.87,2.15c0.53,0.36,1.08,0.68,1.62,1.03
			c0.9,0.57,1.79,1.14,2.72,1.66c0.61,0.34,1.25,0.64,1.87,0.96c0.9,0.46,1.8,0.91,2.73,1.32c0.68,0.3,1.37,0.56,2.06,0.83
			c0.92,0.36,1.83,0.71,2.77,1.02c0.73,0.24,1.46,0.45,2.2,0.66c0.94,0.27,1.88,0.52,2.84,0.73c0.76,0.17,1.53,0.32,2.31,0.46
			c0.96,0.17,1.93,0.32,2.91,0.45c0.8,0.1,1.6,0.19,2.4,0.25c0.42,0.03,0.83,0.11,1.26,0.13v10.35
			c-33.38-1.63-60.25-28.5-61.88-61.88h10.35c0.02,0.43,0.1,0.84,0.13,1.26c0.07,0.8,0.15,1.6,0.25,2.4
			c0.12,0.98,0.27,1.96,0.45,2.92c0.14,0.77,0.29,1.54,0.46,2.29c0.22,0.96,0.47,1.91,0.74,2.86c0.21,0.73,0.42,1.46,0.65,2.18
			c0.31,0.95,0.66,1.87,1.02,2.79c0.27,0.68,0.53,1.37,0.82,2.04c0.41,0.94,0.87,1.85,1.33,2.75c0.31,0.62,0.61,1.24,0.95,1.85
			c0.52,0.94,1.1,1.84,1.67,2.75c0.34,0.53,0.66,1.08,1.01,1.6c0.68,0.99,1.42,1.94,2.16,2.89c0.31,0.39,0.59,0.8,0.9,1.18
			c2.18,2.62,4.59,5.04,7.21,7.21C643.33,490.4,643.74,490.69,644.14,491z"/>
		<linearGradient id="SVGID_38_" gradientUnits="userSpaceOnUse" x1="508.4613" y1="571.7793" x2="632.2769" y2="485.0827">
			<stop  offset="0.0629" style="stop-color:#FFB71B"/>
			<stop  offset="0.3007" style="stop-color:#FFFFFF"/>
			<stop  offset="1" style="stop-color:#FFB71B"/>
		</linearGradient>
		<path class="st40" d="M639.81,447.88c0,21.02,17.1,38.13,38.13,38.13h3.23v-41.35h-41.35V447.88z M674.71,451.11v28.29
			c-14.9-1.51-26.77-13.39-28.29-28.29H674.71z"/>
		<linearGradient id="SVGID_39_" gradientUnits="userSpaceOnUse" x1="411.6037" y1="437.1653" x2="534.5309" y2="351.0908">
			<stop  offset="0.0629" style="stop-color:#FFB71B"/>
			<stop  offset="0.3007" style="stop-color:#FFFFFF"/>
			<stop  offset="1" style="stop-color:#FFB71B"/>
		</linearGradient>
		<path class="st41" d="M473.6,375.58h-32.31v58.97h32.31V375.58z M447.74,428.1v-46.07h19.41v46.07H447.74z"/>
		<linearGradient id="SVGID_40_" gradientUnits="userSpaceOnUse" x1="387.1187" y1="404.0303" x2="510.9687" y2="317.3096">
			<stop  offset="0.0629" style="stop-color:#FFB71B"/>
			<stop  offset="0.3007" style="stop-color:#FFFFFF"/>
			<stop  offset="1" style="stop-color:#FFB71B"/>
		</linearGradient>
		<path class="st42" d="M457.45,368.86c7.76,0,14.08-6.31,14.08-14.08c0-7.76-6.31-14.08-14.08-14.08s-14.08,6.31-14.08,14.08
			C443.37,362.55,449.69,368.86,457.45,368.86z M457.45,347.16c4.2,0,7.63,3.42,7.63,7.63s-3.42,7.63-7.63,7.63
			c-4.2,0-7.63-3.42-7.63-7.63S453.24,347.16,457.45,347.16z"/>
		<linearGradient id="SVGID_41_" gradientUnits="userSpaceOnUse" x1="397.0684" y1="417.5168" x2="519.9956" y2="331.4423">
			<stop  offset="0.0629" style="stop-color:#FFB71B"/>
			<stop  offset="0.3007" style="stop-color:#FFFFFF"/>
			<stop  offset="1" style="stop-color:#FFB71B"/>
		</linearGradient>
		<path class="st43" d="M431.01,375.58H398.7v58.97h32.31V375.58z M405.15,428.1v-46.07h19.41v46.07H405.15z"/>
		<linearGradient id="SVGID_42_" gradientUnits="userSpaceOnUse" x1="372.7941" y1="384.2343" x2="496.6441" y2="297.5136">
			<stop  offset="0.0629" style="stop-color:#FFB71B"/>
			<stop  offset="0.3007" style="stop-color:#FFFFFF"/>
			<stop  offset="1" style="stop-color:#FFB71B"/>
		</linearGradient>
		<path class="st44" d="M414.85,368.86c7.76,0,14.08-6.31,14.08-14.08c0-7.76-6.31-14.08-14.08-14.08s-14.08,6.31-14.08,14.08
			C400.77,362.55,407.09,368.86,414.85,368.86z M414.85,347.16c4.2,0,7.63,3.42,7.63,7.63s-3.42,7.63-7.63,7.63
			c-4.2,0-7.63-3.42-7.63-7.63S410.65,347.16,414.85,347.16z"/>
	</g>
</g>
<g>
	<g>
		<path class="st1" d="M1445.08,623.94l-10.82-7.17c8.39,0,15.34,0,20.83,0.01c5.49,0.01,9.73,0.01,12.73,0.01l37.51,122.49h-17.23
			l-24.38-79.6h-22.38l-24.36,71.27l15.51,8.33h-27.19L1445.08,623.94z M1453.16,625.16l-9.92,29.03h18.81L1453.16,625.16z"/>
		<path class="st1" d="M1532.77,739.15h-16.44V625.24c0,0.09-0.86-0.56-2.58-1.95c-1.72-1.4-3.44-2.81-5.17-4.26
			c-1.73-1.44-2.59-2.16-2.58-2.16h27.51c5.54-0.23,11.09-0.25,16.67-0.05c5.58,0.18,10.93,0.44,16.07,0.78
			c5.14,0.34,9.91,1.06,14.34,2.16c4.42,1.1,8.25,2.47,11.48,4.1c3.23,1.63,5.73,3.83,7.5,6.59c1.77,2.76,2.57,5.97,2.4,9.63
			c-0.26,5.42-3.66,10.05-10.2,13.89c-6.55,3.84-16.6,6.1-30.17,6.77c5.92,0.5,11.08,1.94,15.5,4.33c4.42,2.39,7.85,5.33,10.28,8.83
			c2.44,3.5,4.53,7.41,6.26,11.75c1.74,4.33,2.96,8.71,3.66,13.12s1.45,8.72,2.24,12.92c0.79,4.2,1.53,7.92,2.23,11.17
			c0.7,3.25,1.83,5.86,3.4,7.84c1.57,1.98,3.56,2.96,5.97,2.96v5.49c-4.91-0.19-9.13-1.22-12.67-3.07
			c-3.54-1.85-6.33-4.27-8.36-7.26s-3.76-6.39-5.16-10.21c-1.4-3.82-2.61-7.84-3.62-12.05c-1.01-4.21-2.06-8.43-3.15-12.65
			c-1.09-4.22-2.54-8.27-4.34-12.14c-1.8-3.87-4-7.33-6.6-10.38c-2.6-3.05-6.11-5.56-10.53-7.52c-4.42-1.96-9.61-3.1-15.56-3.42
			v-0.75v-4.9c6.41,0.46,12.28,0.49,17.62,0.09c5.34-0.4,9.93-1.17,13.76-2.31c3.84-1.14,6.82-2.89,8.93-5.25
			c2.12-2.36,3.16-5.27,3.12-8.72c-0.04-4.24-2.27-7.85-6.69-10.83c-4.42-2.98-10.4-4.79-17.95-5.44
			c-7.55-0.65-16.37,0.32-26.44,2.9l0,113.91L1532.77,739.15z"/>
		<path class="st1" d="M1639.05,739.15h-16.44V625.24c0,0.09-0.86-0.56-2.58-1.95c-1.72-1.4-3.44-2.81-5.17-4.26
			c-1.73-1.44-2.59-2.16-2.58-2.16h27.51c5.54-0.23,11.09-0.25,16.67-0.05c5.58,0.18,10.93,0.44,16.07,0.78
			c5.14,0.34,9.91,1.06,14.34,2.16c4.42,1.1,8.25,2.47,11.48,4.1c3.23,1.63,5.73,3.83,7.5,6.59c1.77,2.76,2.57,5.97,2.4,9.63
			c-0.26,5.42-3.66,10.05-10.2,13.89c-6.55,3.84-16.6,6.1-30.17,6.77c5.92,0.5,11.08,1.94,15.5,4.33c4.42,2.39,7.85,5.33,10.28,8.83
			c2.44,3.5,4.53,7.41,6.26,11.75c1.74,4.33,2.96,8.71,3.66,13.12s1.45,8.72,2.24,12.92c0.79,4.2,1.53,7.92,2.23,11.17
			c0.7,3.25,1.83,5.86,3.4,7.84c1.57,1.98,3.56,2.96,5.97,2.96v5.49c-4.91-0.19-9.13-1.22-12.67-3.07
			c-3.54-1.85-6.33-4.27-8.36-7.26s-3.76-6.39-5.16-10.21c-1.4-3.82-2.61-7.84-3.62-12.05c-1.01-4.21-2.06-8.43-3.15-12.65
			c-1.09-4.22-2.54-8.27-4.34-12.14c-1.8-3.87-4-7.33-6.6-10.38c-2.6-3.05-6.11-5.56-10.53-7.52c-4.42-1.96-9.61-3.1-15.56-3.42
			v-0.75v-4.9c6.41,0.46,12.28,0.49,17.62,0.09c5.34-0.4,9.93-1.17,13.76-2.31c3.84-1.14,6.82-2.89,8.93-5.25
			c2.12-2.36,3.16-5.27,3.12-8.72c-0.04-4.24-2.27-7.85-6.69-10.83c-4.42-2.98-10.4-4.79-17.95-5.44
			c-7.55-0.65-16.37,0.32-26.44,2.9l0,113.91L1639.05,739.15z"/>
		<path class="st1" d="M1726.32,623.2c-1.72-1.4-3.44-2.82-5.17-4.26c-1.73-1.44-2.59-2.17-2.58-2.17h84.23v27.81
			c-4.97-14.79-12.48-22.5-22.53-23.14h-34.16v32.7h40.74v5.49h-40.74v74.07c3.7-0.03,8.7-0.05,14.99-0.05
			c5.62,0,9.64-0.01,12.06-0.02c2.43-0.01,5.47-0.14,9.14-0.39c3.66-0.25,6.15-0.54,7.45-0.86c1.3-0.32,3.07-0.93,5.32-1.83
			c2.24-0.9,3.76-1.86,4.54-2.87c0.78-1.02,1.89-2.49,3.31-4.42c1.43-1.93,2.57-3.95,3.44-6.04c0.87-2.09,1.94-4.8,3.23-8.14v30.07
			h-80.69v-114C1728.9,625.25,1728.05,624.59,1726.32,623.2z"/>
		<path class="st1" d="M1916.62,646.94c-3.68-7.65-8.61-13.55-14.79-17.71c-6.18-4.16-12.6-6.44-19.26-6.83
			c-6.67-0.39-13.4,0.68-20.2,3.22c-6.8,2.54-12.81,6.23-18.01,11.06s-9.29,10.88-12.25,18.16c-2.97,7.28-4.08,14.99-3.34,23.13
			c0.63,6.91,2.41,13.53,5.33,19.85c2.93,6.32,6.84,12.01,11.73,17.07c4.89,5.06,11.06,9.07,18.5,12.03
			c7.44,2.96,15.59,4.37,24.45,4.25c3.68-0.05,7.23-0.22,10.64-0.5l0-76.5h17.21v77.55v0.48c-10.41,4.65-21.52,6.97-33.34,6.97
			c-13.01,0-25.04-2.73-36.07-8.19c-11.04-5.46-19.76-12.89-26.17-22.29c-6.41-9.4-9.62-19.63-9.63-30.71
			c-0.01-9.49,1.97-18.16,5.93-26.03c3.96-7.87,9.4-14.35,16.32-19.43c6.92-5.09,14.8-9.03,23.65-11.84
			c8.85-2.8,18.42-4.12,28.72-3.95c10.3,0.17,20.54,1.82,30.73,4.93L1916.62,646.94z"/>
		<path class="st1" d="M1924.77,616.77h27.57v117.02c2.78,0,6.61,0.01,11.48,0.04c7.3,0.04,12.42,0.06,15.36,0.06
			c2.94,0,6.45-0.31,10.53-0.93c4.08-0.62,6.77-1.27,8.07-1.97c1.31-0.7,3.22-2.17,5.75-4.42c2.53-2.25,4.51-4.52,5.94-6.83
			c1.43-2.31,3.57-5.83,6.42-10.55v25.17v4.93h-80.78V625.16L1924.77,616.77z"/>
		<path class="st1" d="M2121.5,624.96c10.61,5.46,19,12.89,25.17,22.29c6.17,9.4,9.25,19.63,9.25,30.71s-3.08,21.32-9.25,30.72
			c-6.17,9.4-14.56,16.82-25.17,22.29c-10.61,5.46-22.17,8.19-34.69,8.19c-12.51,0-24.07-2.73-34.68-8.19
			c-10.62-5.46-19-12.89-25.17-22.29c-6.17-9.4-9.25-19.64-9.25-30.72s3.08-21.32,9.25-30.71c6.16-9.4,14.55-16.83,25.17-22.29
			c10.61-5.46,22.17-8.19,34.68-8.19C2099.32,616.77,2110.88,619.5,2121.5,624.96z M2055.67,632.3
			c-6.85,5.04-11.76,11.05-14.74,18.02c-2.98,6.97-4.86,14.48-5.66,22.53c-0.79,8.05,0.2,15.85,2.97,23.42
			c2.77,7.56,6.46,14.31,11.08,20.25c4.62,5.94,10.86,10.42,18.74,13.45c7.88,3.03,16.51,3.91,25.9,2.63
			c9.33-1.27,17.41-4.43,24.22-9.46c6.81-5.04,11.7-11.04,14.65-18.01c2.96-6.97,4.82-14.48,5.6-22.53
			c0.78-8.05-0.22-15.85-2.99-23.41c-2.77-7.56-6.45-14.31-11.06-20.25c-4.6-5.94-10.81-10.43-18.65-13.46
			c-7.83-3.04-16.41-3.92-25.73-2.65C2070.63,624.1,2062.52,627.25,2055.67,632.3z"/>
	</g>
	<g>
		<linearGradient id="SVGID_43_" gradientUnits="userSpaceOnUse" x1="1674.2736" y1="468.3337" x2="1798.1085" y2="381.6235">
			<stop  offset="0.0629" style="stop-color:#FFB71B"/>
			<stop  offset="0.3007" style="stop-color:#FFFFFF"/>
			<stop  offset="1" style="stop-color:#FFB71B"/>
		</linearGradient>
		<path class="st45" d="M1836.85,353.3h-112.62v81.25h112.62V353.3z M1730.68,428.1v-68.35h99.72v68.35H1730.68z"/>
		<linearGradient id="SVGID_44_" gradientUnits="userSpaceOnUse" x1="1708.5222" y1="513.2783" x2="1831.4495" y2="427.2037">
			<stop  offset="0.0629" style="stop-color:#FFB71B"/>
			<stop  offset="0.3007" style="stop-color:#FFFFFF"/>
			<stop  offset="1" style="stop-color:#FFB71B"/>
		</linearGradient>
		<path class="st46" d="M1879.22,375.58h-32.31v58.97h32.31V375.58z M1853.36,428.1v-46.07h19.41v46.07H1853.36z"/>
		<linearGradient id="SVGID_45_" gradientUnits="userSpaceOnUse" x1="1683.2211" y1="480.7144" x2="1807.071" y2="393.9937">
			<stop  offset="0.0629" style="stop-color:#FFB71B"/>
			<stop  offset="0.3007" style="stop-color:#FFFFFF"/>
			<stop  offset="1" style="stop-color:#FFB71B"/>
		</linearGradient>
		<path class="st47" d="M1863.07,368.86c7.76,0,14.08-6.31,14.08-14.08c0-7.76-6.31-14.08-14.08-14.08
			c-7.76,0-14.08,6.31-14.08,14.08C1848.99,362.55,1855.3,368.86,1863.07,368.86z M1863.07,347.16c4.2,0,7.63,3.42,7.63,7.63
			s-3.42,7.63-7.63,7.63c-4.2,0-7.63-3.42-7.63-7.63S1858.86,347.16,1863.07,347.16z"/>
		<linearGradient id="SVGID_46_" gradientUnits="userSpaceOnUse" x1="1723.0573" y1="532.9264" x2="1845.9844" y2="446.8518">
			<stop  offset="0.0629" style="stop-color:#FFB71B"/>
			<stop  offset="0.3007" style="stop-color:#FFFFFF"/>
			<stop  offset="1" style="stop-color:#FFB71B"/>
		</linearGradient>
		<path class="st48" d="M1889.51,375.58v58.97h32.31v-58.97H1889.51z M1895.96,428.1v-46.07h19.41v46.07H1895.96z"/>
		<linearGradient id="SVGID_47_" gradientUnits="userSpaceOnUse" x1="1697.5459" y1="500.51" x2="1821.3958" y2="413.7894">
			<stop  offset="0.0629" style="stop-color:#FFB71B"/>
			<stop  offset="0.3007" style="stop-color:#FFFFFF"/>
			<stop  offset="1" style="stop-color:#FFB71B"/>
		</linearGradient>
		<path class="st49" d="M1905.66,368.86c7.76,0,14.08-6.31,14.08-14.08c0-7.76-6.31-14.08-14.08-14.08s-14.08,6.31-14.08,14.08
			C1891.59,362.55,1897.9,368.86,1905.66,368.86z M1905.66,347.16c4.2,0,7.63,3.42,7.63,7.63s-3.42,7.63-7.63,7.63
			c-4.2,0-7.63-3.42-7.63-7.63S1901.46,347.16,1905.66,347.16z"/>
		<linearGradient id="SVGID_48_" gradientUnits="userSpaceOnUse" x1="1682.0869" y1="479.2297" x2="1805.6135" y2="392.7355">
			<stop  offset="0.0629" style="stop-color:#FFB71B"/>
			<stop  offset="0.3007" style="stop-color:#FFFFFF"/>
			<stop  offset="1" style="stop-color:#FFB71B"/>
		</linearGradient>
		<path class="st50" d="M1714.17,447.88v-3.23h-23.23v3.23c0,26.69-21.71,48.4-48.4,48.4h-3.23v23.23h3.23
			C1682.03,519.52,1714.17,487.38,1714.17,447.88z M1649.42,502.25c0.98-0.12,1.95-0.27,2.91-0.45c0.78-0.14,1.55-0.29,2.31-0.46
			c0.96-0.22,1.9-0.47,2.84-0.73c0.74-0.21,1.47-0.42,2.2-0.66c0.94-0.31,1.86-0.66,2.77-1.02c0.69-0.27,1.38-0.53,2.06-0.83
			c0.93-0.41,1.82-0.86,2.72-1.31c0.63-0.32,1.26-0.62,1.88-0.96c0.93-0.52,1.82-1.08,2.71-1.65c0.54-0.35,1.1-0.67,1.63-1.03
			c0.98-0.67,1.92-1.4,2.85-2.13c0.4-0.32,0.82-0.6,1.22-0.93c2.62-2.18,5.03-4.59,7.21-7.21c0.32-0.39,0.6-0.8,0.92-1.2
			c0.74-0.94,1.47-1.88,2.15-2.87c0.36-0.53,0.68-1.08,1.02-1.62c0.57-0.9,1.14-1.8,1.66-2.73c0.34-0.6,0.63-1.23,0.95-1.85
			c0.46-0.91,0.92-1.82,1.33-2.76c0.29-0.67,0.55-1.35,0.82-2.03c0.36-0.93,0.72-1.85,1.03-2.8c0.24-0.71,0.44-1.44,0.65-2.17
			c0.27-0.95,0.52-1.91,0.74-2.88c0.17-0.75,0.32-1.51,0.46-2.27c0.18-0.98,0.33-1.97,0.45-2.96c0.1-0.78,0.18-1.56,0.25-2.35
			c0.04-0.43,0.11-0.85,0.14-1.29h10.35c-1.63,33.38-28.5,60.25-61.88,61.88v-10.35c0.42-0.02,0.84-0.1,1.26-0.13
			C1647.82,502.44,1648.62,502.35,1649.42,502.25z"/>
		<linearGradient id="SVGID_49_" gradientUnits="userSpaceOnUse" x1="1663.6854" y1="453.5938" x2="1787.212" y2="367.0996">
			<stop  offset="0.0629" style="stop-color:#FFB71B"/>
			<stop  offset="0.3007" style="stop-color:#FFFFFF"/>
			<stop  offset="1" style="stop-color:#FFB71B"/>
		</linearGradient>
		<path class="st51" d="M1680.66,447.88v-3.23h-41.35v41.35h3.23C1663.56,486.01,1680.66,468.9,1680.66,447.88z M1645.76,479.4
			v-28.29h28.29C1672.53,466,1660.66,477.88,1645.76,479.4z"/>
		<linearGradient id="SVGID_50_" gradientUnits="userSpaceOnUse" x1="1738.5366" y1="557.6051" x2="1863.533" y2="470.0818">
			<stop  offset="0.0629" style="stop-color:#FFB71B"/>
			<stop  offset="0.3007" style="stop-color:#FFFFFF"/>
			<stop  offset="1" style="stop-color:#FFB71B"/>
		</linearGradient>
		<path class="st52" d="M1878.92,519.99c-10.53-5.95-19.78-14.39-26.75-24.38c-9.72-13.96-14.86-30.46-14.86-47.73v-3.23h-113.55
			v3.23c0,17.25-5.13,33.75-14.84,47.7l-0.02,0.03c-6.96,10-16.21,18.43-26.74,24.38c-12.04,6.81-25.74,10.42-39.63,10.44l-3.22,0
			v22.16h282.46v-22.16l-3.22,0C1904.66,530.41,1890.96,526.8,1878.92,519.99z M1725.97,475.33h109.15
			c2.09,6.59,4.9,12.94,8.49,18.9h-62.78h-10.96h-52.38C1721.06,488.26,1723.88,481.92,1725.97,475.33z M1830.92,451.11
			c0.21,6.05,1.03,11.99,2.4,17.77h-105.55c1.37-5.78,2.19-11.72,2.4-17.77H1830.92z M1713.21,500.68h56.65h10.96h67.04
			c5.22,7.19,11.55,13.59,18.65,18.9h-85.69h-10.96h-75.29C1701.67,514.27,1707.99,507.87,1713.21,500.68z M1769.86,526.02h10.96
			h95.67c11.89,6.56,25.23,10.27,38.83,10.79v9.33h-269.56v-9.33c13.6-0.52,26.94-4.23,38.83-10.79H1769.86z"/>
		<linearGradient id="SVGID_51_" gradientUnits="userSpaceOnUse" x1="1749.8221" y1="576.2778" x2="1875.391" y2="488.3535">
			<stop  offset="0.0629" style="stop-color:#FFB71B"/>
			<stop  offset="0.3007" style="stop-color:#FFFFFF"/>
			<stop  offset="1" style="stop-color:#FFB71B"/>
		</linearGradient>
		<path class="st53" d="M1870.14,447.88v-3.23h-23.23v3.23c0,39.5,32.14,71.64,71.64,71.64h3.23v-23.23h-3.23
			C1891.86,496.28,1870.14,474.57,1870.14,447.88z M1884.75,491c0.94,0.74,1.88,1.47,2.87,2.15c0.53,0.36,1.08,0.68,1.62,1.03
			c0.9,0.57,1.79,1.14,2.72,1.66c0.61,0.34,1.25,0.64,1.87,0.96c0.9,0.46,1.8,0.91,2.73,1.32c0.68,0.3,1.37,0.56,2.06,0.83
			c0.92,0.36,1.83,0.71,2.77,1.02c0.73,0.24,1.46,0.45,2.2,0.66c0.94,0.27,1.88,0.52,2.84,0.73c0.76,0.17,1.53,0.32,2.31,0.46
			c0.96,0.17,1.93,0.32,2.91,0.45c0.8,0.1,1.6,0.19,2.4,0.25c0.42,0.03,0.83,0.11,1.26,0.13v10.35
			c-33.38-1.63-60.25-28.5-61.88-61.88h10.35c0.02,0.43,0.1,0.84,0.13,1.26c0.07,0.8,0.15,1.6,0.25,2.4
			c0.12,0.98,0.27,1.96,0.45,2.92c0.14,0.77,0.29,1.54,0.46,2.29c0.22,0.96,0.47,1.91,0.74,2.86c0.21,0.73,0.42,1.46,0.65,2.18
			c0.31,0.95,0.66,1.87,1.02,2.79c0.27,0.68,0.53,1.37,0.82,2.04c0.41,0.94,0.87,1.85,1.33,2.75c0.31,0.62,0.61,1.24,0.95,1.85
			c0.52,0.94,1.1,1.84,1.67,2.75c0.34,0.53,0.66,1.08,1.01,1.6c0.68,0.99,1.42,1.94,2.16,2.89c0.31,0.39,0.59,0.8,0.9,1.18
			c2.18,2.62,4.59,5.04,7.21,7.21C1883.94,490.4,1884.36,490.69,1884.75,491z"/>
		<linearGradient id="SVGID_52_" gradientUnits="userSpaceOnUse" x1="1749.0741" y1="571.7793" x2="1872.8898" y2="485.0827">
			<stop  offset="0.0629" style="stop-color:#FFB71B"/>
			<stop  offset="0.3007" style="stop-color:#FFFFFF"/>
			<stop  offset="1" style="stop-color:#FFB71B"/>
		</linearGradient>
		<path class="st54" d="M1880.42,447.88c0,21.02,17.1,38.13,38.13,38.13h3.23v-41.35h-41.35V447.88z M1915.32,451.11v28.29
			c-14.9-1.51-26.77-13.39-28.29-28.29H1915.32z"/>
		<linearGradient id="SVGID_53_" gradientUnits="userSpaceOnUse" x1="1652.2166" y1="437.1653" x2="1775.1438" y2="351.0908">
			<stop  offset="0.0629" style="stop-color:#FFB71B"/>
			<stop  offset="0.3007" style="stop-color:#FFFFFF"/>
			<stop  offset="1" style="stop-color:#FFB71B"/>
		</linearGradient>
		<path class="st55" d="M1714.21,375.58h-32.31v58.97h32.31V375.58z M1688.36,428.1v-46.07h19.41v46.07H1688.36z"/>
		<linearGradient id="SVGID_54_" gradientUnits="userSpaceOnUse" x1="1627.7316" y1="404.0303" x2="1751.5815" y2="317.3096">
			<stop  offset="0.0629" style="stop-color:#FFB71B"/>
			<stop  offset="0.3007" style="stop-color:#FFFFFF"/>
			<stop  offset="1" style="stop-color:#FFB71B"/>
		</linearGradient>
		<path class="st56" d="M1698.06,368.86c7.76,0,14.08-6.31,14.08-14.08c0-7.76-6.31-14.08-14.08-14.08s-14.08,6.31-14.08,14.08
			C1683.98,362.55,1690.3,368.86,1698.06,368.86z M1698.06,347.16c4.2,0,7.63,3.42,7.63,7.63s-3.42,7.63-7.63,7.63
			c-4.2,0-7.63-3.42-7.63-7.63S1693.86,347.16,1698.06,347.16z"/>
		<linearGradient id="SVGID_55_" gradientUnits="userSpaceOnUse" x1="1637.6813" y1="417.5168" x2="1760.6085" y2="331.4423">
			<stop  offset="0.0629" style="stop-color:#FFB71B"/>
			<stop  offset="0.3007" style="stop-color:#FFFFFF"/>
			<stop  offset="1" style="stop-color:#FFB71B"/>
		</linearGradient>
		<path class="st57" d="M1671.62,375.58h-32.31v58.97h32.31V375.58z M1645.76,428.1v-46.07h19.41v46.07H1645.76z"/>
		<linearGradient id="SVGID_56_" gradientUnits="userSpaceOnUse" x1="1613.407" y1="384.2343" x2="1737.257" y2="297.5136">
			<stop  offset="0.0629" style="stop-color:#FFB71B"/>
			<stop  offset="0.3007" style="stop-color:#FFFFFF"/>
			<stop  offset="1" style="stop-color:#FFB71B"/>
		</linearGradient>
		<path class="st58" d="M1655.46,368.86c7.76,0,14.08-6.31,14.08-14.08c0-7.76-6.31-14.08-14.08-14.08s-14.08,6.31-14.08,14.08
			C1641.39,362.55,1647.7,368.86,1655.46,368.86z M1655.46,347.16c4.2,0,7.63,3.42,7.63,7.63s-3.42,7.63-7.63,7.63
			c-4.2,0-7.63-3.42-7.63-7.63S1651.26,347.16,1655.46,347.16z"/>
	</g>
</g>
<rect x="-2447.72" y="-140.45" class="st59" width="143.71" height="83.27"/>
<rect x="-2286.05" y="-140.45" class="st60" width="143.7" height="83.27"/>
<rect x="-1962.72" y="-140.45" class="st61" width="143.71" height="83.27"/>
<rect x="-2124.38" y="-140.45" class="st62" width="143.7" height="83.27"/>
<rect x="-1801.05" y="-140.45" class="st1" width="143.7" height="83.27"/>
</svg>
