<?xml version="1.0" encoding="utf-8"?>
<!-- Generator: Adobe Illustrator 24.0.2, SVG Export Plug-In . SVG Version: 6.00 Build 0)  -->
<svg version="1.1" id="Layer_1" xmlns="http://www.w3.org/2000/svg" xmlns:xlink="http://www.w3.org/1999/xlink" x="0px" y="0px"
	 viewBox="0 0 1200 720" style="enable-background:new 0 0 1200 720;" xml:space="preserve">
<style type="text/css">
	.st0{fill:#006646;}
	.st1{fill:#FEAEBB;}
	.st2{fill:#FF8D6B;}
	.st3{fill:#009845;}
	.st4{fill:#FFB71B;}
	.st5{fill:#FFFFFF;}
	.st6{fill:url(#SVGID_1_);}
	.st7{fill:url(#SVGID_2_);}
	.st8{fill:url(#SVGID_3_);}
	.st9{fill:url(#SVGID_4_);}
	.st10{fill:url(#SVGID_5_);}
	.st11{fill:url(#SVGID_6_);}
	.st12{fill:url(#SVGID_7_);}
	.st13{fill:url(#SVGID_8_);}
	.st14{fill:url(#SVGID_9_);}
	.st15{fill:url(#SVGID_10_);}
	.st16{fill:url(#SVGID_11_);}
	.st17{fill:url(#SVGID_12_);}
	.st18{fill:url(#SVGID_13_);}
	.st19{fill:url(#SVGID_14_);}
	.st20{fill:url(#SVGID_15_);}
	.st21{fill:url(#SVGID_16_);}
	.st22{fill:url(#SVGID_17_);}
	.st23{fill:url(#SVGID_18_);}
	.st24{fill:url(#SVGID_19_);}
	.st25{fill:url(#SVGID_20_);}
	.st26{fill:url(#SVGID_21_);}
	.st27{fill:url(#SVGID_22_);}
	.st28{fill:url(#SVGID_23_);}
	.st29{fill:url(#SVGID_24_);}
	.st30{fill:url(#SVGID_25_);}
	.st31{fill:url(#SVGID_26_);}
	.st32{fill:url(#SVGID_27_);}
	.st33{fill:url(#SVGID_28_);}
	.st34{fill:url(#SVGID_29_);}
	.st35{fill:url(#SVGID_30_);}
	.st36{fill:url(#SVGID_31_);}
	.st37{fill:url(#SVGID_32_);}
	.st38{fill:url(#SVGID_33_);}
	.st39{fill:url(#SVGID_34_);}
	.st40{fill:url(#SVGID_35_);}
	.st41{fill:url(#SVGID_36_);}
	.st42{fill:url(#SVGID_37_);}
	.st43{fill:url(#SVGID_38_);}
	.st44{fill:url(#SVGID_39_);}
	.st45{fill:url(#SVGID_40_);}
	.st46{fill:url(#SVGID_41_);}
	.st47{fill:url(#SVGID_42_);}
	.st48{fill:url(#SVGID_43_);}
	.st49{fill:url(#SVGID_44_);}
	.st50{fill:url(#SVGID_45_);}
	.st51{fill:url(#SVGID_46_);}
	.st52{fill:url(#SVGID_47_);}
	.st53{fill:url(#SVGID_48_);}
	.st54{fill:url(#SVGID_49_);}
	.st55{fill:url(#SVGID_50_);}
	.st56{fill:url(#SVGID_51_);}
	.st57{fill:url(#SVGID_52_);}
	.st58{fill:url(#SVGID_53_);}
	.st59{fill:url(#SVGID_54_);}
	.st60{fill:url(#SVGID_55_);}
	.st61{fill:url(#SVGID_56_);}
</style>
<g>
	<g>
		<path class="st0" d="M303.06,434.29l-9.57-6.35c7.43,0,13.57,0,18.43,0.01c4.86,0.01,8.61,0.01,11.27,0.01l33.2,108.4h-15.25
			l-21.57-70.44h-19.8L278.2,529l13.73,7.37h-24.06L303.06,434.29z M310.21,435.37l-8.78,25.69h16.65L310.21,435.37z"/>
		<path class="st0" d="M380.66,536.24h-14.55v-100.8c0,0.08-0.76-0.49-2.28-1.73c-1.52-1.24-3.04-2.49-4.57-3.77
			c-1.53-1.28-2.29-1.92-2.28-1.92h24.35c4.9-0.21,9.82-0.22,14.75-0.05c4.93,0.16,9.67,0.39,14.22,0.69
			c4.54,0.3,8.77,0.94,12.69,1.91c3.91,0.98,7.3,2.18,10.16,3.63c2.86,1.44,5.07,3.39,6.64,5.83c1.57,2.44,2.27,5.28,2.12,8.52
			c-0.23,4.8-3.24,8.89-9.03,12.29c-5.79,3.4-14.69,5.4-26.7,6c5.24,0.44,9.81,1.72,13.72,3.83c3.91,2.11,6.94,4.72,9.1,7.81
			s4.01,6.56,5.54,10.4c1.54,3.83,2.62,7.71,3.24,11.61c0.62,3.91,1.28,7.72,1.98,11.43c0.7,3.71,1.35,7.01,1.97,9.89
			c0.62,2.88,1.62,5.19,3.01,6.94c1.39,1.75,3.15,2.62,5.28,2.62v4.86c-4.34-0.17-8.08-1.08-11.22-2.72
			c-3.13-1.64-5.6-3.78-7.4-6.42c-1.8-2.64-3.32-5.65-4.57-9.03s-2.31-6.94-3.2-10.66c-0.89-3.73-1.82-7.46-2.79-11.19
			c-0.96-3.74-2.25-7.32-3.84-10.74c-1.6-3.43-3.54-6.49-5.84-9.19c-2.3-2.7-5.41-4.92-9.32-6.66c-3.91-1.74-8.5-2.75-13.77-3.03
			v-0.66v-4.33c5.67,0.41,10.87,0.44,15.59,0.08s8.79-1.04,12.18-2.05c3.4-1.01,6.03-2.56,7.91-4.65s2.79-4.66,2.76-7.72
			c-0.04-3.75-2.01-6.95-5.92-9.58c-3.91-2.64-9.2-4.24-15.89-4.81s-14.48,0.28-23.4,2.57l0,100.8L380.66,536.24z"/>
		<path class="st0" d="M474.72,536.24h-14.55v-100.8c0,0.08-0.76-0.49-2.28-1.73c-1.52-1.24-3.04-2.49-4.57-3.77
			c-1.53-1.28-2.29-1.92-2.28-1.92h24.35c4.9-0.21,9.82-0.22,14.75-0.05c4.93,0.16,9.67,0.39,14.22,0.69
			c4.54,0.3,8.77,0.94,12.69,1.91c3.91,0.98,7.3,2.18,10.16,3.63c2.86,1.44,5.07,3.39,6.64,5.83c1.57,2.44,2.27,5.28,2.12,8.52
			c-0.23,4.8-3.24,8.89-9.03,12.29c-5.79,3.4-14.69,5.4-26.7,6c5.24,0.44,9.81,1.72,13.72,3.83c3.91,2.11,6.94,4.72,9.1,7.81
			s4.01,6.56,5.54,10.4c1.54,3.83,2.62,7.71,3.24,11.61c0.62,3.91,1.28,7.72,1.98,11.43c0.7,3.71,1.35,7.01,1.97,9.89
			c0.62,2.88,1.62,5.19,3.01,6.94c1.39,1.75,3.15,2.62,5.28,2.62v4.86c-4.34-0.17-8.08-1.08-11.22-2.72
			c-3.13-1.64-5.6-3.78-7.4-6.42c-1.8-2.64-3.32-5.65-4.57-9.03s-2.31-6.94-3.2-10.66c-0.89-3.73-1.82-7.46-2.79-11.19
			c-0.96-3.74-2.25-7.32-3.84-10.74c-1.6-3.43-3.54-6.49-5.84-9.19c-2.3-2.7-5.41-4.92-9.32-6.66c-3.91-1.74-8.5-2.75-13.77-3.03
			v-0.66v-4.33c5.67,0.41,10.87,0.44,15.59,0.08s8.79-1.04,12.18-2.05c3.4-1.01,6.03-2.56,7.91-4.65c1.87-2.09,2.79-4.66,2.76-7.72
			c-0.04-3.75-2.01-6.95-5.92-9.58s-9.2-4.24-15.89-4.81s-14.48,0.28-23.4,2.57l0,100.8L474.72,536.24z"/>
		<path class="st0" d="M551.96,433.63c-1.52-1.24-3.05-2.49-4.57-3.77c-1.53-1.28-2.29-1.92-2.28-1.92h74.55v24.61
			c-4.4-13.09-11.04-19.91-19.94-20.47h-30.23v28.94h36.05v4.86h-36.05v65.55c3.28-0.03,7.7-0.04,13.27-0.05
			c4.97,0,8.53-0.01,10.67-0.02c2.15-0.01,4.84-0.13,8.09-0.35c3.24-0.22,5.44-0.47,6.6-0.76c1.15-0.28,2.72-0.83,4.71-1.62
			c1.99-0.8,3.33-1.64,4.02-2.54c0.69-0.9,1.67-2.2,2.93-3.92c1.26-1.71,2.28-3.49,3.04-5.34c0.77-1.85,1.72-4.25,2.86-7.2v26.61
			h-71.41V435.36C554.24,435.44,553.48,434.86,551.96,433.63z"/>
		<path class="st0" d="M720.36,454.64c-3.26-6.77-7.62-11.99-13.09-15.67c-5.47-3.68-11.15-5.7-17.05-6.05
			c-5.9-0.35-11.86,0.6-17.88,2.85c-6.02,2.25-11.33,5.51-15.94,9.78c-4.61,4.27-8.22,9.63-10.85,16.07
			c-2.62,6.44-3.61,13.26-2.96,20.47c0.56,6.12,2.13,11.97,4.72,17.56c2.59,5.59,6.05,10.63,10.38,15.11
			c4.33,4.48,9.79,8.03,16.37,10.65c6.58,2.62,13.79,3.87,21.64,3.76c3.25-0.05,6.4-0.2,9.42-0.45l0-67.7h15.23v68.63v0.43
			c-9.21,4.11-19.05,6.17-29.51,6.17c-11.52,0-22.16-2.42-31.93-7.25c-9.77-4.83-17.49-11.41-23.16-19.72
			c-5.68-8.31-8.52-17.38-8.52-27.18c-0.01-8.4,1.74-16.07,5.25-23.04c3.51-6.96,8.32-12.7,14.44-17.2
			c6.12-4.5,13.1-7.99,20.93-10.47c7.83-2.48,16.3-3.65,25.41-3.5c9.11,0.15,18.18,1.61,27.19,4.37L720.36,454.64z"/>
		<path class="st0" d="M727.58,427.94h24.4V531.5c2.46,0,5.85,0.01,10.16,0.04c6.46,0.04,10.99,0.05,13.6,0.05s5.71-0.28,9.32-0.82
			c3.61-0.55,5.99-1.13,7.14-1.74c1.16-0.62,2.85-1.92,5.09-3.91c2.24-1.99,3.99-4,5.26-6.04c1.27-2.04,3.16-5.16,5.68-9.34V532
			v4.37h-71.49v-101L727.58,427.94z"/>
		<path class="st0" d="M901.68,435.19c9.39,4.83,16.82,11.41,22.27,19.72c5.46,8.32,8.19,17.38,8.19,27.18s-2.73,18.87-8.19,27.18
			c-5.46,8.32-12.88,14.89-22.27,19.72c-9.39,4.83-19.62,7.25-30.7,7.25c-11.07,0-21.3-2.42-30.69-7.25
			c-9.39-4.83-16.82-11.41-22.27-19.72c-5.46-8.32-8.19-17.38-8.19-27.18s2.73-18.87,8.19-27.18c5.45-8.32,12.88-14.89,22.27-19.72
			c9.39-4.83,19.62-7.25,30.69-7.25C882.05,427.94,892.29,430.36,901.68,435.19z M843.42,441.68c-6.06,4.46-10.41,9.78-13.05,15.95
			c-2.63,6.17-4.31,12.82-5.01,19.94c-0.7,7.12,0.17,14.03,2.62,20.72c2.45,6.69,5.72,12.67,9.8,17.92
			c4.09,5.25,9.61,9.22,16.59,11.9c6.97,2.68,14.61,3.46,22.92,2.33c8.26-1.13,15.41-3.92,21.43-8.37
			c6.03-4.46,10.35-9.77,12.97-15.93c2.62-6.17,4.26-12.81,4.95-19.93c0.69-7.12-0.2-14.03-2.64-20.72
			c-2.45-6.69-5.71-12.67-9.78-17.92c-4.07-5.26-9.57-9.23-16.51-11.92c-6.93-2.69-14.52-3.47-22.77-2.34
			C856.66,434.42,849.48,437.22,843.42,441.68z"/>
	</g>
	<g>
		<linearGradient id="SVGID_1_" gradientUnits="userSpaceOnUse" x1="505.8914" y1="296.5765" x2="615.4833" y2="219.8394">
			<stop  offset="0.0629" style="stop-color:#FFB71B"/>
			<stop  offset="0.3007" style="stop-color:#FFFFFF"/>
			<stop  offset="1" style="stop-color:#FFB71B"/>
		</linearGradient>
		<path class="st6" d="M649.77,194.77H550.1v71.91h99.67V194.77z M555.81,260.97v-60.49h88.25v60.49H555.81z"/>
		<linearGradient id="SVGID_2_" gradientUnits="userSpaceOnUse" x1="536.2009" y1="336.3517" x2="644.9894" y2="260.1772">
			<stop  offset="0.0629" style="stop-color:#FFB71B"/>
			<stop  offset="0.3007" style="stop-color:#FFFFFF"/>
			<stop  offset="1" style="stop-color:#FFB71B"/>
		</linearGradient>
		<path class="st7" d="M687.27,214.49h-28.59v52.19h28.59V214.49z M664.38,260.97V220.2h17.18v40.77H664.38z"/>
		<linearGradient id="SVGID_3_" gradientUnits="userSpaceOnUse" x1="513.8099" y1="307.5332" x2="623.415" y2="230.7869">
			<stop  offset="0.0629" style="stop-color:#FFB71B"/>
			<stop  offset="0.3007" style="stop-color:#FFFFFF"/>
			<stop  offset="1" style="stop-color:#FFB71B"/>
		</linearGradient>
		<path class="st8" d="M672.97,208.55c6.87,0,12.46-5.59,12.46-12.46c0-6.87-5.59-12.46-12.46-12.46c-6.87,0-12.46,5.59-12.46,12.46
			C660.51,202.96,666.1,208.55,672.97,208.55z M672.97,189.34c3.72,0,6.75,3.03,6.75,6.75s-3.03,6.75-6.75,6.75
			s-6.75-3.03-6.75-6.75S669.25,189.34,672.97,189.34z"/>
		<linearGradient id="SVGID_4_" gradientUnits="userSpaceOnUse" x1="549.0642" y1="353.74" x2="657.8527" y2="277.5654">
			<stop  offset="0.0629" style="stop-color:#FFB71B"/>
			<stop  offset="0.3007" style="stop-color:#FFFFFF"/>
			<stop  offset="1" style="stop-color:#FFB71B"/>
		</linearGradient>
		<path class="st9" d="M696.37,214.49v52.19h28.59v-52.19H696.37z M702.08,260.97V220.2h17.18v40.77H702.08z"/>
		<linearGradient id="SVGID_5_" gradientUnits="userSpaceOnUse" x1="526.4871" y1="325.052" x2="636.0921" y2="248.3058">
			<stop  offset="0.0629" style="stop-color:#FFB71B"/>
			<stop  offset="0.3007" style="stop-color:#FFFFFF"/>
			<stop  offset="1" style="stop-color:#FFB71B"/>
		</linearGradient>
		<path class="st10" d="M710.67,208.55c6.87,0,12.46-5.59,12.46-12.46c0-6.87-5.59-12.46-12.46-12.46s-12.46,5.59-12.46,12.46
			C698.21,202.96,703.8,208.55,710.67,208.55z M710.67,189.34c3.72,0,6.75,3.03,6.75,6.75s-3.03,6.75-6.75,6.75
			s-6.75-3.03-6.75-6.75S706.95,189.34,710.67,189.34z"/>
		<linearGradient id="SVGID_6_" gradientUnits="userSpaceOnUse" x1="512.8062" y1="306.2193" x2="622.1251" y2="229.6734">
			<stop  offset="0.0629" style="stop-color:#FFB71B"/>
			<stop  offset="0.3007" style="stop-color:#FFFFFF"/>
			<stop  offset="1" style="stop-color:#FFB71B"/>
		</linearGradient>
		<path class="st11" d="M541.2,278.48v-2.85h-20.56v2.85c0,23.62-19.22,42.84-42.83,42.84h-2.85v20.56h2.85
			C512.76,341.87,541.2,313.43,541.2,278.48z M483.9,326.59c0.87-0.11,1.72-0.24,2.58-0.39c0.69-0.12,1.37-0.26,2.04-0.41
			c0.85-0.19,1.68-0.41,2.51-0.65c0.65-0.19,1.3-0.37,1.95-0.58c0.83-0.27,1.64-0.58,2.45-0.9c0.61-0.24,1.22-0.47,1.82-0.73
			c0.82-0.36,1.61-0.76,2.41-1.16c0.56-0.28,1.12-0.55,1.66-0.85c0.82-0.46,1.61-0.96,2.4-1.46c0.48-0.31,0.98-0.59,1.45-0.91
			c0.87-0.59,1.7-1.24,2.52-1.89c0.36-0.28,0.73-0.53,1.08-0.82c2.32-1.93,4.45-4.06,6.38-6.38c0.28-0.34,0.54-0.71,0.81-1.06
			c0.65-0.83,1.3-1.67,1.9-2.54c0.32-0.47,0.6-0.96,0.91-1.43c0.51-0.8,1.01-1.59,1.47-2.42c0.3-0.54,0.56-1.09,0.84-1.64
			c0.41-0.8,0.81-1.61,1.18-2.44c0.26-0.59,0.49-1.19,0.72-1.8c0.32-0.82,0.63-1.64,0.91-2.48c0.21-0.63,0.39-1.27,0.58-1.92
			c0.24-0.84,0.46-1.69,0.66-2.55c0.15-0.66,0.28-1.33,0.4-2.01c0.16-0.87,0.29-1.74,0.4-2.62c0.09-0.69,0.16-1.38,0.22-2.08
			c0.03-0.38,0.1-0.75,0.12-1.14h9.16c-1.45,29.54-25.22,53.32-54.76,54.76v-9.16c0.38-0.02,0.74-0.09,1.11-0.12
			C482.48,326.76,483.19,326.68,483.9,326.59z"/>
		<linearGradient id="SVGID_7_" gradientUnits="userSpaceOnUse" x1="496.5212" y1="283.532" x2="605.8401" y2="206.9861">
			<stop  offset="0.0629" style="stop-color:#FFB71B"/>
			<stop  offset="0.3007" style="stop-color:#FFFFFF"/>
			<stop  offset="1" style="stop-color:#FFB71B"/>
		</linearGradient>
		<path class="st12" d="M511.54,278.48v-2.85h-36.59v36.6h2.85C496.41,312.22,511.54,297.08,511.54,278.48z M480.66,306.37v-25.04
			h25.03C504.35,294.51,493.84,305.03,480.66,306.37z"/>
		<linearGradient id="SVGID_8_" gradientUnits="userSpaceOnUse" x1="562.7632" y1="375.5802" x2="673.3828" y2="298.1236">
			<stop  offset="0.0629" style="stop-color:#FFB71B"/>
			<stop  offset="0.3007" style="stop-color:#FFFFFF"/>
			<stop  offset="1" style="stop-color:#FFB71B"/>
		</linearGradient>
		<path class="st13" d="M687,342.29c-9.32-5.27-17.5-12.73-23.67-21.58c-8.6-12.35-13.15-26.96-13.15-42.24v-2.85H549.69v2.85
			c0,15.27-4.54,29.86-13.14,42.21l-0.02,0.02c-6.16,8.85-14.35,16.31-23.67,21.58c-10.65,6.02-22.78,9.22-35.07,9.24l-2.85,0v19.61
			h249.97v-19.61l-2.85,0C709.78,351.51,697.66,348.32,687,342.29z M551.64,302.76h96.6c1.85,5.83,4.34,11.45,7.51,16.73h-55.56
			h-9.7h-46.36C547.3,314.21,549.79,308.6,551.64,302.76z M644.52,281.33c0.19,5.35,0.91,10.61,2.12,15.73h-93.41
			c1.21-5.12,1.93-10.37,2.12-15.73H644.52z M540.35,325.2h50.13h9.7h59.33c4.62,6.36,10.22,12.03,16.5,16.72h-75.83h-9.7h-66.63
			C530.14,337.23,535.73,331.56,540.35,325.2z M590.48,347.63h9.7h84.67c10.52,5.81,22.33,9.09,34.36,9.55v8.26H480.66v-8.26
			c12.04-0.46,23.84-3.74,34.36-9.55H590.48z"/>
		<linearGradient id="SVGID_9_" gradientUnits="userSpaceOnUse" x1="572.7507" y1="392.1052" x2="683.8771" y2="314.2937">
			<stop  offset="0.0629" style="stop-color:#FFB71B"/>
			<stop  offset="0.3007" style="stop-color:#FFFFFF"/>
			<stop  offset="1" style="stop-color:#FFB71B"/>
		</linearGradient>
		<path class="st14" d="M679.23,278.48v-2.85h-20.56v2.85c0,34.96,28.44,63.4,63.4,63.4h2.85v-20.56h-2.85
			C698.45,321.31,679.23,302.1,679.23,278.48z M692.16,316.63c0.83,0.65,1.67,1.3,2.54,1.9c0.47,0.32,0.96,0.6,1.44,0.91
			c0.79,0.5,1.59,1.01,2.41,1.47c0.54,0.3,1.1,0.57,1.66,0.85c0.8,0.4,1.59,0.8,2.41,1.17c0.6,0.26,1.21,0.49,1.82,0.73
			c0.81,0.32,1.62,0.63,2.45,0.9c0.64,0.21,1.29,0.4,1.95,0.58c0.83,0.24,1.67,0.46,2.52,0.65c0.68,0.15,1.36,0.29,2.04,0.41
			c0.85,0.15,1.71,0.29,2.58,0.39c0.71,0.09,1.41,0.17,2.13,0.22c0.37,0.03,0.74,0.1,1.11,0.12v9.16
			c-29.54-1.45-53.32-25.22-54.76-54.76h9.16c0.02,0.38,0.09,0.74,0.12,1.11c0.06,0.71,0.13,1.42,0.22,2.12
			c0.11,0.87,0.24,1.73,0.4,2.59c0.12,0.68,0.26,1.36,0.41,2.03c0.19,0.85,0.41,1.69,0.65,2.53c0.18,0.65,0.37,1.29,0.58,1.93
			c0.28,0.84,0.59,1.66,0.91,2.47c0.24,0.6,0.47,1.21,0.73,1.8c0.36,0.83,0.77,1.63,1.18,2.44c0.28,0.55,0.54,1.1,0.84,1.63
			c0.46,0.83,0.97,1.63,1.48,2.43c0.3,0.47,0.58,0.96,0.9,1.42c0.6,0.88,1.26,1.72,1.91,2.56c0.27,0.34,0.52,0.71,0.8,1.04
			c1.93,2.32,4.06,4.46,6.38,6.38C691.44,316.11,691.81,316.36,692.16,316.63z"/>
		<linearGradient id="SVGID_10_" gradientUnits="userSpaceOnUse" x1="572.0887" y1="388.1241" x2="681.6635" y2="311.3991">
			<stop  offset="0.0629" style="stop-color:#FFB71B"/>
			<stop  offset="0.3007" style="stop-color:#FFFFFF"/>
			<stop  offset="1" style="stop-color:#FFB71B"/>
		</linearGradient>
		<path class="st15" d="M688.33,278.48c0,18.61,15.14,33.74,33.74,33.74h2.85v-36.6h-36.59V278.48z M719.22,281.33v25.04
			c-13.18-1.34-23.69-11.85-25.03-25.04H719.22z"/>
		<linearGradient id="SVGID_11_" gradientUnits="userSpaceOnUse" x1="486.3714" y1="268.993" x2="595.1599" y2="192.8185">
			<stop  offset="0.0629" style="stop-color:#FFB71B"/>
			<stop  offset="0.3007" style="stop-color:#FFFFFF"/>
			<stop  offset="1" style="stop-color:#FFB71B"/>
		</linearGradient>
		<path class="st16" d="M541.24,214.49h-28.59v52.19h28.59V214.49z M518.35,260.97V220.2h17.18v40.77H518.35z"/>
		<linearGradient id="SVGID_12_" gradientUnits="userSpaceOnUse" x1="464.7026" y1="239.6691" x2="574.3078" y2="162.9227">
			<stop  offset="0.0629" style="stop-color:#FFB71B"/>
			<stop  offset="0.3007" style="stop-color:#FFFFFF"/>
			<stop  offset="1" style="stop-color:#FFB71B"/>
		</linearGradient>
		<path class="st17" d="M526.94,208.55c6.87,0,12.46-5.59,12.46-12.46c0-6.87-5.59-12.46-12.46-12.46s-12.46,5.59-12.46,12.46
			C514.48,202.96,520.07,208.55,526.94,208.55z M526.94,189.34c3.72,0,6.75,3.03,6.75,6.75s-3.03,6.75-6.75,6.75
			s-6.75-3.03-6.75-6.75S523.22,189.34,526.94,189.34z"/>
		<linearGradient id="SVGID_13_" gradientUnits="userSpaceOnUse" x1="473.5079" y1="251.6045" x2="582.2964" y2="175.4299">
			<stop  offset="0.0629" style="stop-color:#FFB71B"/>
			<stop  offset="0.3007" style="stop-color:#FFFFFF"/>
			<stop  offset="1" style="stop-color:#FFB71B"/>
		</linearGradient>
		<path class="st18" d="M503.54,214.49h-28.59v52.19h28.59V214.49z M480.66,260.97V220.2h17.18v40.77H480.66z"/>
		<linearGradient id="SVGID_14_" gradientUnits="userSpaceOnUse" x1="452.0256" y1="222.15" x2="561.6307" y2="145.4036">
			<stop  offset="0.0629" style="stop-color:#FFB71B"/>
			<stop  offset="0.3007" style="stop-color:#FFFFFF"/>
			<stop  offset="1" style="stop-color:#FFB71B"/>
		</linearGradient>
		<path class="st19" d="M489.25,208.55c6.87,0,12.46-5.59,12.46-12.46c0-6.87-5.59-12.46-12.46-12.46
			c-6.87,0-12.46,5.59-12.46,12.46C476.79,202.96,482.38,208.55,489.25,208.55z M489.25,189.34c3.72,0,6.75,3.03,6.75,6.75
			s-3.03,6.75-6.75,6.75c-3.72,0-6.75-3.03-6.75-6.75S485.52,189.34,489.25,189.34z"/>
	</g>
</g>
</svg>
