<?xml version="1.0" encoding="utf-8"?>
<!-- Generator: Adobe Illustrator 24.0.2, SVG Export Plug-In . SVG Version: 6.00 Build 0)  -->
<svg version="1.1" id="Layer_1" xmlns="http://www.w3.org/2000/svg" xmlns:xlink="http://www.w3.org/1999/xlink" x="0px" y="0px"
	 viewBox="0 0 1080 1080" style="enable-background:new 0 0 1080 1080;" xml:space="preserve">
<style type="text/css">
	.st0{display:none;fill:none;stroke:#000000;stroke-miterlimit:10;}
	.st1{fill:none;stroke:#78D1ED;stroke-width:0.25;stroke-miterlimit:10;}
	.st2{fill:none;stroke:#211E1F;stroke-width:2;stroke-miterlimit:10;}
	.st3{fill:#221F1F;}
	.st4{fill:#211E1F;}
	.st5{fill:#FFFFFF;}
</style>
<circle class="st0" cx="540" cy="540" r="540"/>
<g>
	<g>
		<path class="st3" d="M328.92,747.47c5.76,0,10.55,1.82,14.38,5.47c3.83,3.65,5.74,8.22,5.74,13.71c0,5.49-1.93,10.04-5.8,13.64
			c-3.87,3.6-8.74,5.4-14.62,5.4c-5.62,0-10.29-1.8-14.03-5.4c-3.74-3.6-5.61-8.11-5.61-13.54c0-5.57,1.88-10.17,5.65-13.82
			C318.4,749.29,323.17,747.47,328.92,747.47z M329.13,752.54c-4.26,0-7.77,1.33-10.51,4c-2.74,2.67-4.12,6.07-4.12,10.22
			c0,4.02,1.38,7.36,4.13,10.03c2.75,2.67,6.2,4,10.34,4c4.16,0,7.63-1.36,10.41-4.08c2.78-2.72,4.17-6.11,4.17-10.16
			c0-3.95-1.39-7.27-4.17-9.96C336.6,753.88,333.19,752.54,329.13,752.54z"/>
		<path class="st3" d="M361.25,785.26v-37.31h11.82c3.56,0,6.39,0.96,8.51,2.88s3.17,4.5,3.17,7.73c0,2.17-0.54,4.09-1.63,5.76
			c-1.08,1.67-2.57,2.89-4.45,3.64c-1.88,0.76-4.59,1.13-8.11,1.13h-3.95v16.16H361.25z M372.13,752.7h-5.52v11.66h5.84
			c2.17,0,3.84-0.51,5.01-1.53c1.17-1.02,1.76-2.49,1.76-4.39C379.22,754.61,376.86,752.7,372.13,752.7z"/>
		<path class="st3" d="M421.2,748h5.36v21.15c0,2.86-0.21,5.02-0.63,6.48s-0.93,2.67-1.55,3.64c-0.61,0.97-1.36,1.84-2.25,2.6
			c-2.95,2.54-6.81,3.81-11.58,3.81c-4.85,0-8.75-1.26-11.68-3.79c-0.89-0.78-1.64-1.66-2.25-2.63c-0.62-0.97-1.12-2.16-1.52-3.56
			c-0.4-1.4-0.6-3.61-0.6-6.61V748h5.36v21.15c0,3.5,0.4,5.94,1.2,7.31s2.02,2.47,3.65,3.29c1.64,0.83,3.57,1.24,5.79,1.24
			c3.17,0,5.74-0.83,7.73-2.48c1.05-0.89,1.8-1.94,2.27-3.15s0.69-3.28,0.69-6.21V748z"/>
		<path class="st3" d="M449.55,769.65l-4.05-2.46c-2.54-1.55-4.35-3.08-5.43-4.58c-1.08-1.5-1.61-3.23-1.61-5.19
			c0-2.93,1.02-5.32,3.05-7.15c2.03-1.83,4.68-2.75,7.93-2.75c3.11,0,5.97,0.87,8.56,2.62v6.05c-2.68-2.58-5.57-3.87-8.67-3.87
			c-1.74,0-3.17,0.4-4.29,1.21c-1.12,0.81-1.68,1.84-1.68,3.09c0,1.12,0.41,2.16,1.24,3.14s2.15,2,3.98,3.07l4.07,2.41
			c4.54,2.72,6.82,6.17,6.82,10.37c0,2.99-1,5.41-3,7.28c-2,1.87-4.6,2.8-7.8,2.8c-3.68,0-7.03-1.13-10.06-3.39v-6.77
			c2.88,3.65,6.21,5.47,10,5.47c1.67,0,3.06-0.47,4.17-1.4c1.11-0.93,1.67-2.09,1.67-3.49
			C454.45,773.84,452.82,771.69,449.55,769.65z"/>
		<path class="st3" d="M491.44,748h5.33v32.41h16.78v4.85h-22.11V748z"/>
		<path class="st3" d="M523.73,748h5.33v37.26h-5.33V748z"/>
		<path class="st3" d="M543.35,748h19.87v4.75h-14.54v10.4h14.54v4.75h-14.54v17.36h-5.33V748z"/>
		<path class="st3" d="M574.75,748h21.12v4.75h-15.79v11.36h15.26v4.77h-15.26v11.58h16.3v4.75h-21.63V748z"/>
		<path class="st3" d="M617.22,769.65l-4.05-2.46c-2.54-1.55-4.35-3.08-5.43-4.58c-1.08-1.5-1.61-3.23-1.61-5.19
			c0-2.93,1.02-5.32,3.05-7.15c2.03-1.83,4.68-2.75,7.93-2.75c3.11,0,5.97,0.87,8.56,2.62v6.05c-2.68-2.58-5.57-3.87-8.67-3.87
			c-1.74,0-3.17,0.4-4.29,1.21s-1.68,1.84-1.68,3.09c0,1.12,0.41,2.16,1.24,3.14s2.15,2,3.98,3.07l4.07,2.41
			c4.54,2.72,6.82,6.17,6.82,10.37c0,2.99-1,5.41-3,7.28c-2,1.87-4.6,2.8-7.8,2.8c-3.68,0-7.03-1.13-10.06-3.39v-6.77
			c2.88,3.65,6.21,5.47,10,5.47c1.67,0,3.06-0.47,4.17-1.4c1.11-0.93,1.67-2.09,1.67-3.49
			C622.13,773.84,620.49,771.69,617.22,769.65z"/>
		<path class="st3" d="M635.58,747.95h31.12v4.75h-12.99v32.57h-5.36V752.7h-12.77V747.95z"/>
		<path class="st3" d="M701.52,748H708l-13.76,17.55v19.71h-5.47v-19.71L675,748h6.44l9.97,12.85L701.52,748z"/>
		<path class="st3" d="M717.9,748h5.33v32.41h16.78v4.85H717.9V748z"/>
		<path class="st3" d="M750.17,748h21.12v4.75H755.5v11.36h15.26v4.77H755.5v11.58h16.3v4.75h-21.63V748z"/>
	</g>
	<g>
		<path class="st3" d="M204.47,591.23l-10.82-7.17c8.39,0,15.34,0,20.83,0.01c5.49,0.01,9.73,0.01,12.73,0.01l37.51,122.49H247.5
			l-24.38-79.6h-22.38l-24.36,71.27l15.51,8.33H164.7L204.47,591.23z M212.55,592.45l-9.92,29.03h18.81L212.55,592.45z"/>
		<path class="st3" d="M292.16,706.43h-16.44V592.52c0,0.09-0.86-0.56-2.58-1.95c-1.72-1.4-3.44-2.81-5.17-4.26
			c-1.73-1.44-2.59-2.16-2.58-2.16h27.51c5.54-0.23,11.09-0.25,16.67-0.05c5.58,0.18,10.93,0.44,16.07,0.78
			c5.14,0.34,9.91,1.06,14.34,2.16c4.42,1.1,8.25,2.47,11.48,4.1c3.23,1.63,5.73,3.83,7.5,6.59c1.77,2.76,2.57,5.97,2.4,9.63
			c-0.26,5.42-3.66,10.05-10.2,13.89c-6.55,3.84-16.6,6.1-30.17,6.77c5.92,0.5,11.08,1.94,15.5,4.33c4.42,2.39,7.85,5.33,10.28,8.83
			c2.44,3.5,4.53,7.41,6.26,11.75c1.74,4.33,2.96,8.71,3.66,13.12s1.45,8.72,2.24,12.92c0.79,4.2,1.53,7.92,2.23,11.17
			c0.7,3.25,1.83,5.86,3.4,7.84c1.57,1.98,3.56,2.96,5.97,2.96v5.49c-4.91-0.19-9.13-1.22-12.67-3.07
			c-3.54-1.85-6.33-4.27-8.36-7.26c-2.03-2.98-3.76-6.39-5.16-10.21c-1.4-3.82-2.61-7.84-3.62-12.05
			c-1.01-4.21-2.06-8.43-3.15-12.65c-1.09-4.22-2.54-8.27-4.34-12.14c-1.8-3.87-4-7.33-6.6-10.38c-2.6-3.05-6.11-5.56-10.53-7.52
			c-4.42-1.96-9.61-3.1-15.56-3.42v-0.75v-4.9c6.41,0.46,12.28,0.49,17.62,0.09s9.93-1.17,13.76-2.31c3.84-1.14,6.82-2.89,8.93-5.25
			c2.12-2.36,3.16-5.27,3.12-8.72c-0.04-4.24-2.27-7.85-6.69-10.83s-10.4-4.79-17.95-5.44s-16.37,0.32-26.44,2.9l0,113.91
			L292.16,706.43z"/>
		<path class="st3" d="M398.44,706.43H382V592.52c0,0.09-0.86-0.56-2.58-1.95c-1.72-1.4-3.44-2.81-5.17-4.26
			c-1.73-1.44-2.59-2.16-2.58-2.16h27.51c5.54-0.23,11.09-0.25,16.67-0.05c5.58,0.18,10.93,0.44,16.07,0.78
			c5.14,0.34,9.91,1.06,14.34,2.16c4.42,1.1,8.25,2.47,11.48,4.1c3.23,1.63,5.73,3.83,7.5,6.59c1.77,2.76,2.57,5.97,2.4,9.63
			c-0.26,5.42-3.66,10.05-10.2,13.89c-6.55,3.84-16.6,6.1-30.17,6.77c5.92,0.5,11.08,1.94,15.5,4.33c4.42,2.39,7.85,5.33,10.28,8.83
			s4.53,7.41,6.26,11.75c1.74,4.33,2.96,8.71,3.66,13.12s1.45,8.72,2.24,12.92c0.79,4.2,1.53,7.92,2.23,11.17
			c0.7,3.25,1.83,5.86,3.4,7.84c1.57,1.98,3.56,2.96,5.97,2.96v5.49c-4.91-0.19-9.13-1.22-12.67-3.07
			c-3.54-1.85-6.33-4.27-8.36-7.26c-2.03-2.98-3.76-6.39-5.16-10.21c-1.4-3.82-2.61-7.84-3.62-12.05
			c-1.01-4.21-2.06-8.43-3.15-12.65c-1.09-4.22-2.54-8.27-4.34-12.14c-1.8-3.87-4-7.33-6.6-10.38c-2.6-3.05-6.11-5.56-10.53-7.52
			c-4.42-1.96-9.61-3.1-15.56-3.42v-0.75v-4.9c6.41,0.46,12.28,0.49,17.62,0.09s9.93-1.17,13.76-2.31c3.84-1.14,6.82-2.89,8.93-5.25
			c2.12-2.36,3.16-5.27,3.12-8.72c-0.04-4.24-2.27-7.85-6.69-10.83s-10.4-4.79-17.95-5.44s-16.37,0.32-26.44,2.9l0,113.91
			L398.44,706.43z"/>
		<path class="st3" d="M485.71,590.48c-1.72-1.4-3.44-2.82-5.17-4.26c-1.73-1.44-2.59-2.17-2.58-2.17h84.23v27.81
			c-4.97-14.79-12.48-22.5-22.53-23.14H505.5v32.7h40.74v5.49H505.5v74.07c3.7-0.03,8.7-0.05,14.99-0.05
			c5.62,0,9.64-0.01,12.06-0.02c2.43-0.01,5.47-0.14,9.14-0.39c3.66-0.25,6.15-0.54,7.45-0.86c1.3-0.32,3.07-0.93,5.32-1.83
			c2.24-0.9,3.76-1.86,4.54-2.87c0.78-1.02,1.89-2.49,3.31-4.42c1.43-1.93,2.57-3.95,3.44-6.04c0.87-2.09,1.94-4.8,3.23-8.14v30.07
			h-80.69v-114C488.29,592.53,487.43,591.88,485.71,590.48z"/>
		<path class="st3" d="M676,614.22c-3.68-7.65-8.61-13.55-14.79-17.71c-6.18-4.16-12.6-6.44-19.26-6.83
			c-6.67-0.39-13.4,0.68-20.2,3.22c-6.8,2.54-12.81,6.23-18.01,11.06s-9.29,10.88-12.25,18.16c-2.97,7.28-4.08,14.99-3.34,23.13
			c0.63,6.91,2.41,13.53,5.33,19.85c2.93,6.32,6.84,12.01,11.73,17.07c4.89,5.06,11.06,9.07,18.5,12.03
			c7.44,2.96,15.59,4.37,24.45,4.25c3.68-0.05,7.23-0.22,10.64-0.5l0-76.5H676v77.55v0.48c-10.41,4.65-21.52,6.97-33.34,6.97
			c-13.01,0-25.04-2.73-36.07-8.19c-11.04-5.46-19.76-12.89-26.17-22.29c-6.41-9.4-9.62-19.63-9.63-30.71
			c-0.01-9.49,1.97-18.16,5.93-26.03c3.96-7.87,9.4-14.35,16.32-19.43c6.92-5.09,14.8-9.03,23.65-11.84
			c8.85-2.8,18.42-4.12,28.72-3.95c10.3,0.17,20.54,1.82,30.73,4.93L676,614.22z"/>
		<path class="st3" d="M684.16,584.05h27.57v117.02c2.78,0,6.61,0.01,11.48,0.04c7.3,0.04,12.42,0.06,15.36,0.06
			c2.94,0,6.45-0.31,10.53-0.93c4.08-0.62,6.77-1.27,8.07-1.97c1.31-0.7,3.22-2.17,5.75-4.42c2.53-2.25,4.51-4.52,5.94-6.83
			c1.43-2.31,3.57-5.83,6.42-10.55v25.17v4.93h-80.78V592.44L684.16,584.05z"/>
		<path class="st3" d="M880.88,592.24c10.61,5.46,19,12.89,25.17,22.29c6.17,9.4,9.25,19.63,9.25,30.71s-3.08,21.32-9.25,30.72
			c-6.17,9.4-14.56,16.82-25.17,22.29c-10.61,5.46-22.17,8.19-34.69,8.19c-12.51,0-24.07-2.73-34.68-8.19
			c-10.62-5.46-19-12.89-25.17-22.29c-6.17-9.4-9.25-19.64-9.25-30.72s3.08-21.32,9.25-30.71c6.16-9.4,14.55-16.83,25.17-22.29
			c10.61-5.46,22.17-8.19,34.68-8.19C858.71,584.05,870.27,586.78,880.88,592.24z M815.06,599.58
			c-6.85,5.04-11.76,11.05-14.74,18.02c-2.98,6.97-4.86,14.48-5.66,22.53c-0.79,8.05,0.2,15.85,2.97,23.42
			c2.77,7.56,6.46,14.31,11.08,20.25c4.62,5.94,10.86,10.42,18.74,13.45c7.88,3.03,16.51,3.91,25.9,2.63
			c9.33-1.27,17.41-4.43,24.22-9.46c6.81-5.04,11.7-11.04,14.65-18.01c2.96-6.97,4.82-14.48,5.6-22.53
			c0.78-8.05-0.22-15.85-2.99-23.41c-2.77-7.56-6.45-14.31-11.06-20.25c-4.6-5.94-10.81-10.43-18.65-13.46
			c-7.83-3.04-16.41-3.92-25.73-2.65C830.02,591.38,821.91,594.54,815.06,599.58z"/>
	</g>
	<g>
		<path class="st4" d="M596.24,320.58H483.62v81.25h112.62V320.58z M490.07,395.38v-68.35h99.72v68.35H490.07z"/>
		<path class="st4" d="M638.61,342.86H606.3v58.97h32.31V342.86z M612.75,395.38v-46.07h19.41v46.07H612.75z"/>
		<path class="st4" d="M622.45,336.14c7.76,0,14.08-6.31,14.08-14.08c0-7.76-6.31-14.08-14.08-14.08c-7.76,0-14.08,6.31-14.08,14.08
			C608.38,329.83,614.69,336.14,622.45,336.14z M622.45,314.44c4.2,0,7.63,3.42,7.63,7.63c0,4.2-3.42,7.63-7.63,7.63
			s-7.63-3.42-7.63-7.63C614.83,317.86,618.25,314.44,622.45,314.44z"/>
		<path class="st4" d="M648.9,342.86v58.97h32.31v-58.97H648.9z M655.35,395.38v-46.07h19.41v46.07H655.35z"/>
		<path class="st4" d="M665.05,336.14c7.76,0,14.08-6.31,14.08-14.08c0-7.76-6.31-14.08-14.08-14.08c-7.76,0-14.08,6.31-14.08,14.08
			C650.97,329.83,657.29,336.14,665.05,336.14z M665.05,314.44c4.2,0,7.63,3.42,7.63,7.63c0,4.2-3.42,7.63-7.63,7.63
			s-7.63-3.42-7.63-7.63C657.42,317.86,660.84,314.44,665.05,314.44z"/>
		<path class="st4" d="M473.56,415.16v-3.23h-23.23v3.23c0,26.69-21.71,48.4-48.4,48.4h-3.23v23.23h3.23
			C441.42,486.8,473.56,454.66,473.56,415.16z M408.81,469.54c0.98-0.12,1.95-0.27,2.91-0.45c0.78-0.14,1.55-0.29,2.31-0.46
			c0.96-0.22,1.9-0.47,2.84-0.73c0.74-0.21,1.47-0.42,2.2-0.66c0.94-0.31,1.86-0.66,2.77-1.02c0.69-0.27,1.38-0.53,2.06-0.83
			c0.93-0.41,1.82-0.86,2.72-1.31c0.63-0.32,1.26-0.62,1.88-0.96c0.93-0.52,1.82-1.08,2.71-1.65c0.54-0.35,1.1-0.67,1.63-1.03
			c0.98-0.67,1.92-1.4,2.85-2.13c0.4-0.32,0.82-0.6,1.22-0.93c2.62-2.18,5.03-4.59,7.21-7.21c0.32-0.39,0.6-0.8,0.92-1.2
			c0.74-0.94,1.47-1.88,2.15-2.87c0.36-0.53,0.68-1.08,1.02-1.62c0.57-0.9,1.14-1.8,1.66-2.73c0.34-0.6,0.63-1.23,0.95-1.85
			c0.46-0.91,0.92-1.82,1.33-2.76c0.29-0.67,0.55-1.35,0.82-2.03c0.36-0.93,0.72-1.85,1.03-2.8c0.24-0.71,0.44-1.44,0.65-2.17
			c0.27-0.95,0.52-1.91,0.74-2.88c0.17-0.75,0.32-1.51,0.46-2.27c0.18-0.98,0.33-1.97,0.45-2.96c0.1-0.78,0.18-1.56,0.25-2.35
			c0.04-0.43,0.11-0.85,0.14-1.29h10.35c-1.63,33.38-28.5,60.25-61.88,61.88v-10.35c0.42-0.02,0.84-0.1,1.26-0.13
			C407.21,469.72,408.01,469.64,408.81,469.54z"/>
		<path class="st4" d="M440.05,415.16v-3.23H398.7v41.35h3.23C422.94,453.29,440.05,436.19,440.05,415.16z M405.15,446.68v-28.29
			h28.29C431.92,433.29,420.04,445.16,405.15,446.68z"/>
		<path class="st4" d="M638.31,487.27c-10.53-5.95-19.78-14.39-26.75-24.38c-9.72-13.96-14.86-30.46-14.86-47.73v-3.23H483.15v3.23
			c0,17.25-5.13,33.75-14.84,47.7l-0.02,0.03c-6.96,10-16.21,18.43-26.74,24.38c-12.04,6.81-25.74,10.42-39.63,10.44l-3.22,0v22.16
			h282.46v-22.16l-3.22,0C664.05,497.69,650.35,494.08,638.31,487.27z M485.35,442.61H594.5c2.09,6.59,4.9,12.94,8.49,18.9h-62.78
			h-10.96h-52.38C480.45,455.54,483.26,449.2,485.35,442.61z M590.31,418.39c0.21,6.05,1.03,11.99,2.4,17.77H487.15
			c1.37-5.78,2.19-11.72,2.4-17.77H590.31z M472.6,467.96h56.65h10.96h67.04c5.22,7.19,11.55,13.59,18.65,18.9h-85.69h-10.96h-75.29
			C461.06,481.55,467.38,475.15,472.6,467.96z M529.25,493.31h10.96h95.67c11.89,6.56,25.23,10.27,38.83,10.79v9.33H405.15v-9.33
			c13.6-0.52,26.94-4.23,38.83-10.79H529.25z"/>
		<path class="st4" d="M629.53,415.16v-3.23H606.3v3.23c0,39.5,32.14,71.64,71.64,71.64h3.23v-23.23h-3.23
			C651.24,463.57,629.53,441.85,629.53,415.16z M644.14,458.28c0.94,0.74,1.88,1.47,2.87,2.15c0.53,0.36,1.08,0.68,1.62,1.03
			c0.9,0.57,1.79,1.14,2.72,1.66c0.61,0.34,1.25,0.64,1.87,0.96c0.9,0.46,1.8,0.91,2.73,1.32c0.68,0.3,1.37,0.56,2.06,0.83
			c0.92,0.36,1.83,0.71,2.77,1.02c0.73,0.24,1.46,0.45,2.2,0.66c0.94,0.27,1.88,0.52,2.84,0.73c0.76,0.17,1.53,0.32,2.31,0.46
			c0.96,0.17,1.93,0.32,2.91,0.45c0.8,0.1,1.6,0.19,2.4,0.25c0.42,0.03,0.83,0.11,1.26,0.13v10.35
			c-33.38-1.63-60.25-28.5-61.88-61.88h10.35c0.02,0.43,0.1,0.84,0.13,1.26c0.07,0.8,0.15,1.6,0.25,2.4
			c0.12,0.98,0.27,1.96,0.45,2.92c0.14,0.77,0.29,1.54,0.46,2.29c0.22,0.96,0.47,1.91,0.74,2.86c0.21,0.73,0.42,1.46,0.65,2.18
			c0.31,0.95,0.66,1.87,1.02,2.79c0.27,0.68,0.53,1.37,0.82,2.04c0.41,0.94,0.87,1.85,1.33,2.75c0.31,0.62,0.61,1.24,0.95,1.85
			c0.52,0.94,1.1,1.84,1.67,2.75c0.34,0.53,0.66,1.08,1.01,1.6c0.68,0.99,1.42,1.94,2.16,2.89c0.31,0.39,0.59,0.8,0.9,1.18
			c2.18,2.62,4.59,5.04,7.21,7.21C643.33,457.69,643.74,457.97,644.14,458.28z"/>
		<path class="st4" d="M639.81,415.16c0,21.02,17.1,38.13,38.13,38.13h3.23v-41.35h-41.35V415.16z M674.71,418.39v28.29
			c-14.9-1.51-26.77-13.39-28.29-28.29H674.71z"/>
		<path class="st4" d="M473.6,342.86h-32.31v58.97h32.31V342.86z M447.74,395.38v-46.07h19.41v46.07H447.74z"/>
		<path class="st4" d="M457.45,336.14c7.76,0,14.08-6.31,14.08-14.08c0-7.76-6.31-14.08-14.08-14.08s-14.08,6.31-14.08,14.08
			C443.37,329.83,449.69,336.14,457.45,336.14z M457.45,314.44c4.2,0,7.63,3.42,7.63,7.63c0,4.2-3.42,7.63-7.63,7.63
			c-4.2,0-7.63-3.42-7.63-7.63C449.82,317.86,453.24,314.44,457.45,314.44z"/>
		<path class="st4" d="M431.01,342.86H398.7v58.97h32.31V342.86z M405.15,395.38v-46.07h19.41v46.07H405.15z"/>
		<path class="st4" d="M414.85,336.14c7.76,0,14.08-6.31,14.08-14.08c0-7.76-6.31-14.08-14.08-14.08s-14.08,6.31-14.08,14.08
			C400.77,329.83,407.09,336.14,414.85,336.14z M414.85,314.44c4.2,0,7.63,3.42,7.63,7.63c0,4.2-3.42,7.63-7.63,7.63
			c-4.2,0-7.63-3.42-7.63-7.63C407.22,317.86,410.65,314.44,414.85,314.44z"/>
	</g>
</g>
</svg>
