<?xml version="1.0" encoding="utf-8"?>
<!-- Generator: Adobe Illustrator 24.0.2, SVG Export Plug-In . SVG Version: 6.00 Build 0)  -->
<svg version="1.1" id="Layer_1" xmlns="http://www.w3.org/2000/svg" xmlns:xlink="http://www.w3.org/1999/xlink" x="0px" y="0px"
	 viewBox="0 0 1080 1080" style="enable-background:new 0 0 1080 1080;" xml:space="preserve">
<style type="text/css">
	.st0{display:none;fill:none;stroke:#000000;stroke-miterlimit:10;}
	.st1{fill:#FFFFFF;}
	.st2{fill:url(#SVGID_1_);}
	.st3{fill:url(#SVGID_2_);}
	.st4{fill:url(#SVGID_3_);}
	.st5{fill:url(#SVGID_4_);}
	.st6{fill:url(#SVGID_5_);}
	.st7{fill:url(#SVGID_6_);}
	.st8{fill:url(#SVGID_7_);}
	.st9{fill:url(#SVGID_8_);}
	.st10{fill:url(#SVGID_9_);}
	.st11{fill:url(#SVGID_10_);}
	.st12{fill:url(#SVGID_11_);}
	.st13{fill:url(#SVGID_12_);}
	.st14{fill:url(#SVGID_13_);}
	.st15{fill:url(#SVGID_14_);}
	.st16{fill:url(#SVGID_15_);}
	.st17{fill:url(#SVGID_16_);}
	.st18{fill:url(#SVGID_17_);}
	.st19{fill:url(#SVGID_18_);}
	.st20{fill:url(#SVGID_19_);}
	.st21{fill:url(#SVGID_20_);}
	.st22{fill:url(#SVGID_21_);}
	.st23{fill:url(#SVGID_22_);}
	.st24{fill:url(#SVGID_23_);}
	.st25{fill:url(#SVGID_24_);}
	.st26{fill:url(#SVGID_25_);}
	.st27{fill:url(#SVGID_26_);}
	.st28{fill:url(#SVGID_27_);}
	.st29{fill:url(#SVGID_28_);}
	.st30{fill:url(#SVGID_29_);}
	.st31{fill:url(#SVGID_30_);}
	.st32{fill:url(#SVGID_31_);}
	.st33{fill:url(#SVGID_32_);}
	.st34{fill:url(#SVGID_33_);}
	.st35{fill:url(#SVGID_34_);}
	.st36{fill:url(#SVGID_35_);}
	.st37{fill:url(#SVGID_36_);}
	.st38{fill:url(#SVGID_37_);}
	.st39{fill:url(#SVGID_38_);}
	.st40{fill:url(#SVGID_39_);}
	.st41{fill:url(#SVGID_40_);}
	.st42{fill:url(#SVGID_41_);}
	.st43{fill:url(#SVGID_42_);}
	.st44{fill:url(#SVGID_43_);}
	.st45{fill:url(#SVGID_44_);}
	.st46{fill:url(#SVGID_45_);}
	.st47{fill:url(#SVGID_46_);}
	.st48{fill:url(#SVGID_47_);}
	.st49{fill:url(#SVGID_48_);}
	.st50{fill:url(#SVGID_49_);}
	.st51{fill:url(#SVGID_50_);}
	.st52{fill:url(#SVGID_51_);}
	.st53{fill:url(#SVGID_52_);}
	.st54{fill:url(#SVGID_53_);}
	.st55{fill:url(#SVGID_54_);}
	.st56{fill:url(#SVGID_55_);}
	.st57{fill:url(#SVGID_56_);}
	.st58{fill:#FEAEBB;}
	.st59{fill:#FF8D6B;}
	.st60{fill:#009845;}
	.st61{fill:#FFB71B;}
	.st62{fill:#006646;}
</style>
<g>
	<g>
		<path d="M204.47,623.94l-10.82-7.17c8.39,0,15.34,0,20.83,0.01c5.49,0.01,9.73,0.01,12.73,0.01l37.51,122.49H247.5l-24.38-79.6
			h-22.38l-24.36,71.27l15.51,8.33H164.7L204.47,623.94z M212.55,625.16l-9.92,29.03h18.81L212.55,625.16z"/>
		<path d="M292.16,739.15h-16.44V625.24c0,0.09-0.86-0.56-2.58-1.95c-1.72-1.4-3.44-2.81-5.17-4.26c-1.73-1.44-2.59-2.16-2.58-2.16
			h27.51c5.54-0.23,11.09-0.25,16.67-0.05c5.58,0.18,10.93,0.44,16.07,0.78c5.14,0.34,9.91,1.06,14.34,2.16
			c4.42,1.1,8.25,2.47,11.48,4.1c3.23,1.63,5.73,3.83,7.5,6.59c1.77,2.76,2.57,5.97,2.4,9.63c-0.26,5.42-3.66,10.05-10.2,13.89
			c-6.55,3.84-16.6,6.1-30.17,6.77c5.92,0.5,11.08,1.94,15.5,4.33c4.42,2.39,7.85,5.33,10.28,8.83c2.44,3.5,4.53,7.41,6.26,11.75
			c1.74,4.33,2.96,8.71,3.66,13.12s1.45,8.72,2.24,12.92c0.79,4.2,1.53,7.92,2.23,11.17c0.7,3.25,1.83,5.86,3.4,7.84
			c1.57,1.98,3.56,2.96,5.97,2.96v5.49c-4.91-0.19-9.13-1.22-12.67-3.07c-3.54-1.85-6.33-4.27-8.36-7.26s-3.76-6.39-5.16-10.21
			c-1.4-3.82-2.61-7.84-3.62-12.05c-1.01-4.21-2.06-8.43-3.15-12.65c-1.09-4.22-2.54-8.27-4.34-12.14c-1.8-3.87-4-7.33-6.6-10.38
			c-2.6-3.05-6.11-5.56-10.53-7.52c-4.42-1.96-9.61-3.1-15.56-3.42v-0.75v-4.9c6.41,0.46,12.28,0.49,17.62,0.09
			s9.93-1.17,13.76-2.31c3.84-1.14,6.82-2.89,8.93-5.25c2.12-2.36,3.16-5.27,3.12-8.72c-0.04-4.24-2.27-7.85-6.69-10.83
			s-10.4-4.79-17.95-5.44c-7.55-0.65-16.37,0.32-26.44,2.9l0,113.91L292.16,739.15z"/>
		<path d="M398.44,739.15H382V625.24c0,0.09-0.86-0.56-2.58-1.95c-1.72-1.4-3.44-2.81-5.17-4.26c-1.73-1.44-2.59-2.16-2.58-2.16
			h27.51c5.54-0.23,11.09-0.25,16.67-0.05c5.58,0.18,10.93,0.44,16.07,0.78c5.14,0.34,9.91,1.06,14.34,2.16
			c4.42,1.1,8.25,2.47,11.48,4.1c3.23,1.63,5.73,3.83,7.5,6.59c1.77,2.76,2.57,5.97,2.4,9.63c-0.26,5.42-3.66,10.05-10.2,13.89
			c-6.55,3.84-16.6,6.1-30.17,6.77c5.92,0.5,11.08,1.94,15.5,4.33c4.42,2.39,7.85,5.33,10.28,8.83c2.44,3.5,4.53,7.41,6.26,11.75
			c1.74,4.33,2.96,8.71,3.66,13.12s1.45,8.72,2.24,12.92c0.79,4.2,1.53,7.92,2.23,11.17c0.7,3.25,1.83,5.86,3.4,7.84
			c1.57,1.98,3.56,2.96,5.97,2.96v5.49c-4.91-0.19-9.13-1.22-12.67-3.07c-3.54-1.85-6.33-4.27-8.36-7.26s-3.76-6.39-5.16-10.21
			c-1.4-3.82-2.61-7.84-3.62-12.05c-1.01-4.21-2.06-8.43-3.15-12.65c-1.09-4.22-2.54-8.27-4.34-12.14c-1.8-3.87-4-7.33-6.6-10.38
			c-2.6-3.05-6.11-5.56-10.53-7.52c-4.42-1.96-9.61-3.1-15.56-3.42v-0.75v-4.9c6.41,0.46,12.28,0.49,17.62,0.09
			s9.93-1.17,13.76-2.31c3.84-1.14,6.82-2.89,8.93-5.25c2.12-2.36,3.16-5.27,3.12-8.72c-0.04-4.24-2.27-7.85-6.69-10.83
			s-10.4-4.79-17.95-5.44c-7.55-0.65-16.37,0.32-26.44,2.9l0,113.91L398.44,739.15z"/>
		<path d="M485.71,623.2c-1.72-1.4-3.44-2.82-5.17-4.26c-1.73-1.44-2.59-2.17-2.58-2.17h84.23v27.81
			c-4.97-14.79-12.48-22.5-22.53-23.14H505.5v32.7h40.74v5.49H505.5v74.07c3.7-0.03,8.7-0.05,14.99-0.05
			c5.62,0,9.64-0.01,12.06-0.02c2.43-0.01,5.47-0.14,9.14-0.39c3.66-0.25,6.15-0.54,7.45-0.86c1.3-0.32,3.07-0.93,5.32-1.83
			c2.24-0.9,3.76-1.86,4.54-2.87c0.78-1.02,1.89-2.49,3.31-4.42c1.43-1.93,2.57-3.95,3.44-6.04c0.87-2.09,1.94-4.8,3.23-8.14v30.07
			h-80.69v-114C488.29,625.25,487.43,624.59,485.71,623.2z"/>
		<path d="M676,646.94c-3.68-7.65-8.61-13.55-14.79-17.71c-6.18-4.16-12.6-6.44-19.26-6.83c-6.67-0.39-13.4,0.68-20.2,3.22
			c-6.8,2.54-12.81,6.23-18.01,11.06s-9.29,10.88-12.25,18.16c-2.97,7.28-4.08,14.99-3.34,23.13c0.63,6.91,2.41,13.53,5.33,19.85
			c2.93,6.32,6.84,12.01,11.73,17.07c4.89,5.06,11.06,9.07,18.5,12.03c7.44,2.96,15.59,4.37,24.45,4.25
			c3.68-0.05,7.23-0.22,10.64-0.5l0-76.5H676v77.55v0.48c-10.41,4.65-21.52,6.97-33.34,6.97c-13.01,0-25.04-2.73-36.07-8.19
			c-11.04-5.46-19.76-12.89-26.17-22.29c-6.41-9.4-9.62-19.63-9.63-30.71c-0.01-9.49,1.97-18.16,5.93-26.03
			c3.96-7.87,9.4-14.35,16.32-19.43c6.92-5.09,14.8-9.03,23.65-11.84c8.85-2.8,18.42-4.12,28.72-3.95
			c10.3,0.17,20.54,1.82,30.73,4.93L676,646.94z"/>
		<path d="M684.16,616.77h27.57v117.02c2.78,0,6.61,0.01,11.48,0.04c7.3,0.04,12.42,0.06,15.36,0.06c2.94,0,6.45-0.31,10.53-0.93
			c4.08-0.62,6.77-1.27,8.07-1.97c1.31-0.7,3.22-2.17,5.75-4.42c2.53-2.25,4.51-4.52,5.94-6.83s3.57-5.83,6.42-10.55v25.17v4.93
			h-80.78V625.16L684.16,616.77z"/>
		<path d="M880.88,624.96c10.61,5.46,19,12.89,25.17,22.29s9.25,19.63,9.25,30.71s-3.08,21.32-9.25,30.72
			c-6.17,9.4-14.56,16.82-25.17,22.29c-10.61,5.46-22.17,8.19-34.69,8.19c-12.51,0-24.07-2.73-34.68-8.19
			c-10.62-5.46-19-12.89-25.17-22.29c-6.17-9.4-9.25-19.64-9.25-30.72s3.08-21.32,9.25-30.71c6.16-9.4,14.55-16.83,25.17-22.29
			c10.61-5.46,22.17-8.19,34.68-8.19C858.71,616.77,870.27,619.5,880.88,624.96z M815.06,632.3c-6.85,5.04-11.76,11.05-14.74,18.02
			c-2.98,6.97-4.86,14.48-5.66,22.53c-0.79,8.05,0.2,15.85,2.97,23.42c2.77,7.56,6.46,14.31,11.08,20.25
			c4.62,5.94,10.86,10.42,18.74,13.45c7.88,3.03,16.51,3.91,25.9,2.63c9.33-1.27,17.41-4.43,24.22-9.46
			c6.81-5.04,11.7-11.04,14.65-18.01c2.96-6.97,4.82-14.48,5.6-22.53c0.78-8.05-0.22-15.85-2.99-23.41
			c-2.77-7.56-6.45-14.31-11.06-20.25c-4.6-5.94-10.81-10.43-18.65-13.46c-7.83-3.04-16.41-3.92-25.73-2.65
			C830.02,624.1,821.91,627.25,815.06,632.3z"/>
	</g>
	<g>
		<linearGradient id="SVGID_1_" gradientUnits="userSpaceOnUse" x1="433.6606" y1="468.3337" x2="557.4957" y2="381.6235">
			<stop  offset="0.0629" style="stop-color:#FFB71B"/>
			<stop  offset="0.3007" style="stop-color:#FFFFFF"/>
			<stop  offset="1" style="stop-color:#FFB71B"/>
		</linearGradient>
		<path class="st2" d="M596.24,353.3H483.62v81.25h112.62V353.3z M490.07,428.1v-68.35h99.72v68.35H490.07z"/>
		<linearGradient id="SVGID_2_" gradientUnits="userSpaceOnUse" x1="467.9093" y1="513.2783" x2="590.8365" y2="427.2037">
			<stop  offset="0.0629" style="stop-color:#FFB71B"/>
			<stop  offset="0.3007" style="stop-color:#FFFFFF"/>
			<stop  offset="1" style="stop-color:#FFB71B"/>
		</linearGradient>
		<path class="st3" d="M638.61,375.58H606.3v58.97h32.31V375.58z M612.75,428.1v-46.07h19.41v46.07H612.75z"/>
		<linearGradient id="SVGID_3_" gradientUnits="userSpaceOnUse" x1="442.6082" y1="480.7144" x2="566.4582" y2="393.9937">
			<stop  offset="0.0629" style="stop-color:#FFB71B"/>
			<stop  offset="0.3007" style="stop-color:#FFFFFF"/>
			<stop  offset="1" style="stop-color:#FFB71B"/>
		</linearGradient>
		<path class="st4" d="M622.45,368.86c7.76,0,14.08-6.31,14.08-14.08c0-7.76-6.31-14.08-14.08-14.08c-7.76,0-14.08,6.31-14.08,14.08
			C608.38,362.55,614.69,368.86,622.45,368.86z M622.45,347.16c4.2,0,7.63,3.42,7.63,7.63s-3.42,7.63-7.63,7.63
			s-7.63-3.42-7.63-7.63S618.25,347.16,622.45,347.16z"/>
		<linearGradient id="SVGID_4_" gradientUnits="userSpaceOnUse" x1="482.4444" y1="532.9264" x2="605.3715" y2="446.8518">
			<stop  offset="0.0629" style="stop-color:#FFB71B"/>
			<stop  offset="0.3007" style="stop-color:#FFFFFF"/>
			<stop  offset="1" style="stop-color:#FFB71B"/>
		</linearGradient>
		<path class="st5" d="M648.9,375.58v58.97h32.31v-58.97H648.9z M655.35,428.1v-46.07h19.41v46.07H655.35z"/>
		<linearGradient id="SVGID_5_" gradientUnits="userSpaceOnUse" x1="456.933" y1="500.51" x2="580.7828" y2="413.7894">
			<stop  offset="0.0629" style="stop-color:#FFB71B"/>
			<stop  offset="0.3007" style="stop-color:#FFFFFF"/>
			<stop  offset="1" style="stop-color:#FFB71B"/>
		</linearGradient>
		<path class="st6" d="M665.05,368.86c7.76,0,14.08-6.31,14.08-14.08c0-7.76-6.31-14.08-14.08-14.08c-7.76,0-14.08,6.31-14.08,14.08
			C650.97,362.55,657.29,368.86,665.05,368.86z M665.05,347.16c4.2,0,7.63,3.42,7.63,7.63s-3.42,7.63-7.63,7.63
			s-7.63-3.42-7.63-7.63S660.84,347.16,665.05,347.16z"/>
		<linearGradient id="SVGID_6_" gradientUnits="userSpaceOnUse" x1="441.474" y1="479.2297" x2="565.0006" y2="392.7355">
			<stop  offset="0.0629" style="stop-color:#FFB71B"/>
			<stop  offset="0.3007" style="stop-color:#FFFFFF"/>
			<stop  offset="1" style="stop-color:#FFB71B"/>
		</linearGradient>
		<path class="st7" d="M473.56,447.88v-3.23h-23.23v3.23c0,26.69-21.71,48.4-48.4,48.4h-3.23v23.23h3.23
			C441.42,519.52,473.56,487.38,473.56,447.88z M408.81,502.25c0.98-0.12,1.95-0.27,2.91-0.45c0.78-0.14,1.55-0.29,2.31-0.46
			c0.96-0.22,1.9-0.47,2.84-0.73c0.74-0.21,1.47-0.42,2.2-0.66c0.94-0.31,1.86-0.66,2.77-1.02c0.69-0.27,1.38-0.53,2.06-0.83
			c0.93-0.41,1.82-0.86,2.72-1.31c0.63-0.32,1.26-0.62,1.88-0.96c0.93-0.52,1.82-1.08,2.71-1.65c0.54-0.35,1.1-0.67,1.63-1.03
			c0.98-0.67,1.92-1.4,2.85-2.13c0.4-0.32,0.82-0.6,1.22-0.93c2.62-2.18,5.03-4.59,7.21-7.21c0.32-0.39,0.6-0.8,0.92-1.2
			c0.74-0.94,1.47-1.88,2.15-2.87c0.36-0.53,0.68-1.08,1.02-1.62c0.57-0.9,1.14-1.8,1.66-2.73c0.34-0.6,0.63-1.23,0.95-1.85
			c0.46-0.91,0.92-1.82,1.33-2.76c0.29-0.67,0.55-1.35,0.82-2.03c0.36-0.93,0.72-1.85,1.03-2.8c0.24-0.71,0.44-1.44,0.65-2.17
			c0.27-0.95,0.52-1.91,0.74-2.88c0.17-0.75,0.32-1.51,0.46-2.27c0.18-0.98,0.33-1.97,0.45-2.96c0.1-0.78,0.18-1.56,0.25-2.35
			c0.04-0.43,0.11-0.85,0.14-1.29h10.35c-1.63,33.38-28.5,60.25-61.88,61.88v-10.35c0.42-0.02,0.84-0.1,1.26-0.13
			C407.21,502.44,408.01,502.35,408.81,502.25z"/>
		<linearGradient id="SVGID_7_" gradientUnits="userSpaceOnUse" x1="423.0726" y1="453.5938" x2="546.5991" y2="367.0996">
			<stop  offset="0.0629" style="stop-color:#FFB71B"/>
			<stop  offset="0.3007" style="stop-color:#FFFFFF"/>
			<stop  offset="1" style="stop-color:#FFB71B"/>
		</linearGradient>
		<path class="st8" d="M440.05,447.88v-3.23H398.7v41.35h3.23C422.94,486.01,440.05,468.9,440.05,447.88z M405.15,479.4v-28.29
			h28.29C431.92,466,420.04,477.88,405.15,479.4z"/>
		<linearGradient id="SVGID_8_" gradientUnits="userSpaceOnUse" x1="497.9238" y1="557.6051" x2="622.92" y2="470.0818">
			<stop  offset="0.0629" style="stop-color:#FFB71B"/>
			<stop  offset="0.3007" style="stop-color:#FFFFFF"/>
			<stop  offset="1" style="stop-color:#FFB71B"/>
		</linearGradient>
		<path class="st9" d="M638.31,519.99c-10.53-5.95-19.78-14.39-26.75-24.38c-9.72-13.96-14.86-30.46-14.86-47.73v-3.23H483.15v3.23
			c0,17.25-5.13,33.75-14.84,47.7l-0.02,0.03c-6.96,10-16.21,18.43-26.74,24.38c-12.04,6.81-25.74,10.42-39.63,10.44l-3.22,0v22.16
			h282.46v-22.16l-3.22,0C664.05,530.41,650.35,526.8,638.31,519.99z M485.35,475.33H594.5c2.09,6.59,4.9,12.94,8.49,18.9h-62.78
			h-10.96h-52.38C480.45,488.26,483.26,481.92,485.35,475.33z M590.31,451.11c0.21,6.05,1.03,11.99,2.4,17.77H487.15
			c1.37-5.78,2.19-11.72,2.4-17.77H590.31z M472.6,500.68h56.65h10.96h67.04c5.22,7.19,11.55,13.59,18.65,18.9h-85.69h-10.96h-75.29
			C461.06,514.27,467.38,507.87,472.6,500.68z M529.25,526.02h10.96h95.67c11.89,6.56,25.23,10.27,38.83,10.79v9.33H405.15v-9.33
			c13.6-0.52,26.94-4.23,38.83-10.79H529.25z"/>
		<linearGradient id="SVGID_9_" gradientUnits="userSpaceOnUse" x1="509.2092" y1="576.2778" x2="634.7781" y2="488.3535">
			<stop  offset="0.0629" style="stop-color:#FFB71B"/>
			<stop  offset="0.3007" style="stop-color:#FFFFFF"/>
			<stop  offset="1" style="stop-color:#FFB71B"/>
		</linearGradient>
		<path class="st10" d="M629.53,447.88v-3.23H606.3v3.23c0,39.5,32.14,71.64,71.64,71.64h3.23v-23.23h-3.23
			C651.24,496.28,629.53,474.57,629.53,447.88z M644.14,491c0.94,0.74,1.88,1.47,2.87,2.15c0.53,0.36,1.08,0.68,1.62,1.03
			c0.9,0.57,1.79,1.14,2.72,1.66c0.61,0.34,1.25,0.64,1.87,0.96c0.9,0.46,1.8,0.91,2.73,1.32c0.68,0.3,1.37,0.56,2.06,0.83
			c0.92,0.36,1.83,0.71,2.77,1.02c0.73,0.24,1.46,0.45,2.2,0.66c0.94,0.27,1.88,0.52,2.84,0.73c0.76,0.17,1.53,0.32,2.31,0.46
			c0.96,0.17,1.93,0.32,2.91,0.45c0.8,0.1,1.6,0.19,2.4,0.25c0.42,0.03,0.83,0.11,1.26,0.13v10.35
			c-33.38-1.63-60.25-28.5-61.88-61.88h10.35c0.02,0.43,0.1,0.84,0.13,1.26c0.07,0.8,0.15,1.6,0.25,2.4
			c0.12,0.98,0.27,1.96,0.45,2.92c0.14,0.77,0.29,1.54,0.46,2.29c0.22,0.96,0.47,1.91,0.74,2.86c0.21,0.73,0.42,1.46,0.65,2.18
			c0.31,0.95,0.66,1.87,1.02,2.79c0.27,0.68,0.53,1.37,0.82,2.04c0.41,0.94,0.87,1.85,1.33,2.75c0.31,0.62,0.61,1.24,0.95,1.85
			c0.52,0.94,1.1,1.84,1.67,2.75c0.34,0.53,0.66,1.08,1.01,1.6c0.68,0.99,1.42,1.94,2.16,2.89c0.31,0.39,0.59,0.8,0.9,1.18
			c2.18,2.62,4.59,5.04,7.21,7.21C643.33,490.4,643.74,490.69,644.14,491z"/>
		<linearGradient id="SVGID_10_" gradientUnits="userSpaceOnUse" x1="508.4613" y1="571.7793" x2="632.2769" y2="485.0827">
			<stop  offset="0.0629" style="stop-color:#FFB71B"/>
			<stop  offset="0.3007" style="stop-color:#FFFFFF"/>
			<stop  offset="1" style="stop-color:#FFB71B"/>
		</linearGradient>
		<path class="st11" d="M639.81,447.88c0,21.02,17.1,38.13,38.13,38.13h3.23v-41.35h-41.35V447.88z M674.71,451.11v28.29
			c-14.9-1.51-26.77-13.39-28.29-28.29H674.71z"/>
		<linearGradient id="SVGID_11_" gradientUnits="userSpaceOnUse" x1="411.6037" y1="437.1653" x2="534.5309" y2="351.0908">
			<stop  offset="0.0629" style="stop-color:#FFB71B"/>
			<stop  offset="0.3007" style="stop-color:#FFFFFF"/>
			<stop  offset="1" style="stop-color:#FFB71B"/>
		</linearGradient>
		<path class="st12" d="M473.6,375.58h-32.31v58.97h32.31V375.58z M447.74,428.1v-46.07h19.41v46.07H447.74z"/>
		<linearGradient id="SVGID_12_" gradientUnits="userSpaceOnUse" x1="387.1187" y1="404.0303" x2="510.9687" y2="317.3096">
			<stop  offset="0.0629" style="stop-color:#FFB71B"/>
			<stop  offset="0.3007" style="stop-color:#FFFFFF"/>
			<stop  offset="1" style="stop-color:#FFB71B"/>
		</linearGradient>
		<path class="st13" d="M457.45,368.86c7.76,0,14.08-6.31,14.08-14.08c0-7.76-6.31-14.08-14.08-14.08s-14.08,6.31-14.08,14.08
			C443.37,362.55,449.69,368.86,457.45,368.86z M457.45,347.16c4.2,0,7.63,3.42,7.63,7.63s-3.42,7.63-7.63,7.63
			c-4.2,0-7.63-3.42-7.63-7.63S453.24,347.16,457.45,347.16z"/>
		<linearGradient id="SVGID_13_" gradientUnits="userSpaceOnUse" x1="397.0684" y1="417.5168" x2="519.9956" y2="331.4423">
			<stop  offset="0.0629" style="stop-color:#FFB71B"/>
			<stop  offset="0.3007" style="stop-color:#FFFFFF"/>
			<stop  offset="1" style="stop-color:#FFB71B"/>
		</linearGradient>
		<path class="st14" d="M431.01,375.58H398.7v58.97h32.31V375.58z M405.15,428.1v-46.07h19.41v46.07H405.15z"/>
		<linearGradient id="SVGID_14_" gradientUnits="userSpaceOnUse" x1="372.7941" y1="384.2343" x2="496.6441" y2="297.5136">
			<stop  offset="0.0629" style="stop-color:#FFB71B"/>
			<stop  offset="0.3007" style="stop-color:#FFFFFF"/>
			<stop  offset="1" style="stop-color:#FFB71B"/>
		</linearGradient>
		<path class="st15" d="M414.85,368.86c7.76,0,14.08-6.31,14.08-14.08c0-7.76-6.31-14.08-14.08-14.08s-14.08,6.31-14.08,14.08
			C400.77,362.55,407.09,368.86,414.85,368.86z M414.85,347.16c4.2,0,7.63,3.42,7.63,7.63s-3.42,7.63-7.63,7.63
			c-4.2,0-7.63-3.42-7.63-7.63S410.65,347.16,414.85,347.16z"/>
	</g>
</g>
</svg>
